<?xml version="1.0" encoding="UTF-8"?>
<svg id="a" data-name="Layer 1" xmlns="http://www.w3.org/2000/svg" width="2735.92" height="826.79" viewBox="0 0 2735.92 826.79">
  <defs>
    <style>
      .b, .c {
        fill: #fff;
      }

      .c {
        stroke: #fff;
        stroke-miterlimit: 10;
        stroke-width: 5px;
      }
    </style>
  </defs>
  <path class="c" d="M117.76,457.45c-12.47.01-24.89-1.62-36.94-4.87-21.53-5.64-40.53-18.35-53.96-36.1-9.73-12.67-14.49-27.18-14.96-45.66-.21-7.2.5-14.4,2.1-21.42,3.38-13.63,10.35-26.11,20.17-36.14,6.71-7.46,14.58-13.79,23.32-18.72,12.67-6.81,26.46-11.29,40.71-13.25,18.52-2.89,37.44-1.84,55.53,3.08,15.66,4.29,30.14,12.08,42.34,22.79,3.49,2.94,6.51,6.39,8.95,10.24,1.76,2.42,1.27,5.81-1.11,7.63-3.21,1.82-7.26,1.05-9.59-1.81-.79-.9-1.58-1.79-2.39-2.68-.89-1-1.78-1.98-2.66-3-5.86-6.8-13.85-12.06-25.9-17.08-8.58-3.49-17.55-5.93-26.71-7.25-9.63-1.73-19.46-1.96-29.16-.66-1.47.23-2.96.35-4.46.48-1.54.13-3,.25-4.38.5-4.25.72-8.39,1.64-12.62,2.59-.72.18-1.43.4-2.12.66-.99.37-1.99.67-3.02.92-13.37,2.95-24.89,9.74-36.26,21.4-3.17,3.46-5.85,7.32-7.99,11.49-8.64,15.47-11.68,33.44-8.61,50.88,1.01,8.93,3.51,17.63,7.4,25.73,3.48,6.63,8.26,12.49,14.05,17.24,14.13,11.51,31.33,18.63,49.46,20.49,4.88.56,9.85.87,14.07,1.1,10.37.31,20.71-1.14,30.59-4.29,2-.57,4.04-1.08,6.07-1.59,3.05-.75,5.92-1.48,8.74-2.41,7.64-2.64,14.5-7.13,19.99-13.07,1.42-1.45,2.85-2.88,4.27-4.31,4.08-4.09,8.3-8.32,12.07-12.74,3.27-3.83,8.64-6.09,12.57-3,.48.37.91.8,1.28,1.27,2.84,3.6,1.51,8.73-1.07,12.22-7.17,9.62-16.04,17.85-26.17,24.28-7.64,4.66-15.99,8.04-24.71,10.02-12.71,3.3-25.78,4.99-38.9,5.04Z"/>
  <path class="c" d="M354.2,457.42c-20,.02-39.77-4.35-57.9-12.8-20.33-9.41-34.99-23.29-43.58-41.26-4.04-8.83-6.29-18.38-6.61-28.09-.09-1.7-.07-3.36-.05-4.97,0-.69.02-1.38.02-2.08-.63-18.75,5.72-37.07,17.81-51.41,9.25-10.74,20.81-19.25,33.81-24.9,20.55-9.45,43.06-13.36,68.82-11.92,17.06.69,33.82,4.74,49.31,11.9,25.52,12.24,41.82,30.7,48.47,54.9,2.89,10.65,3.63,21.76,2.18,32.69-.8,8.48-2.59,16.83-5.34,24.89-1.47,3.83-3.61,7.37-6.33,10.44-1.03,1.21-2.05,2.43-3.06,3.65-3.71,4.69-7.77,9.09-12.16,13.15-7.09,6.49-15.47,11.41-24.59,14.43-2.5.85-4.96,1.84-7.35,2.96-2,.89-4.08,1.81-6.23,2.6-3.05,1.1-6.2,1.87-9.41,2.3-6.36.89-12.83,1.62-19.09,2.32l-2.39.27c-5.42.62-10.87.93-16.33.94ZM356.22,290.9c-12.93-.01-25.8,1.75-38.24,5.25-8.09,2.07-15.81,5.39-22.88,9.84-5.91,3.66-11.38,7.99-16.31,12.89-.63.66-1.27,1.32-1.92,2-3.57,3.24-6.55,7.08-8.8,11.34-4.8,11.45-10.24,24.43-8.36,37.97l.04.52v2.16c0,1.6.02,3.21-.02,4.81-.42,16.22,5.98,30.07,19.59,42.32,11.6,10.26,25.46,17.63,40.45,21.53,15.64,4.12,31.87,5.58,47.99,4.3,10.11-.34,20.07-2.5,29.41-6.38,2.65-1.21,5.38-2.22,8.01-3.2,1.98-.73,3.96-1.47,5.9-2.29,5.83-2.46,10.57-4.66,14.07-8.62.9-1.02,1.86-2,2.82-3,1.23-1.26,2.4-2.46,3.41-3.72,4.8-6,9.43-11.99,13.77-17.81.43-.73.76-1.52.97-2.34.17-.5.33-1,.52-1.5,2.17-6.57,3.5-13.39,3.95-20.29.17-1.57.34-3.15.53-4.71.12-.98.25-1.97.41-2.97.59-3,.76-6.06.51-9.1-1.86-14.08-7.92-27.26-17.4-37.84-4.22-5.03-8.97-9.58-14.17-13.58-5.33-3.56-11.02-6.53-16.99-8.87l-2.84-1.25c-3.19-1.5-6.52-2.68-9.94-3.55-11.31-2.57-22.87-3.89-34.48-3.92Z"/>
  <path class="c" d="M521.22,453.29c-1,0-1.99-.21-2.91-.63-3.02-1.57-4.85-4.76-4.65-8.16,0-5-.08-9.99-.17-14.99-.52-14.04-.17-28.09,1.05-42.08,1.17-13.14,1.63-26.32,1.39-39.51v-16.99c0-11.38,0-22.76,0-34.14v-.64c-.23-2.64.33-5.29,1.6-7.62,2.44-3.92,6.97-3.92,9.67-3.93l25.79-.04c31.23-.05,63.55-.11,95.33.13,11.39-.18,22.74,1.54,33.57,5.07,19.42,6.26,32.85,24.02,33.58,44.41.19,5.34-.04,10.69-.69,15.99-1.35,10.4-6.55,19.93-15.9,29.13-7.49,7.36-17.35,11.81-27.83,12.58-8.44.69-15.36,1.02-21.79,1.04-25.04.07-50.09.09-75.13.07h-39.64c-1.17-.14-2.36,0-3.47.39-.48.45-.46,1.54-.37,3.28.03.65.07,1.29.06,1.91,0,1.38,0,2.75.02,4.14.02,2.4.04,4.8-.04,7.19-.06,1.86-.1,3.72-.14,5.59-.1,4.8-.21,9.77-.75,14.69-.06,1.78.07,3.56.39,5.31.69,5.05,1.55,11.33-3.12,15.4-1.59,1.49-3.67,2.35-5.85,2.42ZM530.89,381.75c1.09.08,2.19.09,3.29.03.59-.07,1.19-.08,1.79-.04h19.16c28.67.02,58.32.04,87.47-.05,4.42-.02,8.99-.38,13.4-.75,1.81-.15,3.63-.29,5.45-.42,9.24-.63,16.51-5.41,22.98-10.48.82-.74,1.52-1.61,2.06-2.57,2.66-4.31,4.78-7.9,6.66-11.31,1.1-2.07,2.07-4.2,2.92-6.39,3.16-7.91,3.93-16.57,2.22-24.92-2.34-12.64-8.9-20.51-20.63-24.73-8.31-2.83-17.04-4.25-25.82-4.2-4.61-.08-9.37.15-13.97.37-3.8.18-7.72.37-11.62.4-3.42.04-6.87-.19-10.19-.4-2.95-.18-6-.37-8.96-.38-17.89-.08-35.77-.06-53.66-.04h-13.42c-5.93,0-7.87.53-8.08,2.18-.41,4.12-.5,8.27-.27,12.41l.07,2.42c.11,4.95-.14,9.91-.39,14.71-.17,3.29-.34,6.7-.39,10.01-.17,11.41-.19,23.02-.21,34.25v6.38c-.01,1.14.08,2.28.17,3.41v.1Z"/>
  <path class="c" d="M767.49,453.29c-1,0-1.99-.21-2.91-.63-3.02-1.57-4.85-4.76-4.65-8.16,0-5-.08-9.99-.17-14.99-.52-14.04-.17-28.09,1.05-42.08,1.17-13.14,1.63-26.32,1.39-39.51v-16.99c0-11.38,0-22.76,0-34.14v-.64c-.23-2.64.33-5.29,1.6-7.62,2.44-3.92,6.97-3.92,9.67-3.93l25.79-.04c31.23-.05,63.55-.11,95.33.13,11.39-.18,22.74,1.54,33.57,5.07,19.42,6.26,32.85,24.02,33.58,44.41.19,5.34-.04,10.69-.69,15.99-1.35,10.4-6.55,19.93-15.9,29.13-7.49,7.36-17.35,11.81-27.83,12.58-8.44.69-15.36,1.02-21.79,1.04-25.04.07-50.09.09-75.13.07h-39.64c-1.17-.14-2.36,0-3.47.39-.48.45-.46,1.54-.37,3.28.03.65.07,1.29.06,1.91,0,1.38,0,2.75.02,4.14.02,2.4.04,4.8-.04,7.19-.06,1.86-.1,3.72-.14,5.59-.1,4.8-.21,9.77-.75,14.69-.06,1.78.07,3.56.39,5.31.69,5.05,1.55,11.33-3.12,15.4-1.59,1.49-3.67,2.35-5.85,2.42ZM777.17,381.75c1.09.08,2.19.09,3.29.03.59-.07,1.19-.08,1.79-.04h19.16c28.67.02,58.32.04,87.47-.05,4.42-.02,8.99-.38,13.4-.75,1.81-.15,3.63-.29,5.45-.42,9.24-.63,16.51-5.41,22.98-10.48.82-.74,1.52-1.61,2.06-2.57,2.66-4.31,4.78-7.9,6.66-11.31,1.1-2.07,2.07-4.2,2.92-6.39,3.16-7.91,3.93-16.57,2.22-24.92-2.34-12.64-8.9-20.51-20.63-24.73-8.31-2.83-17.04-4.25-25.82-4.2-4.61-.08-9.37.15-13.97.37-3.8.18-7.72.37-11.62.4-3.42.04-6.87-.19-10.19-.4-2.95-.18-6-.37-8.96-.38-17.89-.08-35.77-.06-53.66-.04h-13.42c-5.93,0-7.87.53-8.08,2.18-.41,4.12-.5,8.27-.27,12.41l.07,2.42c.11,4.95-.14,9.91-.39,14.71-.17,3.29-.34,6.7-.39,10.01-.17,11.41-.19,23.02-.21,34.25v6.38c-.01,1.14.08,2.28.17,3.41v.1Z"/>
  <path class="c" d="M1062.68,453.63h-.16c-2.89,0-5.76-.22-8.53-.42-2.43-.18-4.73-.35-7.05-.39-5.02-.09-10.05-.1-15.07-.11-4.36,0-8.71-.01-13.07-.07-8.2-.11-11.38-3.09-11.74-10.99-.25-5.48-.26-11.03-.29-16.39l-.02-4.93c-.02-2.31.02-4.62.06-6.93l.18-13.82,1.11-86.82c-.02-1.85-.15-3.7-.37-5.54-.56-5.5-1.2-11.73,2.25-17.01,3.58-5.5,8.7-5.6,12.44-5.68,4.94-.11,9.96-.1,14.8-.09h5.38c41.55-.05,83.1-.1,124.66-.15h.82c3.16,0,6.33,0,9.49.09,2.07.06,5.98.18,7.75,3.7.28.55.49,1.14.6,1.75.34,1.7-.17,3.47-1.37,4.72-1.85,1.69-4.38,2.41-6.85,1.97-8.04-.89-16.14-.94-24.19-.16-5.22.32-10.62.64-16.01.53l-11.82-.25c-15.33-.34-31.19-.7-46.77-.7-12.19-.07-24.55.33-36.52.65l-10.99.28c-.55.02-1.14,0-1.75,0-1.1-.11-2.21-.03-3.29.25-2.17,1.24-3.48,3.58-3.41,6.08.18,2.84.27,5.84.27,9.17,0,6.12-.33,12.24-.62,17.66l-.07,1.2c-.29,5.33-.58,10.83-.65,16.21,0,1-.11,2.22-.23,3.54-.23,2.58-.66,7.38.52,8.66.38.28.85.41,1.32.35h6.52c18.09,0,36.79,0,55.18-.15,13.62-.1,27-.43,39.43-.78,3.73-.1,7.54-.35,11.24-.58,2.4-.15,4.8-.31,7.2-.43,2.81-.14,5.7-.19,8.61-.16,2.87-.13,5.69.83,7.88,2.69,1.88,1.85,2.54,4.61,1.72,7.11-.81,2.11-2.8,3.54-5.07,3.6-2.98.2-5.96.41-8.94.63-9.06.66-18.43,1.34-27.71,1.43-14.86.14-30.77.12-46.41-1.07-9.83-.75-19.88-.74-29.61-.72-5.73.01-11.64.02-17.49-.13-2.62-.06-3.35.46-3.51.63-.46.8-.64,1.72-.52,2.63.07,3.68.16,7.36.25,11.04l.1,3.77c.16,6.13.31,12.26.42,18.38.1,5.85.11,11.7.12,17.55,0,3.9.02,7.8.05,11.7v.53c0,.98,0,3.29.5,3.59,2.19.49,4.46.56,6.68.23,1.18-.09,2.28-.16,3.18-.16h.02l28.44.03c18.54.02,37.08,0,55.61-.07,10.46-.04,21.13-.4,31.44-.75l3.14-.1c3.75-.12,7.51-.33,11.27-.54,3.6-.2,7.21-.4,10.81-.53,3.06-.37,6.14.5,8.56,2.4,1.06,1.09,1.6,2.58,1.48,4.1-.16,2.19-1.54,5.86-9.02,5.94-2.44.02-4.87.02-7.31,0-2.75,0-5.51-.02-8.26.02-26.15.35-52.3.73-78.44,1.13-2.72.04-5.44.18-8.16.32-3.33.16-6.79.33-10.24.33Z"/>
  <path class="c" d="M1427.13,455.23c-.21,0-.42-.01-.63-.04-2.75-.14-5.42-.91-7.83-2.23-2.25-1.43-4.57-2.78-6.89-4.12-5.82-3.11-11.29-6.84-16.31-11.13-1.33-1.15-2.74-2.21-4.21-3.16-1.83-1.18-3.57-2.5-5.2-3.95-9.86-8.62-20.42-16.4-31.58-23.26-6.05-3.95-12.3-8.04-18.26-12.38-1.94-1.39-4.28-2.1-6.67-2.01h-.04c-15.82.03-31.64.04-47.47.03h-30.5c-.65.04-1.54-.03-2.37-.07-1.69-.09-4.51-.25-5.2.48l-.07.08c-1.54,2.16-.7,6.59.03,10.49.4,1.89.68,3.8.83,5.73l.19,3.75c.35,6.67.71,13.56.85,20.38-.04,3.49-.42,6.97-1.13,10.38-.39,2.19-1.38,4.24-2.85,5.91-1.76,1.96-4.38,2.9-6.98,2.52-2.66-.4-4.94-2.11-6.07-4.55-.74-1.54-1.13-3.23-1.15-4.94.12-16.11.63-32.44,1.12-48.22.42-13.45.86-27.36,1.04-41.05.16-11.45.15-23.11.13-34.39v-15.99c.01-6.53.03-17.29,11.52-18.88,7.35-.79,14.75-.98,22.12-.57,3.96.11,7.7.22,11.38.14,3.68-.07,7.39-.23,11.08-.38,5.6-.25,11.39-.48,17.12-.43,22.44.22,42.39.64,61.02,1.27,8.88.07,17.71,1.17,26.33,3.29,12.07,3.31,20.57,8.14,26.72,15.19,2.95,3.25,5.45,6.87,7.45,10.76,7.61,14.86,7.99,32.39,1.02,47.57-6.12,14.05-17.64,23.41-34.23,27.82-9.19,2.5-18.68,3.73-28.2,3.67-3.45-.04-6.91-.04-10.35-.03l13.16,8.72c14.97,9.93,29.96,19.83,44.97,29.7,3.01,1.97,6.27,3.81,9.43,5.59,1.92,1.08,3.84,2.17,5.75,3.29,1.98,1.08,3.83,2.4,5.5,3.92,1.68,1.91,2.13,4.6,1.16,6.95-.97,2.35-3.2,3.93-5.73,4.09v.03ZM1292.82,295.79c-8.99,0-17.94.02-26.76.04l-18.16.03c-1.41,0-1.81.43-1.94.57-1.31,1.38-1.07,5.7-.94,8.29l.23,4.3c.28,4.97.57,10.11.54,15.24-.06,9.58-.43,19.28-.79,28.67l-.3,8.04c-.08,2.13-.25,4.25-.41,6.37-.14,1.69-.27,3.39-.36,5.09l-.06,1.14c-.15,2.61-.31,5.32.85,6.35.37.3.79.53,1.25.66,4.14,1.41,10.72,1.25,15.99,1.14,1.55-.03,3.15-.05,4.39-.07,6.84-.02,13.75-.2,20.47-.39,6.81-.2,13.77-.4,20.79-.4,10.35,0,20.85.29,31,.56,4.65.12,9.29.24,13.94.34,9.14.2,18.28-.45,27.3-1.93,10.17-1.66,19.27-6.5,29.52-15.66,1.42-1.32,2.53-2.94,3.25-4.75,2.77-6.3,4.54-13,5.23-19.85l.06-1c.38-3.68.26-7.4-.37-11.05-2.59-12.44-11.56-22.59-23.58-26.69-6.61-2.12-13.54-3.09-20.49-2.86-2.15-.04-4.29-.05-6.44-.07-4.19-.03-8.53-.06-12.83-.28-3.53-.18-7.08-.5-10.51-.78-4.93-.43-10.03-.87-14.97-.91-11.93-.11-23.96-.14-35.92-.14h0Z"/>
  <path class="c" d="M1916.87,605.96c-.21,0-.42-.01-.63-.03-2.75-.14-5.42-.91-7.83-2.23-2.25-1.43-4.57-2.78-6.89-4.12-5.82-3.11-11.29-6.84-16.31-11.13-1.33-1.15-2.74-2.21-4.21-3.16-1.83-1.18-3.57-2.5-5.2-3.95-9.86-8.62-20.42-16.4-31.58-23.26-6.05-3.95-12.3-8.04-18.26-12.38-1.94-1.39-4.28-2.1-6.67-2.01h-.04c-15.82.03-31.64.04-47.47.03h-30.5c-.65.04-1.54-.03-2.37-.07-1.69-.09-4.51-.25-5.2.48l-.07.08c-1.54,2.16-.7,6.59.03,10.49.4,1.89.68,3.8.83,5.73l.19,3.75c.35,6.67.71,13.56.85,20.38-.04,3.49-.42,6.97-1.13,10.38-.39,2.19-1.38,4.24-2.85,5.91-1.76,1.96-4.38,2.9-6.98,2.52-2.66-.4-4.94-2.11-6.07-4.55-.74-1.54-1.13-3.23-1.15-4.94.12-16.11.63-32.44,1.12-48.22.42-13.45.86-27.36,1.04-41.05.16-11.45.15-23.11.13-34.39v-15.99c.01-6.53.03-17.29,11.52-18.88,7.35-.79,14.75-.98,22.12-.57,3.96.11,7.7.22,11.38.14,3.68-.07,7.39-.23,11.08-.38,5.6-.25,11.39-.48,17.12-.43,22.44.22,42.39.64,61.02,1.27,8.87.07,17.71,1.17,26.33,3.29,12.07,3.31,20.57,8.14,26.72,15.19,2.95,3.25,5.45,6.87,7.45,10.76,7.61,14.86,7.99,32.39,1.02,47.57-6.12,14.05-17.64,23.41-34.23,27.82-9.19,2.5-18.68,3.73-28.2,3.67-3.45-.04-6.91-.04-10.35-.03l13.16,8.72c14.97,9.93,29.96,19.83,44.97,29.7,3.01,1.97,6.27,3.81,9.43,5.59,1.92,1.08,3.84,2.17,5.75,3.29,1.98,1.08,3.83,2.4,5.5,3.92,1.68,1.91,2.13,4.6,1.16,6.95-.97,2.35-3.2,3.93-5.73,4.09v.03ZM1782.55,446.52c-8.99,0-17.94.02-26.76.04l-18.16.03c-1.41,0-1.81.43-1.94.57-1.31,1.38-1.07,5.7-.94,8.29l.23,4.3c.28,4.97.57,10.11.54,15.24-.06,9.58-.43,19.28-.79,28.67l-.3,8.04c-.08,2.13-.25,4.25-.41,6.37-.14,1.69-.27,3.39-.36,5.09l-.06,1.14c-.15,2.61-.31,5.32.85,6.35.37.3.79.53,1.25.66,4.14,1.41,10.72,1.25,15.99,1.14,1.55-.03,3.15-.05,4.39-.07,6.84-.02,13.75-.2,20.47-.39,6.81-.2,13.77-.4,20.79-.4,10.35,0,20.85.29,31,.56,4.65.12,9.29.24,13.94.34,9.14.2,18.28-.45,27.3-1.93,10.17-1.66,19.27-6.5,29.52-15.66,1.42-1.32,2.53-2.94,3.25-4.75,2.77-6.3,4.54-13,5.23-19.85l.05-1c.38-3.68.26-7.4-.37-11.05-2.59-12.44-11.56-22.59-23.58-26.69-6.61-2.12-13.54-3.09-20.49-2.86-2.15-.04-4.29-.05-6.44-.07-4.19-.03-8.53-.06-12.83-.28-3.53-.18-7.08-.5-10.51-.78-4.93-.43-10.03-.87-14.97-.91-11.93-.11-23.96-.14-35.92-.14h0Z"/>
  <path class="c" d="M1978.22,604.3c-.38,0-.76-.03-1.14-.1-2.83-.55-5.13-2.6-6-5.35-.61-2.2-.88-4.47-.81-6.75v-47.77c.01-26.29,0-52.59-.02-78.89,0-3.48-.27-6.94-.55-10.59-.16-2.12-.32-4.25-.43-6.36-.03-.48-.07-.97-.12-1.45-.15-1.3-.2-2.62-.12-3.93.02-1.63.47-3.22,1.32-4.61.53-.77,1.2-1.43,1.98-1.94,1.76-1.14,3.96-1.35,5.9-.55,3.15,1.42,5.53,4.14,6.53,7.45.86,3.46,1.25,7.01,1.18,10.57,0,2.98-.25,5.93-.5,8.78-.1,1.16-.2,2.32-.29,3.48-.21,3-.45,6.02-.68,9.02-.52,6.75-1.06,13.74-1.39,20.57-.33,6.95-.23,13.87-.09,20.94.25,12.26.59,24.95,1.04,37.72.42,11.76.99,23.55,1.5,33.68l.07,1.12c.23,3.69.54,8.74-2,12.17-1.25,1.73-3.25,2.76-5.38,2.77Z"/>
  <path class="c" d="M2078.27,602.56c-8.08,0-16.17-.01-24.25-.03-3.04.25-6.07-.52-8.63-2.18-1.9-1.53-3.17-3.71-3.56-6.12-.64-3.13-.99-6.32-1.06-9.52-.25-10.56-.48-21.12-.68-31.68-.21-10.23-.42-20.47-.65-30.71-.11-4.47-.29-8.95-.48-13.43-.32-7.62-.65-15.51-.56-23.31.08-7.55.66-15.16,1.22-22.52.25-3.41.52-6.81.73-10.22.09-1.42.15-2.85.2-4.28.04-1.04.08-2.08.14-3.12.38-7.6,2.93-9.97,10.9-10.16l1.69-.04c4.96-.12,10.09-.21,15.17-.23,5.66.01,11.32.02,16.97.02,17.42,0,35.44.02,53.17.32,15.16.25,27.59.98,39.14,2.26,5.76.86,11.4,2.35,16.83,4.46,1.32.46,2.65.92,3.96,1.36,10.42,3.3,20.18,8.41,28.83,15.08,7.7,6.24,13.84,14.21,17.91,23.25,4.57,9.4,6.21,19.42,7.79,29.11l.48,2.95c2.7,16.66-1.25,33.72-11.01,47.5-5.71,8.81-12.68,16.73-20.7,23.51-4.45,3.86-9.71,6.68-15.38,8.24-3.28.86-6.62,1.95-9.84,3-2.36.77-4.73,1.53-7.11,2.23-8.38,2.46-17.06,3.75-25.79,3.85-18.49.21-37.29.26-55.46.31l-12.85.04c-5.7.02-11.4.02-17.11.02ZM2055.55,592.07c.96.1,1.93.12,2.9.04.41-.02.8-.04,1.16-.04,5.03-.1,10.06-.23,15.08-.36,8.6-.22,17.49-.44,26.26-.53,8.99-.09,17.99-.07,26.97-.05,7.4,0,14.8.03,22.2-.02h3.21c4.47.17,8.95-.1,13.37-.82,8.46-1.71,16.99-4.16,25.23-6.53l2.76-.79c6.07-1.54,11.58-4.77,15.88-9.33,1.8-1.98,3.57-4,5.34-6.01,2.43-2.77,4.94-5.63,7.52-8.38,12.43-12.87,18.71-30.47,17.26-48.3-.33-4.73-1.11-9.41-2.33-13.99-3.71-14.18-9.94-23.73-19.61-30.04-2.13-1.39-4.36-2.63-6.73-3.94l-2.28-1.27c-9.49-5.73-19.94-9.72-30.83-11.78-7.54-1.15-15.15-1.87-22.77-2.15-3.51-.16-7.01-.03-10.71.1-7.15.59-14.35.16-21.38-1.27h-14.99c-15.34-.01-30.69,0-46.04.03-5.93.02-6.3.52-6.67,2.23-.3,1.99-.32,4.02-.06,6.01.17,1.72.23,3.44.18,5.17-.23,4.75-.54,9.49-.86,14.24-.41,6.19-.83,12.59-1.05,18.85-.29,8.49-.11,17.17.08,25.56.21,9.24.41,18.8,0,28.27-.02.9,0,1.8.08,2.7l.06.93c.09,1.54.19,3.08.3,4.62.22,3.2.45,6.5.5,9.81.09,4.84.09,9.69.08,14.53,0,3,0,6.01.01,9.02,0,.53-.04,1.12-.08,1.73-.06.59-.08,1.18-.06,1.77h0Z"/>
  <path class="c" d="M2397.74,608.01c-.52,0-1.04,0-1.56-.01-21.34-.35-39.25-4.45-54.74-12.55-7.12-3.72-14.01-7.79-19.24-10.92-4.6-3.11-8.47-7.19-11.34-11.94l-1.09-1.55c-7.58-10.68-12.11-23.08-14.69-40.22-1.59-9.22-1.8-18.63-.64-27.92,2.25-15.44,9.56-29.7,20.8-40.53,13.55-13.2,30.38-22.55,48.75-27.06,18.24-4.76,37.2-6.11,55.93-3.97,12.4,1.25,24.51,3.45,35.75,5.66,12.37,2.56,23.76,8.56,32.87,17.31,3.74,3.46,6.94,7.45,9.49,11.86,2.9,4.95.9,7.7-1.28,9.14-2.62,1.71-6.07,1.42-8.37-.69-1.01-1.03-1.9-2.17-2.67-3.39-.54-.9-1.18-1.72-1.92-2.45-1.82-1.51-3.74-2.87-5.76-4.09-2.29-1.39-4.47-2.95-6.53-4.65-3.01-2.43-6.44-4.27-10.13-5.43-18.51-6.45-37.8-10.39-57.36-11.72-11.74-.64-23.51.58-34.87,3.6-5.15,1.42-10.17,3.26-15.03,5.5-1.2.52-2.4,1.03-3.61,1.54-5.54,2.07-10.81,4.81-15.69,8.16-15.24,11.44-23.97,24.79-26.65,40.81-.69,5.6-.77,11.26-.23,16.88l.07,1.14c.38,4.62,1.04,9.21,2,13.74l.2,1.07c2.77,13.82,9.11,26.66,18.4,37.26,4.77,5.71,11.74,9.44,18.47,13.05,12.34,6.3,25.87,9.96,39.7,10.74,1.8.07,3.6-.04,5.38-.33,1.88-.27,3.78-.41,5.68-.42,9.7.31,19.4-.47,28.93-2.31,4.05-.83,8.17-1.47,12.15-2.08,2.85-.44,5.7-.88,8.53-1.39,1.86-.37,3.68-.95,5.41-1.73,2.8-1.22,5.57-2.5,8.34-3.75,4.18-1.91,8.49-3.88,12.87-5.67,3.93-1.87,7.52-4.38,10.62-7.42l1.71-1.5c.26-.34.43-.75.49-1.18,0-9.97-.11-19.95-.23-29.92l-.09-7.29c0-.59.03-1.19.07-1.83.03-.47.08-1.22.07-1.76-.72,0-1.44.05-2.15.14-.52.06-1.02.11-1.46.13-1.87.1-3.75.25-5.6.4-2.88.23-5.85.46-8.83.53-14.38.33-28.77.63-43.15.89l-16.74.32c-1.08.02-2.16.08-3.25.14-2.65.21-5.31.2-7.96-.03-3.37-.1-6.49-1.83-8.36-4.64-.82-1.46-1.34-3.06-1.53-4.72-.45-1.73-.03-3.58,1.14-4.94,2.32-2.02,5.43-2.87,8.46-2.29.4.02.78.05,1.13.05l8.24.08c5.5.05,10.99.11,16.49.17,7.25.08,14.5.19,21.75.31,13.17.23,26.89.6,41.94,1.12,2.92-.12,5.82.48,8.44,1.75,4.19,2.47,4.21,7.81,4.22,10.38.03,6.16,0,12.32-.02,18.49-.03,7.2-.06,14.4,0,21.61.11,5.01-2.2,9.77-6.21,12.78-10.91,9.08-23.57,14.32-34.51,18.26-13.5,4.84-27.64,7.65-41.97,8.34-2.02.1-4.04.23-6.07.36-4.23.3-8.59.59-12.95.59Z"/>
  <path class="c" d="M2605.71,604.35h-.16c-2.89,0-5.76-.22-8.53-.42-2.43-.18-4.73-.35-7.05-.39-5.02-.09-10.05-.1-15.07-.11-4.36,0-8.71-.01-13.07-.07-8.2-.11-11.38-3.09-11.74-10.99-.25-5.48-.26-11.03-.29-16.39l-.02-4.93c-.02-2.31.02-4.62.06-6.93l.18-13.82,1.11-86.82c-.02-1.85-.15-3.7-.37-5.54-.56-5.5-1.2-11.73,2.25-17.01,3.58-5.5,8.7-5.6,12.44-5.68,4.94-.11,9.96-.1,14.8-.09h5.38c41.55-.05,83.1-.1,124.66-.15h.82c3.16,0,6.33,0,9.49.09,2.07.07,5.98.18,7.75,3.7.28.55.49,1.14.6,1.75.34,1.7-.17,3.47-1.37,4.72-1.85,1.69-4.38,2.41-6.85,1.97-8.04-.89-16.14-.94-24.19-.16-5.22.32-10.62.64-16.01.53l-11.82-.25c-15.33-.34-31.19-.7-46.77-.7-12.19-.07-24.55.33-36.52.65l-10.99.28c-.55.02-1.14,0-1.75,0-1.1-.11-2.21-.03-3.29.25-2.17,1.24-3.48,3.58-3.41,6.08.18,2.84.27,5.84.27,9.17,0,6.12-.33,12.24-.62,17.66l-.06,1.2c-.29,5.33-.58,10.83-.65,16.21,0,1-.11,2.22-.23,3.54-.23,2.58-.66,7.38.52,8.66.38.28.85.41,1.32.35h6.52c18.09,0,36.79,0,55.18-.15,13.62-.1,27-.43,39.43-.78,3.73-.1,7.54-.35,11.24-.58,2.4-.15,4.8-.31,7.2-.43,2.81-.14,5.7-.19,8.61-.16,2.87-.13,5.69.83,7.88,2.69,1.88,1.85,2.54,4.61,1.72,7.11-.81,2.11-2.8,3.54-5.07,3.6-2.98.2-5.96.41-8.94.63-9.06.66-18.43,1.34-27.71,1.43-14.86.14-30.77.12-46.41-1.07-9.83-.75-19.88-.74-29.61-.72-5.73.01-11.64.02-17.49-.13-2.62-.05-3.35.46-3.51.63-.46.8-.64,1.72-.52,2.63.07,3.68.16,7.36.25,11.04l.1,3.77c.16,6.13.31,12.26.42,18.38.1,5.85.11,11.7.12,17.55,0,3.9.02,7.8.05,11.7v.53c0,.98,0,3.29.5,3.59,2.19.49,4.46.56,6.68.23,1.18-.09,2.28-.16,3.18-.16h.02l28.44.03c18.54.02,37.08,0,55.61-.07,10.46-.04,21.13-.4,31.44-.75l3.14-.1c3.75-.12,7.51-.33,11.27-.54,3.6-.2,7.21-.4,10.81-.53,3.06-.37,6.14.5,8.56,2.4,1.06,1.09,1.6,2.58,1.48,4.1-.16,2.19-1.54,5.86-9.02,5.94-2.44.02-4.87.02-7.31,0-2.75,0-5.51-.02-8.26.02-26.15.35-52.3.73-78.44,1.13-2.72.04-5.44.18-8.16.32-3.33.16-6.79.33-10.24.33Z"/>
  <path class="b" d="M12.9,783.25c0-19.19,14.71-31.03,39.82-31.03,14.04,0,22.44,4.2,27.79,9.93l1.53-8.59h9.17v19.86h-11.75c-5.73-6.11-12.03-10.03-24.73-10.03-17.28,0-26.74,7.16-26.74,19.86s9.45,19.86,25.78,19.86,23.87-7.73,24.92-15.18h-34.28v-7.35h48.6v32.47h-12.22v-13.56c-4.49,8.31-13.65,15.09-29.6,15.09-23.59,0-38.29-13.18-38.29-31.32Z"/>
  <path class="b" d="M129.31,783.54c0-19,15.95-31.32,42.11-31.32s42.11,12.32,42.11,31.32-15.95,31.03-42.11,31.03-42.11-11.94-42.11-31.03ZM198.54,783.54c0-12.41-10.22-19.19-27.12-19.19s-27.12,6.78-27.12,19.19,10.31,18.81,27.12,18.81,27.12-6.3,27.12-18.81Z"/>
  <path class="b" d="M323.73,787.55l-2.86,25.59h-73.43v-10.98l10.22-.38c2.01-.19,3.15-.86,3.15-2.87v-31.03c0-2.01-1.15-2.67-3.15-2.87l-10.22-.38v-10.98h42.49v10.98l-11.55.38c-2.2.19-3.53.86-3.53,2.87v33.9h31.99c1.81,0,2.86-.96,3.15-2.77l1.72-12.32,12.03.86Z"/>
  <path class="b" d="M356.59,802.16l10.22-.38c2.01-.19,3.15-.86,3.15-2.87v-31.03c0-2.01-1.15-2.67-3.15-2.87l-10.22-.38v-10.98h75.53l2.96,20.24-12.7.76-1.62-7.73c-.48-1.72-1.34-1.91-2.39-1.91h-34.38v15.56h19.48c1.05,0,1.72-.57,1.72-1.72v-5.35h8.79v22.54h-8.79v-6.21c0-1.05-.67-1.72-1.72-1.72h-19.48v10.79c0,2.01,1.15,2.67,3.15,2.87l10.22.38v10.98h-40.77v-10.98Z"/>
  <path class="b" d="M519.22,783.44c0-19.38,14.61-31.22,39.82-31.22,13.56,0,22.63,4.01,27.69,9.93l1.62-8.59h9.17v19.86h-11.65c-6.59-7.07-14.04-10.03-24.83-10.03-17.28,0-26.74,6.88-26.74,20.05,0,12.32,9.45,19.67,25.78,19.67,14.71,0,23.2-6.11,26.74-11.84l11.84,6.21c-4.39,7.07-17.57,17.09-38.58,17.09-24.25,0-40.87-12.13-40.87-31.13Z"/>
  <path class="b" d="M709.72,787.55l-2.86,25.59h-73.43v-10.98l10.22-.38c2.01-.19,3.15-.86,3.15-2.87v-31.03c0-2.01-1.15-2.67-3.15-2.87l-10.22-.38v-10.98h42.49v10.98l-11.55.38c-2.2.19-3.53.86-3.53,2.87v33.9h31.99c1.81,0,2.86-.96,3.15-2.77l1.72-12.32,12.03.86Z"/>
  <path class="b" d="M748.5,784.3v-16.42c0-2.01-1.15-2.67-3.15-2.87l-10.22-.38v-10.98h40.87v10.98l-10.22.38c-2.01.19-3.15.86-3.15,2.87v15.18c0,15.66,8.5,20.05,20.24,20.05,10.89,0,20.24-4.39,20.24-20.05v-15.18c0-2.01-1.15-2.67-3.15-2.87l-10.22-.38v-10.98h40.87v10.98l-10.22.38c-2.01.19-3.15.86-3.15,2.87v16.42c0,23.87-18.43,30.27-34.38,30.27-17.09,0-34.38-6.49-34.38-30.27Z"/>
  <path class="b" d="M863.19,813.14v-10.98l10.22-.38c2.01-.19,3.15-.86,3.15-2.87v-31.03c0-2.01-1.15-2.67-3.15-2.87l-10.22-.38v-10.98h46.31c21.39,0,27.5,5.92,27.5,15.85,0,5.92-2.96,10.03-9.93,12.51,9.64,2.29,13.18,6.49,13.18,13.94,0,10.98-8.4,17.19-30.84,17.19h-46.22ZM906.07,778.48c13.46,0,16.9-1.05,16.9-6.4,0-4.77-3.63-7.07-18.05-7.07h-14.32v13.46h15.47ZM926.21,793.28c0-4.97-4.11-6.68-20.34-6.68h-15.28v15.18h14.9c16.62,0,20.72-2.48,20.72-8.5Z"/>
  <path class="b" d="M1092.56,804.73l11.75,8.98-8.69,7.64-13.18-10.31c-5.63,2.29-12.6,3.63-21.1,3.63-24.54,0-34.47-7.16-34.47-18.52,0-9.07,7.83-14.13,16.62-16.14-4.01-3.92-6.59-7.83-6.59-12.41,0-8.79,7.64-15.18,26.93-15.18,21.01,0,28.65,6.59,28.65,15.76,0,8.21-8.31,14.51-23.78,18.14l15.85,12.22c4.58-3.63,6.68-8.4,7.26-13.08l9.36,2.1c-.38,6.11-3.06,12.13-8.59,17.19ZM1062.87,804.54c3.82,0,7.26-.38,10.12-.96l-16.9-13.27-6.97-5.44c-4.77,1.34-8.88,4.3-8.88,9.07,0,6.4,6.88,10.6,22.63,10.6ZM1061.91,781.15c10.12-2.58,16.42-6.4,16.42-11.46,0-4.58-3.15-7.16-14.51-7.16-9.64,0-12.89,2.67-12.89,6.3s3.15,6.3,10.98,12.32Z"/>
  <path class="b" d="M1192.27,813.14v-10.98l10.22-.38c2.01-.19,3.15-.86,3.15-2.87v-31.03c0-2.01-1.15-2.67-3.15-2.87l-10.22-.38v-10.98h46.31c21.39,0,27.5,5.92,27.5,15.85,0,5.92-2.96,10.03-9.93,12.51,9.64,2.29,13.18,6.49,13.18,13.94,0,10.98-8.4,17.19-30.84,17.19h-46.22ZM1235.14,778.48c13.46,0,16.9-1.05,16.9-6.4,0-4.77-3.63-7.07-18.05-7.07h-14.32v13.46h15.47ZM1255.29,793.28c0-4.97-4.11-6.68-20.34-6.68h-15.28v15.18h14.9c16.62,0,20.72-2.48,20.72-8.5Z"/>
  <path class="b" d="M1299.22,802.16l7.83-.29c1.53,0,2.67-.57,3.44-2.2l23.39-46.03h19.1l24.25,46.12c.67,1.34,1.91,2.1,3.44,2.1l7.93.29v10.98h-35.81v-10.98l8.88-.29c.86,0,1.34-.48.86-1.43l-4.68-9.17h-27.98l-4.49,9.17c-.48.96,0,1.43.86,1.43l8.79.29v10.98h-35.81v-10.98ZM1353.55,782.87l-10.03-19.48-9.55,19.48h19.58Z"/>
  <path class="b" d="M1444.94,771.6v27.31c0,2.01,1.15,2.67,3.15,2.87l10.22.38v10.98h-39.53v-10.98l10.22-.38c2-.19,3.15-.86,3.15-2.87v-31.03c0-2.01-1.15-2.67-3.15-2.87l-10.22-.38v-10.98h26.16l42.02,40.2v-25.97c0-2.01-1.15-2.67-3.15-2.87l-10.22-.38v-10.98h39.53v10.98l-10.22.38c-2.01.19-3.15.86-3.15,2.87v45.26h-10.7l-44.12-41.54Z"/>
  <path class="b" d="M1545.88,783.54c0-19,15.95-31.32,42.11-31.32s42.11,12.32,42.11,31.32c0,11.84-6.59,21.29-18.43,26.55,2.67,3.15,5.63,5.06,10.12,5.06s6.59-3.06,6.88-3.63l4.68,8.69c-1.43,2.29-5.44,6.59-13.46,6.59-10.41,0-16.42-6.21-20.91-13.08-3.53.57-7.07.86-10.98.86-26.17,0-42.11-11.94-42.11-31.03ZM1563.64,793.28c2.58-3.92,7.64-8.31,17.28-8.31,7.64,0,14.9,2.29,21.96,12.41l1.53,2.2c6.78-2.96,10.69-8.4,10.69-16.04,0-12.41-10.22-19.19-27.12-19.19s-27.12,6.78-27.12,19.19c0,3.82.95,7.07,2.77,9.74ZM1592.1,802.25l-.1-.19c-4.87-7.35-8.79-8.69-14.32-8.69-4.87,0-8.12,1.81-10.22,3.82,4.68,3.44,11.75,5.16,20.53,5.16l4.11-.1Z"/>
  <path class="b" d="M1676.23,784.3v-16.42c0-2.01-1.15-2.67-3.15-2.87l-10.22-.38v-10.98h40.87v10.98l-10.22.38c-2.01.19-3.15.86-3.15,2.87v15.18c0,15.66,8.5,20.05,20.24,20.05,10.89,0,20.24-4.39,20.24-20.05v-15.18c0-2.01-1.15-2.67-3.15-2.87l-10.22-.38v-10.98h40.87v10.98l-10.22.38c-2.01.19-3.15.86-3.15,2.87v16.42c0,23.87-18.43,30.27-34.38,30.27-17.09,0-34.38-6.49-34.38-30.27Z"/>
  <path class="b" d="M1790.92,813.14v-10.98l10.22-.38c2.01-.19,3.15-.86,3.15-2.87v-31.03c0-2.01-1.15-2.67-3.15-2.87l-10.22-.38v-10.98h73.81l2,20.24-12.7.76-.96-7.73c-.19-1.72-1.34-1.91-3.06-1.91h-31.7v13.37h16.23c.96,0,1.53-.67,1.53-1.53v-4.97h8.79v21.29h-8.79v-5.73c0-.96-.57-1.53-1.53-1.53h-16.23v15.85h32.94c1.81,0,2.96-.96,3.25-2.77l1.43-12.51,12.7,1.05-2.01,25.59h-75.72Z"/>
  <path class="b" d="M1951.93,801.77l10.22.38v10.98h-40.77v-10.98l10.22-.38c2.01-.19,3.15-.86,3.15-2.87v-33.9h-17.86c-.86,0-1.43.48-1.62,1.24l-2.39,9.83-11.46-.76,2.39-21.68h75.82l2.48,21.68-11.55.76-2.39-9.83c-.19-.76-.76-1.24-1.62-1.24h-17.76v33.9c0,2.01,1.15,2.67,3.15,2.87Z"/>
  <path class="b" d="M2066.52,783.44c0-19.38,14.61-31.22,39.82-31.22,13.56,0,22.63,4.01,27.69,9.93l1.62-8.59h9.17v19.86h-11.65c-6.59-7.07-14.04-10.03-24.83-10.03-17.28,0-26.74,6.88-26.74,20.05,0,12.32,9.45,19.67,25.78,19.67,14.71,0,23.2-6.11,26.74-11.84l11.84,6.21c-4.39,7.07-17.57,17.09-38.58,17.09-24.25,0-40.87-12.13-40.87-31.13Z"/>
  <path class="b" d="M2180.73,813.14v-10.98l10.22-.38c2-.19,3.15-.86,3.15-2.87v-31.03c0-2.01-1.15-2.67-3.15-2.87l-10.22-.38v-10.98h73.81l2,20.24-12.7.76-.95-7.73c-.19-1.72-1.34-1.91-3.06-1.91h-31.7v13.37h16.23c.96,0,1.53-.67,1.53-1.53v-4.97h8.79v21.29h-8.79v-5.73c0-.96-.57-1.53-1.53-1.53h-16.23v15.85h32.94c1.81,0,2.96-.96,3.25-2.77l1.43-12.51,12.7,1.05-2.01,25.59h-75.72Z"/>
  <path class="b" d="M2319.1,771.6v27.31c0,2.01,1.15,2.67,3.15,2.87l10.22.38v10.98h-39.53v-10.98l10.22-.38c2.01-.19,3.15-.86,3.15-2.87v-31.03c0-2.01-1.15-2.67-3.15-2.87l-10.22-.38v-10.98h26.16l42.01,40.2v-25.97c0-2.01-1.15-2.67-3.15-2.87l-10.22-.38v-10.98h39.53v10.98l-10.22.38c-2.01.19-3.15.86-3.15,2.87v45.26h-10.69l-44.12-41.54Z"/>
  <path class="b" d="M2469.13,801.77l10.22.38v10.98h-40.77v-10.98l10.22-.38c2.01-.19,3.15-.86,3.15-2.87v-33.9h-17.86c-.86,0-1.43.48-1.62,1.24l-2.39,9.83-11.46-.76,2.39-21.68h75.82l2.48,21.68-11.55.76-2.39-9.83c-.19-.76-.76-1.24-1.62-1.24h-17.76v33.9c0,2.01,1.15,2.67,3.15,2.87Z"/>
  <path class="b" d="M2531.68,813.14v-10.98l10.22-.38c2-.19,3.15-.86,3.15-2.87v-31.03c0-2.01-1.15-2.67-3.15-2.87l-10.22-.38v-10.98h73.81l2,20.24-12.7.76-.95-7.73c-.19-1.72-1.34-1.91-3.06-1.91h-31.7v13.37h16.23c.96,0,1.53-.67,1.53-1.53v-4.97h8.78v21.29h-8.78v-5.73c0-.96-.57-1.53-1.53-1.53h-16.23v15.85h32.94c1.81,0,2.96-.96,3.25-2.77l1.43-12.51,12.7,1.05-2,25.59h-75.72Z"/>
  <path class="b" d="M2645.03,802.16l10.22-.38c2-.19,3.15-.86,3.15-2.87v-31.03c0-2.01-1.15-2.67-3.15-2.87l-10.22-.38v-10.98h42.68c22.73,0,31.13,3.63,31.13,16.23,0,8.98-5.83,14.23-21.1,15.57,1.53.95,2.96,2.2,4.2,3.53,6.21,6.78,8.88,13.66,16.81,13.66,3.63,0,6.11-1.81,6.97-2.77l2.29,10.6c-.76.76-4.11,3.92-11.36,3.92-14.13,0-20.63-12.8-25.59-20.34-3.53-5.35-5.73-7.73-9.74-8.21h-8.88v13.08c0,2.01,1.15,2.67,3.15,2.87l10.22.38v10.98h-40.77v-10.98ZM2688.86,778.28c10.89,0,15.18-1.05,15.18-6.3,0-5.54-4.49-6.97-16.33-6.97h-15.28v13.27h16.42Z"/>
  <path class="b" d="M1835.68,341.87c1.31-.11,2.68-.23,5.06-.44-3.49,1.16-4.84,1.29-5.06.44ZM1837.69,329.51c-.11.02-.22.14-.33.21.46-.08.92-.15,1.38-.24.1-.02.2-.15.31-.22-.45.08-.9.15-1.35.25ZM1835.44,341.89c-.15.04-.22.06-.37.1.18-.04.27-.06.44-.1.06,0,.11,0,.17-.01,0,0-.02-.01-.02-.02-.09.02-.14.03-.23.04ZM1847.03,341.6c.19-.03.28-.05.47-.08-.02,0-.03,0-.06-.01-.06,0-.09.01-.14.02-.11.03-.16.04-.27.07ZM1859.93,323.97c-1.96.37-2.93.56-4.89.93.04.2.06.3.1.51,1.94-.48,2.91-.73,4.85-1.21-.02-.09-.03-.13-.06-.22ZM1863.77,335.09c-3.36.44-7.21,2.07-10.16,1.43-1.98.6-3.96,1.19-5.43,1.63,1.22.27,2.44.54,3.66.81,4.17-.53,8.19-1.55,12.25-2.68,2.01-.56,4.45-1.26,6.18-1.36,2.78-.16,5.2-1.03,7.78-1.48.34-.06.67-.25.8-.3-1.22-.21-2.37-.4-3.63-.62-3.71.98-7.44,2.03-11.44,2.56ZM1844.16,342.38c1.15-.31,1.72-.46,2.86-.77-1.18.21-1.76.31-2.94.52.03.1.05.16.08.26ZM1881.56,333.22c.52,0,1.03.04,1.58-.03.28-.04.63-.29.95-.44-.43.01-.86-.03-1.27.05-.43.08-.84.28-1.25.42ZM1827.64,332.6s.05.05.06.09c.11-.02.16-.02.27-.04-.04-.03-.05-.04-.09-.07-.09.01-.14.01-.24.02ZM1902.88,324.51c-1.55.39-3.1.8-4.64,1.24.3.14.45.21.75.34,1.37-.5,2.76-.94,4.14-1.4-.1-.07-.15-.11-.25-.18ZM1913.43,328.91c.09-.16.14-.23.24-.39-.92.01-1.84.02-3.95.05,2.08-.58,3.08-.88,4.13-1.14.99-.25,2.02-.44,4.62-1-7.79.6-6.88-1.76-14.89,1.14,3.9-.42,6.33,1.68,9.85,1.35ZM1891.97,320.44c.12,0,.2,0,.34.01.08-.03.13-.06.21-.09-.02,0-.03,0-.05,0-.16.03-.34.06-.5.09ZM1886.49,321.38c2.09-.36,3.8-.65,5.48-.94-1.89-.09-2.16-.04-5.48.94ZM1872.54,323.34c-.01.11-.02.17-.03.28,1.47-.22,2.2-.33,3.67-.55-.03-.15-.04-.22-.07-.37-1.43.25-2.14.38-3.57.64ZM1898.77,327.82c-.4.08-.76.31-1.15.48.43,0,.87.05,1.28-.03.41-.09.79-.31,1.19-.48-.44,0-.9-.06-1.32.03ZM1908.39,316.54c-5.13.68-7.78,1.04-9.81,1.51-2.03.47-3.43,1.12-6.06,2.31,1.66.21,3.33.43,5.45.7,3.49-1.52,7.18-2.83,10.42-4.52ZM1712.77,372.94c.07.03.1.05.17.09.15-.06.23-.09.38-.16-.1.02-.19.05-.3.06-.1,0-.15,0-.25,0ZM1744.11,363.88c-.58.2-1.17.43-1.76.64-2.35.86-4.76,1.75-7.59,2.79,3.21-.47,5.72-1.22,8.01-2.17,1.14-.48,2.28-.97,3.4-1.48,1.13-.52,2.29-1.06,3.51-1.63-1.32.44-2.57.86-3.78,1.26-.61.2-1.22.4-1.8.6ZM1730,370.4c-.02.05.19.05.29.07.26-.17.39-.26.65-.44-.22.04-.33.06-.54.11-.14.09-.38.2-.4.26ZM1723.63,371.99c.24-.15.36-.23.59-.39-.19.05-.29.07-.48.12-.05.11-.07.16-.12.27ZM1754.43,367.55c.86-.16,1.71-.3,2.59-.51.21-.05.5-.38,1.12-.88-1.12.29-1.93.46-2.69.73-.39.13-.68.44-1.02.67ZM1759.02,358.15c.23-.06.47-.11.68-.2.13-.05.21-.15.31-.23-.28.09-.42.14-.7.23-.12.08-.18.12-.3.19ZM1721.19,369.57c.18-.08.27-.11.45-.19.61-.32.92-.48,1.54-.8-.7.33-1.04.5-1.74.84-.1.06-.15.09-.25.16ZM1721.19,369.57c-3.15,1.32-4.72,1.98-7.87,3.3,3.02-.48,5.53-1.74,7.87-3.3ZM1711.44,375.76c-.57.17-1.19.48-1.8.75.31.1.55.25,1.01.22.47-.04,1.23-.29,1.84-.52.18-.07.55-.54.41-.56-.35-.05-.92-.05-1.46.1ZM1715.29,381.01c.26.03.48.14.8.06.37-.09.84-.35,1.27-.54-.31-.06-.63-.12-.94-.18-.48.29-.81.48-1.13.67ZM1768.38,363.38c-2.14.07-3.95.88-5.8,1.81,1.83-.79,3.47-.21,5.8-1.81ZM1716.57,373.38c.02.06.03.11.05.17.91-.34,1.36-.51,2.27-.85-.03-.09-.04-.13-.07-.22-.9.36-1.35.54-2.25.9ZM1774.53,350.86s.02,0,.03.01c.22-.09.33-.14.55-.23-.14.06-.21.09-.35.15-.08.03-.15.05-.23.07ZM1815.59,336.03c1.09-.3,2.19-.6,4.59-1.27-2.44.51-3.55.75-4.65.98.02.12.03.17.06.29ZM1812.28,352.26c.18-.03.37-.05.54-.1.07-.02.1-.11.15-.17-.18.03-.37.05-.55.1-.06.02-.1.11-.15.17ZM1809.75,337.43c.22-.03.34-.05.56-.08-.01-.06-.02-.09-.04-.15-.21.09-.31.14-.52.23ZM1828.65,333.19c.58-.34.87-.52,1.45-.86-.85.13-1.28.19-2.13.32.27.22.4.33.67.54ZM1818.63,350.76c1.3-.16,1.95-.24,3.26-.4.08-.17.12-.26.2-.43-1.31.2-1.97.3-3.28.51-.07.13-.11.19-.18.32ZM1825.88,332.78c.71-.07,1.06-.11,1.76-.18-.17-.32-.61-.4-1.76.18ZM1773.79,350.72c-2.4.76-3.61,1.14-6.01,1.89-2,.63-4.01,1.27-5.97,1.96-1.18.42-2.78,1.12-3.52,1.15-2.9.14-3.77,1.54-5.6,2.29,2.71-.11,5.64-1.15,8.44-2.29,1.01-.42,1.97-.79,2.88-1.06.91-.26,1.81-.38,2.68-.35,2.23-1.31,4.65-2.54,7.84-3.45-.25-.06-.54-.21-.73-.15ZM1766.19,354.46c.15-.03.22-.04.37-.07.09-.03.14-.05.23-.08-.03,0-.07,0-.1,0-.03.01-.04.02-.06.04-.17.04-.26.06-.43.1ZM1771.53,353.35c.26.02.56,0,.87-.02.03,0,.23-.16.35-.25-.3,0-.61,0-.92,0-.1.09-.33.25-.29.26ZM1772.99,349.59c.13.02.2.03.34.04.07-.05.1-.07.17-.12-.2.03-.3.05-.5.08ZM1787.56,344.48c.16-.04.24-.06.4-.1-.07-.04-.11-.05-.19-.09-.08.08-.12.11-.21.19ZM1965.01,319.29c2.28-.5,4.42-.91,6.49-1.3,2.07-.4,4.07-.77,6.09-1.12,1.68-.29,3.22-.45,3.51-1.35-5.1.68-10.14,1.3-15.15,2.02-.27.5-.54,1.01-.94,1.75ZM1999.42,306.3c2.36-.29,4.69-.59,6.96-.94,2.27-.34,4.53-.77,6.74-1.45-1.39-.14-2.3-.23-3.22-.32.07.02.1.03.17.05-1.08-.27-2.16-.55-3.19-.81-3.83.91-7.71,1.8-7.46,3.47ZM1997.66,316.28c-.43.13-1.02.24-1.24.39-.13.09.29.23.47.34.44-.12,1.12-.23,1.26-.36.13-.12-.3-.25-.49-.38ZM2014.64,305.36c.13.05.19.08.32.13-.06-.04-.09-.06-.14-.1l-.19-.04c-.1-.02-.15-.02-.26-.04.11.02.17.03.28.05ZM2014.91,302.42c-.22.03-.32.04-.54.07.15,0,.22.01.36.02.11,0,.21.01.32.02-.06-.04-.09-.07-.14-.11ZM2015.32,302.55c-.07-.02-.17-.01-.27-.02.09.07.13.1.22.17.02-.05.11-.14.04-.15ZM1985.06,314.5c3.83.23,7.63-.49,13-1.44-5.41-.45-9.21.75-13,1.44ZM1977.99,313.71c.16.4.24.61.41,1.01.08-.37.85-.87-.41-1.01ZM2019.11,303.84c-.26,0-.54.04-.8.07.19.04.35.12.56.11.23,0,.51-.08.77-.13-.17-.02-.34-.05-.53-.05ZM1967.17,314.51c-.51,0-1.5.64-2.27.99.36.05.54.07.9.12.41-.14.84-.28,1.22-.42.84-.31,1.72-.71.15-.68ZM1965.53,316.11c.87.12,1.4.29,2.06.26.52-.02,1.23-.27,1.85-.41-.47-.1-.88-.28-1.44-.27-.64.02-1.42.23-2.48.42ZM1983.43,318.12c.21,0,.32,0,.53,0-.01-.06-.02-.09-.03-.14-.2.06-.3.09-.5.15ZM2058.65,307.84c-.16.01-.24.02-.4.03-.07.36-.1.54-.17.9.26-.02.39-.03.66-.05l-.09-.88ZM2068.37,304.71c.12-.05.24-.11.24-.11,0,0-.14.07-.25.11h0ZM2066.54,304.88c-.27.02-.54.18-.81.28.3-.04.45-.06.74-.1.56-.07.84-.1,1.4-.17.05,0,.08,0,.13,0,.13-.06.25-.12.36-.17-.14.05-.3.11-.47.17-.45,0-.9-.04-1.35,0ZM1978.22,314.96c.08,0,.18-.02.26-.02-.03-.08-.05-.13-.08-.21-.01.04-.06.1-.04.13-.05.04-.08.06-.13.1ZM2069.26,305.81c-.28.04-.42.07-.7.11.24.02.37.03.61.05.04-.07.05-.1.09-.16ZM2068.61,304.6c.11-.05.09-.04,0,0h0ZM1977.17,313.37c.22.12.33.18.55.29.15,0,.16.04.27.05-.02-.05-.04-.1-.06-.15-.26-.07-.51-.13-.77-.2ZM1937.02,321.45c-2-.27-3.84.18-4.99,1.19,1.72,0,2.59,0,4.31.01.45-.35.9-.7,1.3-1.02-.3-.09-.43-.16-.63-.18ZM1709.07,376.61c.14,0,.2,0,.34,0,.07-.03.15-.07.23-.1-.03,0-.05-.02-.08-.03-.2.05-.29.07-.49.12ZM1936.34,322.65s-.06.05-.1.08c.08-.03.15-.05.23-.07-.02,0-.03,0-.05,0h-.09ZM1976.88,316.01c.54-.42.81-.63,1.35-1.05-.88.08-1.77.16-3.04.27.73.33,1.21.56,1.69.78ZM1961.17,317.42c-4.15.93-8.28,1.79-12.61,1.98-.9.04-2.03.46-3.07.6-3.68.52-6,1.79-9.02,2.65,1.9.14,5.01-.7,5.97.21.09.08.9.08,1.24,0,4.74-1.15,10.02-1.47,14.62-2.96,1.85-.6.3-.76.61-1.29,2.18-.36,4.41-.73,6.65-1.1-1-.41-2.32-.55-4.41-.08ZM1925.77,312.99l-.78.14c.34.01.5.02.84.03-.02-.06-.04-.11-.05-.17ZM1981.37,305.6c.09-.02.14-.02.23-.04.05-.02.1-.04.16-.06-.13,0-.19,0-.32.01-.01.03-.05.06-.07.09ZM1981.76,305.51c2.13-.08,4.15.28,6.84-.72-2.4-.38-4.55-.27-6.84.72ZM1969.01,308.55c-.16.18.46.4.95.51.24.05,1.41-.14,1.43-.18.69-1.33,3.77-1.46,6.27-1.84,1.97-.3,3.38-.71,3.71-1.43-3.55.65-7.13,1.27-10.63,1.98-.75.15-1.44.64-1.74.97ZM1978.48,314.94c.09.04.2.11.27.1.43-.07.84-.15,1.27-.24-.09-.04-.2-.13-.26-.12-.43.07-.86.17-1.28.26ZM1965.58,317.51c.05.02.11.03.16.06.08-.01.12-.02.2-.03.02-.04.03-.06.05-.09-.14.02-.28.05-.42.07ZM1959.74,316.06l.44-.11c-.16-.01-.24-.02-.4-.03-.02.06-.03.08-.04.14ZM1976.41,316.05c.13.03.19.05.32.08.08-.04.12-.05.21-.09-.02-.01-.03-.02-.06-.03-.01.01-.02.02-.04.03-.17,0-.26,0-.43,0ZM1942.65,314.31c-.9.77-2.88,1.52-4.48,2.27,2.63-.74,5.26-1.47,8.55-2.39,2.25-.25,5.95-.05,7.9-1.57,1.16-.91.33-1.74-1.53-2.41-2.2.85-4.01,1.55-5.83,2.24,1.12,1.3-3.58.97-4.61,1.86ZM1937.9,316.71c.09-.04.18-.08.27-.13-.04,0-.05.01-.09.02-.07.04-.11.06-.18.1ZM1937.83,314.09c.09.02.13.02.21.04.13-.08.19-.12.32-.2-.21.06-.32.09-.53.16ZM1942.32,311.79c.12,0,.18,0,.29.01.38-.2.57-.3.95-.5-.46.18-.69.28-1.15.46-.03,0-.06.01-.09.02ZM1929.4,313.52c6.13-.18,6.78-.21,12.92-1.73-1.78-.08-3.56-.17-5.35-.24-3.24-.12-4.72.22-7.57,1.97ZM1487.01,529.02c.2-.06.46-.1.59-.19.4-.27.75-.57,1.15-.88-.39.14-.79.23-1.1.42-.27.16-.44.43-.65.66ZM1469.24,535.68c-.09-.02-.13-.03-.22-.06-.06.1-.1.14-.16.24l.38-.18ZM1484.37,530.44c-.28.24-.42.37-.7.61.15,0,.31,0,.46,0,.14-.13.37-.3.4-.39.04-.11-.1-.15-.16-.22ZM1492.96,520.59c-.51.28-.76.41-1.27.69.03.04.08.12.09.12.39-.24.85-.46,1.26-.68-.02-.04-.08-.12-.08-.12ZM1492.72,525.24c.21.05.53,0,.81,0,.24-.26.48-.53.73-.81-.46.15-.84.25-1.23.4-.09.04-.37.39-.31.4ZM1480.34,533.36c.24-.11.54-.2.71-.33.17-.13.22-.29.32-.43-.41.2-.62.3-1.03.5-.03.02,0,.17,0,.26ZM1474.11,537.06c-2.07,1.28-3.1,1.92-5.18,3.21,1.86-.99,3.94-1.85,5.18-3.21ZM1476.74,531.31c-.06.02-.13.04-.19.07.15-.02.32-.04.47-.06.09-.01.13-.02.22-.03.12-.04.18-.06.3-.1-.17.04-.26.06-.42.1-.12,0-.23-.03-.37.02ZM1495.49,515.83c-2.4,1.38-3.94,2.21-5.45,3.07,3.03-.86,3.04-.84,5.45-3.07ZM1466.96,541.49c.17-.11.25-.16.42-.26.62-.38.93-.58,1.56-.96-.57.3-1.12.62-1.61.97-.15.1-.22.15-.37.25ZM1474.11,537.06c.15-.09.22-.14.37-.23.4-.3.61-.44,1.01-.74-.48.32-.73.48-1.21.8-.05.06-.12.12-.17.18ZM1475.6,531.7c.32-.11.64-.22.95-.33-.19.02-.38.04-.59.07-.06,0-.24.17-.36.26ZM1486.56,521.4c-.17-.21-1.42-.02-2.15.33-2.27,1.1-3.79,2.43-5.77,4.55,2.92-1.46,4.8-2.31,6.57-3.31.63-.36,1.49-1.37,1.34-1.57ZM1530.08,504.35c.18-.1.28-.15.46-.25-.11-.02-.16-.02-.27-.04-.07.12-.11.17-.19.29ZM1530.77,498.23c-.23.36-.34.54-.57.9.39-.14.77-.29,1.15-.44.06-.15.25-.4.17-.43-.18-.07-.5-.03-.76-.03ZM1497.04,522.62c1.19-.58,1.78-.81,2.11-1.08.48-.4.78-.82,1.16-1.23-.57.31-1.18.6-1.68.94-.41.28-.72.61-1.59,1.36ZM1565.35,469.97c-.04.06-.08.12-.11.18-.06.05-.13.13-.19.2.15-.11.23-.17.38-.28-.02-.03-.05-.06-.08-.1ZM1515.31,510.54c1.84-1.07,3.42-1.97,5-2.86-2.76.46-2.82.47-5,2.86ZM1566.16,468.44c-.35.35-.96.86-1,1.03-.07.25.07.37.19.51.23-.35.47-.71.67-1.06.1-.18.1-.32.14-.48ZM1520.58,507.52c-.09.05-.18.1-.27.15.03,0,.04,0,.07-.01,1.4-.56,2.1-.83,3.5-1.38.21-.11.32-.16.53-.27-.14.06-.2.09-.34.15-1.4.55-2.1.82-3.49,1.36ZM1504.78,517.2c.22-.13.33-.19.55-.32.15-.13.22-.19.36-.32-.24.15-.36.22-.61.37-.12.11-.18.16-.31.27ZM1503.34,518.45c.57-.5.86-.75,1.44-1.25-.76.44-1.15.66-1.91,1.11.19.06.28.09.47.15ZM1505.69,516.56c.9-.56,1.8-1.11,2.71-1.65,1.61-.94,1.33-1.27,1.08-1.63-.74.63-1.1.94-1.83,1.57-.78.68-1.18,1.02-1.96,1.7ZM1512.34,511.79c-.93.44-1.87.95-2.8,1.44.88-.27,1.75-.53,2.65-.83.16-.05.62-.4.6-.41-.11-.1-.3-.28-.46-.21ZM1509.48,513.29s.04-.03.06-.05c0,0,0,0,0,0-.03.01-.05.02-.08.03,0,.01.01.02.02.03ZM1687.26,339.86c-.19-.13-.59.05-.52.27.07.2.37.07.51-.09.05-.05.07-.14,0-.18ZM1565.04,470.34c-.64.46-.97.69-1.61,1.16.45.21,1.05-.6,1.61-1.16ZM1633.78,376.44c-.17.03-.36.03-.5.11-.2.11-.36.28-.54.43.34-.07.51-.11.84-.18l.2-.37ZM1342.54,578.35c.07.06.1.09.17.15.31-.12.47-.17.79-.29-.15-.02-.29-.07-.44-.04-.16.02-.34.12-.52.18ZM1349.71,577c1.67-.15,2.5-.23,4.17-.38.18-.27.26-.41.44-.68-1.84.35-2.75.52-4.58.86-.01.08-.02.12-.03.2ZM1357.6,575.11c.32.02.63.04.95.06.21-.09.31-.14.52-.22-.34-.02-.66-.05-1.02-.05-.07,0-.3.14-.45.21ZM2342.69,237c.09-.09-.38-.23-.59-.35-.58.16-.88.24-1.46.4l.99.24c.38-.1.94-.18,1.06-.29ZM1381.34,567.44c-4.65.48-7.99,2.3-11.69,3.9,2.12.06,3.73-.44,11.69-3.9ZM2056.16,253.94c-.38-.06-.66-.49-1.04-.55-.14.07-.41.2-.39.21.29.07.73.51,1.05.57.15-.09.22-.14.37-.23ZM2532.69,236.39c.14-.04-.32-.28-.51-.43-1,.19-1.51.29-2.51.48.34.09.69.18,1.2.32.58-.11,1.3-.21,1.82-.37ZM2247.78,240.1c.94-.28,1.78-.59,2.65-.9-1.18.09-2.36.17-3.51.3-.21.02-.45.32-.29.43.15.1,1.01.21,1.15.16ZM2250.58,239.15c-.06.02-.09.03-.14.05.09,0,.14-.01.24-.02-.04-.01-.06-.02-.09-.03ZM1386.28,566.37c3.51-1.38,7.88-2.28,11.92-5.41-3,.92-5.32,1.81-7.18,2.73-1.87.91-3.39,1.74-4.74,2.68ZM1430.95,557.19c0-.06,0-.1,0-.16-.17.09-.26.14-.43.24.17-.03.26-.05.44-.08ZM1414.82,565.09c1.2-.43,1.8-.65,3-1.09,1-.38,1.98-.79,2.97-1.19-1.15.23-2.22.56-3.22.93-1,.37-1.93.81-2.75,1.35ZM1424.85,561.04c.18-.1.28-.15.46-.24-.19.03-.28.04-.47.07,0,.07,0,.1,0,.17ZM1393.71,572.22c.44-.04.96-.03,1.29-.16.46-.18.81-.47,1.21-.72-.45.1-.95.15-1.35.3-.42.16-.77.39-1.15.58ZM1436.73,545.74c3.33-.77,5.04-1.16,6.36-1.47,3.67-1.96,6.95-3.72,10.22-5.48-.05-.1-.08-.15-.13-.25-4.83,2.13-9.67,4.26-16.45,7.21ZM1418.43,553.98c-.27.13-.08.61-.11.93-1.28.53-1.93.8-3.21,1.33-.07,0-.15.02-.23.03.04,0,.07.02.11.02.08-.02.12-.04.21-.06,1.19-.49,1.79-.73,2.98-1.22,2.06-.95,4.14-1.88,6.14-2.87,2-1,4.63-1.6,6.37-3.17-.82.08-1.22.05-1.68.18-3.87,1.12-7.12,3.12-10.57,4.84ZM1414.01,556.17c-.36.05-.91.34-1.37.52.42-.11.88-.27,1.26-.33.35-.06.66-.07.98-.1-.27-.06-.5-.15-.86-.09ZM1474.98,527.2c-1.24.45-10.74,5.61-12.34,6.66,4.96-1.81,7.05-2.85,12.99-6.42-.21-.09-.39-.33-.65-.23ZM1397.81,572.16c.25-.07.52-.13.74-.22.13-.05.2-.16.29-.24-.26.08-.53.15-.76.25-.12.05-.18.14-.27.21ZM1414.12,565.39c.13-.04.26-.08.39-.12.1-.07.21-.12.32-.19-.22.08-.32.12-.54.2-.05.04-.12.07-.17.11ZM1402.78,569.15c-.19.02-.71.37-1.07.58.57.09.86.14,1.43.23.24-.25.35-.38.59-.64-.31-.07-.55-.21-.95-.17ZM1406.34,568.47c2.77-.79,5.78-1.45,7.77-3.07-2.95.87-5.9,1.74-9.31,2.73.73.18,1.15.46,1.54.35ZM1599.57,441.93c-.16.16-.45.42-.45.47,0,.28.06.52.11.78.34-.34.52-.52.86-.86-.17-.13-.35-.25-.52-.38ZM1705.35,373.63c.28.01.63-.02.95-.03.22-.22.32-.34.54-.56-.4.1-.8.18-1.21.3-.07.02-.33.29-.28.29ZM1563.43,471.5s-.11,0-.15-.05c-.1.09-.19.16-.29.25.05,0,.1,0,.15,0,.12-.08.17-.12.29-.21ZM1600.73,445.87c.11.22.17.33.28.55.51-.55.77-.83,1.3-1.39-.63.34-.95.5-1.58.84ZM1600.4,445.96c.1-.02.15-.02.24-.04.03-.02.05-.03.09-.05-.01-.03-.02-.04-.03-.07-.12.06-.18.09-.3.15ZM1596.52,447.29c.3-.24.66-.53.66-.53,0,0-.48.37-.85.65-.05.13-.09.26-.13.39.13-.2.19-.3.32-.5ZM1595.27,446.27c-.43.79-.78,1.27-1.32,2.14.95-.85,1.2-1.54,1.32-2.14ZM1598.35,447.12c.23-.21.54-.43.68-.62.26-.37.37-.67.55-1.01-.3.26-.62.51-.87.79-.19.22-.24.55-.36.83ZM1612.47,426.42c-7.16,6.67-14.07,13.24-21.06,18.34-1.03.75-2.07,2.35-3.23,3.64,1.33-.3,2.57-1.06,3.53-1.9,1.27-1.12,2.58-2.83,3.79-3.6,4.7-2.99,8.94-6.9,13.46-11.56,3.42-3.52,7.31-6.84,11.05-10.15-.06-.15-.09-.23-.14-.38-2.48,1.83-5.15,3.53-7.39,5.61ZM1620.92,423.54c-2.38,2.04-4.06,3.51-6.15,5.36,2.98-1.06,2.94-1.08,6.15-5.36ZM1593.44,449.11c.13-.17.2-.25.34-.41.07-.11.11-.17.18-.28-.13.12-.21.22-.38.35-.05.14-.08.21-.13.34ZM1610.19,435.75c-.4.31-.6.47-1,.78.17-.08.34-.11.5-.24.17-.13.33-.36.5-.54ZM1600.6,446.95c.15-.14.3-.27.45-.4-.02-.05-.03-.08-.04-.13-.09.09-.13.13-.21.22-.06.1-.13.21-.2.31ZM1685.56,395.58c.16-.07.24-.1.4-.17-.08-.03-.12-.04-.21-.07-.08.09-.12.14-.19.24ZM1690.26,385.14c-1.85.7-3.67,1.48-5.49,2.26,1.77.05,3.57-.59,5.49-2.26ZM1689.42,393.82c.18-.12.27-.18.45-.3-.21.07-.31.1-.52.17.03.05.04.08.07.13ZM1694.41,378.11c-1.99.86-3.84,1.66-5.41,2.34,1.66-.47,3.72-.56,5.41-2.34ZM1689,380.45c-.52.15-1,.33-1.41.61.39-.17.94-.41,1.41-.61ZM1697.58,380.79c.15.07.41.09.62.13.22-.21.44-.42.65-.63-.26.05-.58.09-.93.19-.07.02-.39.29-.34.31ZM1587.68,458.11c1.31-1.86,2.37-3.36,3.43-4.86q-3.91,3.15-3.43,4.86ZM1577.59,456.7c-2.31,2.39-4.96,4.5-7.49,6.77,4.4-2.75,9.73-7.35,14.44-12.4-2.56,1.57-4.66,3.25-6.95,5.63ZM1659.74,397.95c-.47.03-1.4.2-1.75.44-1.02.71-2.02,1.45-3.01,2.21-.99.76-1.96,1.59-2.95,2.41.6.04.83.2,1.19.04,2.61-1.12,5.4-3.01,6.54-4.55.18-.25.21-.58-.03-.56ZM1637.4,408.48c-1.98,1.27-4,2.67-6,4.06-1.04.72-2.04,1.7-3.05,2.58.08.16.12.24.21.39,3.7-2.38,7.37-4.74,11.22-6.96,3.85-2.22,7.88-4.41,12.25-6.65-3.16.4-5.59,1.14-8.63,2.93-1.99,1.17-4.03,2.38-5.99,3.65ZM1660.05,409.12c.23-.17.34-.26.56-.43-.23.1-.35.14-.58.24,0,.08,0,.12.02.19ZM1670.88,393.65c.2-.08.3-.11.49-.19-.02-.04-.04-.06-.06-.11-.17.12-.26.18-.43.3ZM1679.97,387.47c-2.46,1.07-4.29,1.91-7.26,3.83,3.68-1.2,5.46-2.11,7.26-3.83ZM1602.65,444.67c-.14.15-.21.22-.35.37.07-.04.1-.06.17-.09.07-.11.1-.16.17-.27ZM1618.74,435.59c-5.42,3.39-6.27,4.15-9.64,8.73,2.59-2.41,5.55-5.1,9.64-8.73ZM1594.2,460.97c.04-.06.07-.09.11-.15.25-.27.38-.4.64-.67-.29.26-.58.52-.86.77.04.01.08.04.12.05ZM1602.32,448.57c.12.53.26,1.12.55,2.39,1.3-2.85.68-2.94-.55-2.39ZM1601.09,447.41c-1.07.56-2.66,1.3-2.88,2.45-.26,1.31-1.06,2.34-2.45,3.74-.86.86-1.68,1.76-2.51,2.64,3.12-2.76,6.47-5.4,7.89-8.85.06-.02.1-.04.16-.06-.01-.06-.03-.12-.04-.18-.06.1-.1.16-.16.26ZM1572.44,471.68c.07.05.11.08.18.13.91-.91,1.36-1.37,2.27-2.28-.13-.09-.2-.14-.33-.23-.85.95-1.27,1.43-2.12,2.38ZM1577.94,468.09c.19-.41.28-.62.47-1.04.15-.19.22-.29.37-.48-.13.15-.2.23-.33.38-.2.45-.3.68-.51,1.13ZM1590.15,460.34c-1.64,1.51-3.29,3.02-6.09,5.57,7.63-4.75,7.73-4.83,11.82-9.92-2.14,2.11-2.64,1.37-3.39,1.08-.94,1.31-1.4,1.96-2.33,3.26,0,0,0,0-.01,0ZM1558.4,484.11c.55-.24,1.09-.42,1.66-.77.2-.12.47-.65.98-1.38-1.03.7-1.67,1.11-2.29,1.57-.14.1-.23.38-.35.58ZM1554.67,478.14c2.95-2,5.62-3.99,8.32-6.44-.84-.03-1.69-.06-2.55-.1-4.77,4.01-9.5,7.97-14.21,11.69-4.7,3.71-9.5,7.27-14.22,10.66-1.16.83-2.32,1.67-3.48,2.47-1.16.8-2.35,1.58-3.53,2.36-2.36,1.56-4.75,3.11-7.18,4.6-2.43,1.49-4.92,2.99-7.49,4.38-2.57,1.39-5.19,2.88-7.87,4.42,2.26-.87,3.24-1.13,4.13-1.59,2.32-1.21,4.7-2.38,7.03-3.62,2.32-1.24,4.65-2.57,6.93-3.96,4.57-2.78,9.08-5.83,13.29-9.35,3.39-2.84,6.91-5.53,10.39-8.08,3.48-2.56,6.98-5.08,10.48-7.44ZM1597.86,457.04c-.42.46-.64.69-1.06,1.15-.05.06-.08.1-.13.16.13-.13.2-.15.34-.3.34-.4.51-.61.85-1.01ZM1538.33,500.94c.68.32,1.6-.25,3.23-1.96-1.48.91-2.37,1.45-3.23,1.96ZM1536.23,501.3c-.55.35-.92.59-1.02.65.11-.06.46-.26,1-.56.74-.11,1.11-.17,1.85-.28.08-.05.18-.11.27-.16-.03-.01-.07,0-.1-.02-.8.15-1.2.23-2,.38ZM1624.48,431.07c-1.27,1.11-1.9,1.66-3.16,2.77.03.12.05.18.08.3,1.22-.99,1.83-1.49,3.06-2.48,0-.24,0-.36.01-.6ZM1573.81,481.32c.12-.1.51-.43.91-.76-.08.04-.11.05-.19.09,0,0,0,0,0,0-.29.27-.59.55-.72.67ZM1585.19,459.59c-1.53,1.61-2.3,2.41-3.82,4.01,1.6-.83,3.03-1.96,3.82-4.01ZM1582.43,464.83c-.13.07-.2.11-.33.19.05.02.08.03.12.05.02-.03.05-.06.07-.09.06-.06.08-.09.14-.15ZM1573.8,481.32h0c-.05.04-.04.04,0,0ZM1629.03,430.16c-.04.14-.06.21-.1.36.23-.15.35-.23.59-.38-.19.01-.29.02-.49.03ZM1573.81,481.32s0,0,0,0c-.09.08-.07.07,0,0ZM1623.15,435.2c.12.1.18.15.29.24.88-.91,1.32-1.36,2.22-2.27-.2.06-.43.06-.6.2-.65.58-1.28,1.21-1.91,1.82ZM1631,437.35c.1.03.14.05.24.09.15-.11.22-.16.37-.27-.15.07-.23.11-.38.18-.09,0-.14,0-.23,0ZM1633.6,423.76c-1.9,1.87-3.47,3.95-5.11,5.95-.1.12.04.25.13.61,2.95-2.71,5.87-5.33,8.79-7.91.01-.43.02-.64.03-1.07-1.3.79-2.85,1.44-3.84,2.42ZM1644.96,409.74c.05-.02.07-.01.12-.03.21-.15.4-.29.55-.39-.12.07-.27.14-.42.22-.1.08-.15.12-.26.21ZM2118.49,297.96c-.1.04-.15.05-.25.09.15-.01.3-.02.46-.03.06-.02.11-.03.17-.04-.13,0-.22-.02-.37-.01ZM2458.1,288.28c-.37.04-.76.06-1.15.06-.29.28-.58.58-1.02,1.02,2.56-.09,4.43-.11,6.26-.22,1.46-.09,3.38.71,4.49-.32-2.81-.27-6.52.69-8.58-.53ZM2472.52,293.94c.1-.05.15-.08.26-.13-.17,0-.26,0-.43-.01.07.06.11.08.18.14ZM2458.94,288.25c-.37,0-.55,0-.92,0,.02.02.06.02.08.04.05,0,.07,0,.12,0,.29,0,.43-.01.72-.02ZM2417.37,279.72c.07.07.1.11.17.18.12-.07.18-.1.3-.17-.19,0-.28,0-.47-.01ZM2456.64,288.23c.07.04.1.06.17.11.05,0,.09,0,.14,0,.02-.02.04-.04.06-.06-.15-.02-.22-.02-.37-.04ZM2477.52,293.35c.18.13.47.39.53.38.67-.07,1.3-.18,2.13-.3-.59-.13-.94-.28-1.28-.27-.46,0-.92.12-1.38.19ZM2430.3,278.44c2.68.03,5.37.08,8.05.1.16,0,.36-.29.71-.58-2.96-.06-5.78-.11-8.6-.17-.06.26-.09.39-.16.65ZM2438.86,281.87c.75-.09,1.12-.13,1.86-.22-.8-.66-1.61-1.32-2.99-2.46-1.92,1.47.35,2.01,1.13,2.68ZM2458.75,280.45s-.6.18-1.27.39c1.03.16,1.91.3,2.81.42.06,0,.49-.18.46-.19-.63-.22-1.29-.43-2.01-.62ZM2476.5,288.19c.11,0,.24-.01.35-.02.05,0,.08-.01.13-.02-.12-.02-.25-.04-.38-.06-.03.03-.07.07-.11.1ZM2442.86,287.61c.1.01.15.02.25.04-.11-.02-.16-.03-.26-.05-.07-.07-.11-.1-.18-.17,0,.05-.01.09-.02.14.08.02.13.03.21.05ZM2442.22,286.98c.18.18.27.27.45.44.03-.13.06-.26.05-.38,0-.02-.33-.04-.5-.06ZM2476.5,288.19c-1.45.08-2.93.16-4.84.26,3.03.89,4.11.46,4.84-.26ZM2502.42,285.83c-.13,0-.3.28-.45.43,1.24.08,1.86.11,3.09.19.09-.19.13-.29.21-.48-.95-.05-1.9-.13-2.85-.14ZM2509.82,285.83c.44.04.66.06,1.1.11-.12-.2-.06-.52-1.1-.11ZM2496.51,277.03c-.6.17-1.03.42-1.53.63,1-.12,1.99-.24,3.78-.45-1.41-.13-2.07-.24-2.25-.19ZM2511.2,286.02c.66.88,2.34.57,4.84.15-2.11-.07-3.49-.11-4.84-.15ZM2501.53,285.88c-.27.82.65,1.32,3.47,1.2,2.01-.08,3.99-.25,6.44-.4-4.39-.96-4.49-.96-9.92-.8ZM2510.93,285.94s.02.06.05.07c.07,0,.16,0,.23,0-.02-.03-.06-.03-.08-.06-.08,0-.12-.01-.2-.02ZM2489.62,277.49c-.18,0-.38.06-.58.1.2.05.29.08.49.13.23-.04.35-.06.59-.1-.17-.04-.33-.12-.5-.12ZM2509.39,288.23q-4.77-.05-6.4.74c2.07-.24,3.54-.41,6.4-.74ZM2492.24,285.56c-2.32-.1-4.59-.31-6.88-.47-1.63.08.09,1.07-2.81.98-1.84-.06-3.88.38-5.83.62,2.29.45,4.85.53,7.41.33,5-.39,9.95-.86,15.07-1.29-2.34-.98-4.74-.06-6.96-.15ZM2494.31,284.71c1.47.41,2.26.75,3.3.89,1.09.14,2.37.16,3.6.21-1.19-.93-1.36-.96-6.9-1.1ZM2509.36,289.4c.21.04.45.11.64.1.44-.03.86-.1,1.29-.15-.38-.07-.76-.18-1.14-.19-.25,0-.52.15-.79.23ZM2501.21,285.81s.06.05.1.08c.08,0,.13,0,.21,0,0-.02,0-.04,0-.06-.13,0-.19,0-.32-.01ZM2394.66,280.15c.07-.25.11-.37.18-.61-.88-.23-1.76-.45-2.63-.68-3.02.6-1.19,1.48-2.13,2.22,1.68-.34,3.13-.63,4.58-.92ZM2404.29,282.94c-.24-.18-.8-.31-1.36-.51,0,.3-.12.55.06.78.09.11.74.16,1.14.24.07-.17.32-.37.15-.5ZM2340.5,280.33c2.51-.17,4.39-.29,6.27-.42-2.14-.42-4.41-.82-6.27.42ZM2366.98,279.02c-1.71.03-2.56.04-4.27.07.02.13.03.19.04.32,1.7-.06,2.54-.09,4.24-.14,0-.1,0-.15-.01-.25ZM2355.41,280.27c-.1.05-.16.08-.26.13.18-.03.28-.04.46-.07.09-.04.13-.06.22-.11-.17.02-.25.03-.42.05ZM2381.29,281.42c-.36-.06-.73-.12-1.11-.13-.37,0-.78.09-1.17.14.33.06.66.17.98.16.44-.01.87-.1,1.3-.17ZM2382.32,280.96c-.38.18-.57.27-.95.45-.04,0-.05,0-.09.01.1.01.15.02.24.04.32-.2.48-.3.79-.5ZM2329.18,284.69c-2.55,0-5.09-.85-7.69.71,2.85-.49,5.44.53,7.69-.71ZM2299.66,287.34c-.01-.08-.02-.12-.03-.2-1.49.08-2.24.12-3.73.2,0,.06.01.08.02.14,1.5-.06,2.24-.09,3.74-.14ZM2293.85,288.56c.33-.07.44-.27.64-.41-.41-.03-.89-.13-1.22-.08-.29.04-.41.24-.6.37.41.05.94.17,1.19.12ZM2311.85,284.58c-.27-.25-.32-.46-.56-.48-.44-.04-1.04,0-1.47.09-.15.03-.11.35,0,.36.6.04,1.24.03,2.04.03ZM2384.53,278.7c-.7.02-1.39.15-2.08.23.69.07,1.37.18,2.07.19.67,0,1.37-.1,3.12-.25-1.74-.1-2.43-.19-3.11-.17ZM2304.42,285.34c-.27.03-.4.05-.66.09.29.04.57.1.88.13.1,0,.28-.09.42-.14-.26-.03-.38-.04-.64-.07ZM2356.66,279.81c-.33.16-.5.24-.83.41.63-.07.95-.11,1.58-.18-.3-.09-.45-.14-.75-.23ZM2393.2,282.21c.09.05.14.07.23.12.1-.01.21-.02.32-.03-.04-.01-.08-.03-.12-.04l-.43-.05ZM2394.09,280.77c0-.07,0-.11,0-.18-.26.04-.38.06-.64.1.26.03.39.04.64.07ZM2399.54,281.74c-2.16.21-3.98.39-5.8.56,1.21.41,2.42.82,3.77,1.27.74-.67,1.34-1.22,2.02-1.83ZM2400.84,280.84h0c.57.08.86.11,1.43.19-.48-.07-.73-.11-1.21-.18-.23,0-.34-.01-.57-.02.14,0,.21,0,.35.01ZM2401.46,279.14c-.56.26-.49.66-.84,1.23,1.05-.31,1.57-.4,1.74-.53.57-.43-.38-.93-.9-.7ZM2394.59,285.82c-.15,0-.23,0-.38-.01-.28.79-.41,1.19-.69,1.98.44,0,.66,0,1.1.01-.01-.79-.02-1.19-.03-1.98ZM2395.16,279.51c-.11,0-.22.02-.32.02,0,0,0,0,0,.01.09.02.13.03.22.06.03-.03.08-.06.1-.09ZM2396.87,278.95c-.43.05-1.01.05-1.24.14-.27.11-.35.26-.48.41.44-.03.89-.06,1.21-.14.31-.08.35-.27.51-.41ZM2395.82,280.38c-.3-.08-.63-.18-.96-.27-.07.01-.14.03-.21.04,0,0,0,0,0,.01.4.07.81.15,1.17.22ZM2389.76,282.89c-.3-.11-.6-.23-.9-.34-.18.14-.43.27-.5.41-.03.06.43.19.46.18.33-.07.63-.16.94-.25ZM2517.21,277.04c-.84-.03-1.25-.04-2.09-.07l-.02.07c.84.03,1.25.04,2.09.07,0-.03.01-.04.02-.07ZM2666.06,278.01c2.46.07,4.84.77,8.46.06-3.42-.53-5.92-.53-8.46-.06ZM2668.71,283.22c.2-.08.35-.18.51-.27-.46.08-.69.12-1.15.2.22.03.59.09.64.07ZM2669.22,282.95c.2-.04.31-.05.51-.09-.08-.03-.12-.05-.2-.08-.1.05-.21.11-.31.16ZM2672.37,280.63c-.44-.07-.87-.15-1.6-.27-.3.18-.62.37-.93.55.4.08.97.25,1.17.21.54-.12.92-.32,1.37-.49ZM2663.98,279.07c.45,0,1.02-.64,1.54-1.02-2.69.02-4.03.03-6.72.05.45,1.06,3.1.95,5.18.97ZM2659.24,279.25c.04.08.06.11.1.19.04-.04.07-.08.11-.12-.08-.03-.13-.04-.21-.06ZM2659.25,279.53s.12.07.19.1c-.04-.08-.06-.12-.1-.2-.03.03-.08.07-.09.1ZM2651.88,281.81c-.17,0-.43.25-.92.54,2,.25,3.91.49,5.35.68,1.88-.39,3.31-.81,4.95-1.01,1.95-.25,2.67-.78,3.47-1.32-4.33.29-8.19,1.28-12.85,1.11ZM1703.93,341.88c.21-.02.32-.04.53-.06.07-.03.11-.05.18-.08-.02,0-.06,0-.08,0-.25.06-.38.08-.63.14ZM2686.74,277.66c2.74.84,3.14,1.93,3.11,3.11,0,.07.64.14,1.08.23.41-.72.82-1.42,1.25-2.17-1.86-.62-3.73-1.24-5.61-1.86-.03.27-.19.58.17.69ZM2526.11,288.02c-.16-.65-.33-1.32-.49-1.97-.86-.06-1.6-.11-2.34-.17q-1.28,1.86,2.83,2.13ZM2532.43,276.72c-1.46.09-2.18.13-3.64.22.04.12.06.18.11.29,1.47,0,2.21,0,3.69,0-.06-.2-.09-.31-.15-.51ZM2585.57,276.66c-.08,0-.16-.02-.24-.03-.02.02-.03.03-.05.05.08,0,.12,0,.21,0,.04,0,.05,0,.09-.02ZM2514.49,288.19c-.02-.06-.17,1.76.61,1.6.21.38,1.21-1.22,1.37-.92-.48.02-1.29.09-1.37.03-.34-.21-.55-.47-.61-.71ZM2603.03,276.43c-.11.02-.16.03-.27.05.05,0,.07,0,.12,0,.06-.02.09-.03.15-.05ZM2078.6,312.22c-.14.03-.21.04-.35.07.13,0,.2,0,.33,0,.05-.03.08-.05.13-.08-.03-.05-.04-.08-.06-.13-.02.06-.03.09-.04.15ZM2523.06,285.87c-.18.02-.27.03-.45.05.26-.02.4-.02.66-.04,0,0,0,0,0,0h0c-.09,0-.13,0-.22-.02ZM2581.18,277.2c1.09.02,2.2.13,3.23.06.38-.02.59-.36.87-.59-14.92.13-29.84.12-44.75.16,3.83.49,5.83.76,7.88,1,2.04.23,4.14.42,6.32.63,2.77-.31,5.63-.84,8.52-.87,2.78-.03,5.58.47,8.9.78,1.76-1.15,5.31-1.23,9.03-1.17ZM2558.84,282.06c-.09-.08-.14-.12-.23-.2-.05.15-.08.23-.13.38.15-.07.22-.11.36-.18ZM2732.85,285.48c-2.42.78-4.25.9-5.98,1.14-1.1.15-2.05.35-3.2.54-.25.04-.98-.05-1.6-.09.39-.49.7-.9,1.29-1.55-5.02-.12-5.3-.17-7.47.31-3.72.83-6.17-.22-12.32-.52-.93-.05-2.1.08-3.03.2-3.9.53-7.72,1.16-11.71.82-2.82-.24-5.8-.28-8.69.08-3.78.47-7.74.28-11.84-.03-1.81-.14-3.81-.22-5.53-.16-.21.05-.42.1-.63.16-1.18-.04-2.37-.03-3.37.01-4.35.18-8.67.19-12.92.19-3.82,0-7.7.07-11.53.18-.68.02-1.46-.05-2.2-.09.36-.19.87-.3,1.46-.37-3.96-.11-8.15-.11-12.03.58-.64.11-1.59.02-2.4.02.04.01.06.02.1.04s.06.02.1.04c-.17,0-.34,0-.5,0,.1-.02.14-.03.24-.05-1.03-.23-2.22-.61-2.93-.53-4.69.57-9.27.43-13.94.12-.97-.06-2.14-.06-3.06.06-3.7.47-6.87.52-10.41-.36-1.68-.42-5.11-.28-7.55-.1-2.51.19-4.74.04-7.15-.02-2.3-.06-4.67.17-7.01.24-.22,0-.49-.24-.74-.4-.92-.04-1.78-.02-2.62.03.61,0,1.27.04,1.97.11-2.25.34-3.38.51-5.63.84.28-.26.66-.46,1.11-.61-.76.16-1.5.35-2.19.6-3.99-.82-8.36-.68-12.96-.05-1.19.16-2.6.17-3.93.24-1.47-.09-3.18-.37-4.3-.22-4.58.62-8.5-.32-12.88.03-2.01-1.26-6.16-.51-9.65-.85.74-.3,1.4-.58,2.06-.88-.19-.04-.28-.06-.46-.1.11.02.16.02.26.04,6.86.49,13.84.39,20.88-.01,4.33-.25,9.41-.69,11.99-1.71,1.96-.78,4.17-.78,8.13-.71-3.82.45-7.41.96-8.81,2.5,1.34-.2,2.48-.41,3.61-.56,1.1-.48,2.94-.52,5.39-.54-.81.12-1.54.22-2.22.32.95-.03,1.91-.04,2.85-.03,5.03.03,10.08.13,15.05.38,9.95.5,20.11.35,30.03-.07,1.81-.08,3.1-.09,4.86.15,2.68.37,6.05-.56,8.75.27,7.08.03,10.61.05,17.68.07.01,0,.02,0,.03,0,.31-.12.63-.22.96-.31.09-.06.19-.11.33-.12.08,0,.16,0,.25,0,2.01-.44,4.33-.41,6.74-.23-.07-.03-.1-.04-.17-.07,0,0,0,0,0,0,.16.01.23.02.39.03-.06.01-.1.02-.16.03.4.11.82.21,1.24.28.32,0,.65,0,1.01,0,.06.03.12.06.19.09.51,0,1.04-.08,1.62-.24,2.57-.74,4.91-.73,8.16-.35,2.44.29,5.25.53,7.92.27.34-.27.96-.51,2.16-.71.23,0,.56-.02.77,0,.14.02.28.03.42.05.05-.02.1-.02.15-.04.45-.15,1.44-.16,2.17-.14,1.08.02,2.01.04,2.87.06.22-.1.42-.22.57-.37.07-.07.95-.17,1.24-.14.69.07,1.69.2,1.78.34.4.59-.96,1.38,2.45,2.11,2.85.08,5.67-.27,8.4-.72,0,0,0,0,0,0-.15-.01-.23-.02-.39-.04.24-.01.37-.02.61-.03,0,.01,0,.02,0,.03.35-.06.7-.11,1.05-.18.45-.08.41-.43.58-.63.09-.02.18-.03.27-.05-.06-.02-.11-.03-.13-.06-.1-.11.26-.28.42-.43.47.08.71.13,1.17.21,1.2-.21,2.2-.37,3.72-.64-.06-.03-.09-.04-.16-.07.14,0,.28.02.42.03-.1.02-.15.03-.25.06,1.65.12,3.06.1,3.59-.39.43-.39.79-.79,1.18-1.18,3.86.15,6.57-.22,8.29-1.03-.14.54,1.9.72,3.24,1.04,1.76.42,1,.88-1.58,1.14,1.26.4,2.51.79,3.93,1.41,1.89-.35,3.88-.45,4.83-.88.61-.28,2.8-.86.43-1.43,1.55-.65,3.95-.68,6.97-.54-.59-.63-1.09-.9-1.56-1.27-.06,0-.09,0-.15.02-.03-.2-.05-.3-.08-.5h0s.06,0,.11.01c.26-.82,4.17-.05,5.24-.85-3.9-.17-2.42-.87-2.72-1.52-.18-.4.03-.79.22-1.19,1.4.1,2.79.08,4.06-.04.24.04.36.06.61.1,1.12,1.95,1.44,2.79-.1,6.11,1.56.86,1.11,2.71,2.3,3.3ZM2723.24,279.59c.05.18.07.26.12.44.55-.15,1.03-.29-.12-.44ZM2653.36,285.15c.08.09.1.23.25.25.67.08,1.35.14,2.04.19.31,0,.61,0,.92-.01.11-.1.26-.28.38-.4-1.01-.08-2.01-.16-3.02-.22-.15,0-.38.12-.57.18ZM2635.62,285.25c.07.02.13.05.2.06.09.02.27-.02.41-.04-.25,0-.37-.01-.62-.02ZM2701.71,283.01s-1.18-.13-1.81-.19c-.28.22-.6.44-.79.67,0,0,.19.03.51.06.31.03.74.07,1.19.11.34-.22.77-.43.9-.65ZM2708.49,282.77c-.41-.26-.62-.39-1.04-.64-1.17.13-2.36.25-3.46.4-.06,0,.63.44.85.44,1.23-.03,2.44-.13,3.65-.2ZM2681.91,282.83c-1.48-.31-2.37-.49-3.25-.67-.45.42-.92.85-1.7,1.58,1.95-.36,2.82-.51,4.95-.9ZM2669.54,283.66c.22.02.44.06.66.05.09,0,.16-.09.25-.14-.22-.02-.44-.06-.67-.06-.08,0-.16.1-.24.15ZM2665.01,283.12c-.5-.27-1-.55-1.5-.83-1.66.04-3.95-.41-4.26.66,1.85.06,3.41.91,5.76.17ZM2670.39,282.51c.26-1.57.17-1.73-2.92-3.12q.73,2.76,2.92,3.12ZM2659.25,282.95c-.07,0-.15,0-.22-.01-.19.01-.28.02-.46.03.27,0,.4,0,.67.02,0-.01.02-.02.02-.04ZM2686.36,284.94c-1.22-.12-1.83-.17-3.06-.29.8.38,1.92.34,3.06.29ZM2682.53,284.36c.11.1.16.15.27.25.2.02.3.03.49.05-.09-.04-.19-.06-.27-.11-.2-.07-.3-.11-.5-.18ZM2678.52,282.12s.1.02.14.03c.03-.03.08-.07.11-.1-.1.03-.15.04-.25.07ZM2569.7,287.18c-.19-.04-.46-.03-.7-.05.08.12.12.18.19.31.26-.04.4-.05.66-.09-.04-.06-.04-.15-.15-.17ZM2541.94,287.1c.1,0,.14,0,.24,0-.23-.01-.34-.02-.56-.03.13.01.19.02.32.03ZM2572.25,286.6c.18.06.39.18.53.17.45-.03.87-.11,1.3-.16-.21-.08-.31-.11-.52-.19-.52.08-.79.11-1.31.19ZM2618.37,287.07c.19-.04.28-.06.47-.1-.04,0-.09,0-.13,0-.13,0-.23.07-.34.1ZM2647.03,282.96c.15-.03-.1-.29-.16-.44-1.01.2-1.52.29-2.53.49.16.13.25.19.41.31.77-.11,1.58-.21,2.28-.36ZM2658.56,282.97c-2.16-.05-4.34-.16-6.23.41-.22.03-.55.09-.55.09,0,0,.22-.03.37-.05,2.57-.18,3.85-.27,6.41-.45ZM2648.79,281.97c-.14-.05-.27-.12-.43-.13-.17,0-.38.05-.57.08.17.05.25.08.42.13.23-.03.34-.05.58-.08ZM2663.63,282.16c-.09.03-.14.04-.24.06.05.03.07.04.12.06.04,0,.05,0,.09,0,.01-.05.02-.08.03-.13ZM2630.05,283.62c-4.16.04-6.87.06-9.57.08,2.69.4,5.37.97,9.57-.08ZM2296.39,285.63q-2.72-.54-6.82,0c2.17.49,4.38.47,6.82,0ZM2602.75,276.47c-5.22-.3-10.51-.08-15.78-.02-.47,0-.93.12-1.4.2,2.9.36,6.16.48,8.25,1.38,2.99-.52,5.96-1.03,8.93-1.56ZM2103.56,299.62c2.68-.34,4.24-.54,6.35-.8-2.49-.88-3.92-.31-6.35.8ZM2105.15,299.59c.07.02.1.02.17.04.15,0,.23-.01.38-.02-.22,0-.33-.01-.56-.02ZM2101.22,294.94c-.13-.02-.43.08-.66.12-.04.18-.28.47-.07.51.77.11,1.68.17,2.58.17.31,0,.77-.24,1.16-.37-1-.15-1.99-.3-3.01-.43ZM2104.31,301.29c.34,0,.51.01.85.02-.08-.05-.12-.08-.2-.13-.26.04-.39.07-.65.11ZM2100.72,301.17c-1.8.07-3.36.13-4.94.19-.79.61-1.6,1.23-2.76,2.13,3.36-.71,5.81-1.3,7.7-2.32ZM2033.99,298.46c1.1.03,2.06.06,3.02.08.11,0,.17-.01.29-.02-.19,0-.29,0-.49-.01-.29-.57-1.2-.58-2.82-.05ZM2095.33,301.35c-2.77-.13-3.03-.12-8.07.63,2.73.82,5.38-.31,8.07-.63ZM2091.37,293.12c-.57-.03-.86-.05-1.43-.09.5.07.75.1,1.25.17.26-.03.38-.04.64-.07-.18,0-.28,0-.46,0ZM2095.78,301.36s.07-.06.11-.08c-.19.02-.37.05-.56.07.13,0,.23.01.37.02.03,0,.04,0,.07,0ZM2110.5,294.92c-.46.07-.95.15-1.44.22.26.03.5.1.77.09.48-.02.97-.09,1.45-.14-.26-.06-.51-.12-.78-.18ZM2038.09,310.5c.66-.07,1.33-.15,2.96-.33-1.52-.03-2.15-.04-2.78-.05-.07.15-.1.23-.17.39ZM2107.23,297.94c1.88-.27,3.75-.55,5.46-.8.36-.43.66-.79.96-1.15-3.83-.64-4.17,1.09-6.56,1.45-.07,0,.08.29.14.49ZM2136.48,291.65c.27-.51-.75-.44-1.77-.32.04.34.06.5.09.84.58-.17,1.59-.35,1.68-.52ZM2117.72,298.47c.42.18.59.43,1.07.81-5.68.39-10.26-.13-15.11-.39,2.81-.22,5.62-.44,8.62-.68.15-.39.28-.73.4-1.07,1.73-.44,3.22-.71,3.15.3-.02.22.21.43.34.64.54.12,1.14.22,1.54.39ZM2115.73,298.14c-.22.01-.33.02-.55.03.11.01.25.05.32.04.08-.02.16-.04.23-.07ZM2116.8,291.34c1.25.15,2.3.43,3.49.4,4.69-.11,9.41-.3,14.12-.47-.16-.21-.32-.43-.48-.64,2.54-.46,4.17-.95,5.25-1.5-11.75.28-18.17.91-22.39,2.2ZM2109.71,300.49c-.08-.1-.12-.15-.2-.24-.26.05-.39.07-.66.12.05.05.06.13.17.14.2.02.46-.01.69-.02ZM2110.33,297.21c0,.08,0,.12-.01.2.07-.07.1-.1.17-.16.82-.03,1.23-.04,2.06-.07.06-.01.1-.02.16-.04,0-.02,0-.03.02-.04-.96.05-1.43.07-2.39.12ZM2134.71,291.33s0-.04,0-.06c-.12,0-.17,0-.29.01.02.03.03.04.06.07.1-.01.14-.02.24-.03ZM2095.17,302.7c-1.9-.14-4.07-.2-6.11-.38-5.98-.53-12.7.46-18.97.55-3.11.85-7.54.82-9.8,2.25-.29.18-1.58.44-1.97.39-3.76-.44-7.64.55-10.94,1.15-5.99,1.08-12.41,1.44-18.2,2.92-1.31.34-3.79.87-4.96-.14,5.24-1.2,10.98-1.07,16.24-2.37,4.71-1.16,10.59-1.27,15.45-2.66-2.26-.25-4.47-.53-6.67-.75,2.39-1.23,6.04-1.22,9.19-1.7,1.47,1.02,4.18.65,7.1.2,2.9-.44,5.84-.24,8.5-.48,3.63-.32,7.57-1.26,8.52-2.88.14-.25.6-.5,1.17-.95,1.48.21,2.7.41,3.98.56,1.1.13,2.3.2,3.83.32-1.23.66-2.26,1.22-3.28,1.77.77.12,1.49.38,2.3.34,2.15-.11,4.38-.42,6.52-.46,1.69-.03,3.29.15,5.83.28-1.81.6-2.8.93-3.8,1.26.49.49,2.53.83.9,1.54-1.26.55-3.13.62-4.33.32-.63-.16-.35-.69-.49-1.09ZM2088.1,300.54c.07-.47-.29-.87-1.96-.57-.68.12-.94.69-1.96,1.51,2.15-.52,3.06-.73,3.92-.94ZM2046.91,311.85c.1,0,.2,0,.29,0,.06-.03.13-.06.19-.09,0,0,0,0,0,0-.16.03-.32.05-.48.08ZM2060.66,303.12c.17-.03.25-.04.42-.07-.18.02-.28.03-.46.06-.06-.02-.08-.03-.14-.05-.03.03-.04.04-.07.07.1,0,.15,0,.25-.01ZM2031.51,305.32c-.18.04-.24.16-.36.24.24-.02.49-.03.71-.08.13-.03.21-.11.31-.16-.22,0-.5-.04-.66,0ZM2032.37,307.61c.29-.05.43-.08.72-.13-.25-.02-.38-.03-.63-.05-.04.07-.06.11-.09.18ZM2057.97,302.21c1.01.34,1.51.51,2.51.85,1.14-.99-.81-.87-2.51-.85ZM2042.77,304.72c2.15-.35,4.07-.67,5.98-.98-2.04-.06-4.11-.13-6.93-.22.45.58.68.87.94,1.2ZM2084.01,326.69c.15,0,.22,0,.36,0,.15,0,.22,0,.36,0-.08-.02-.12-.03-.2-.05-.21.02-.32.03-.53.05ZM2061.28,306.17c-1.84-1.26-1.99-1.3-5.26-.96.4.52.8,1.03,1.19,1.55,1.63-.24,2.44-.36,4.07-.59ZM2056.02,305.21s-.03-.04-.05-.07c-.06,0-.09,0-.14,0-.03.03-.07.06-.1.09.11-.01.19-.02.3-.03ZM2052.75,305.29c-.11,0-.17,0-.28.01v.02c.07,0,.15,0,.2.01.03-.02.04-.03.07-.04ZM2065.09,295.72c0,.06,0,.09.01.16.23-.05.35-.08.58-.13-.24,0-.35-.02-.59-.02ZM2056.17,296.51c-1.64.15-2.45.23-4.09.39.03.14.05.21.08.36,1.64-.2,2.46-.3,4.1-.5-.03-.1-.05-.14-.09-.24ZM2057.97,302.21c-.11-.04-.17-.06-.28-.09-.09.01-.13.02-.22.03,0,.02.01.04.02.07.15,0,.32,0,.48,0ZM2064.38,301.4c.49-.03.73-.05,1.22-.08-.26-.03-.51-.07-.79-.09-.06,0-.29.11-.43.17ZM2055.46,303.57c-.95.6-1.83,1.16-2.71,1.72,1.23-.05,1.85-.08,3.08-.13.63-.56,2.1-1.19-.37-1.58ZM2065.6,301.32c.14.02.28.03.42.05,0,0,0,0,0,0,.07,0,.1,0,.17,0,0-.03-.02-.05-.02-.08-.23.02-.34.02-.57.04ZM2061.5,306.22s.06-.06.1-.09c-.13.02-.19.03-.32.05.03.02.06.04.09.06.05,0,.08,0,.13-.01ZM2236.43,282.88c-.15.1-.23.15-.38.25,1.22.06,1.83.1,3.05.16.06-.02.13-.03.2-.05-.14,0-.21,0-.35.02-1.01-.15-1.51-.23-2.52-.38ZM2214.9,284.84c-1,.13-1.5.2-2.5.33,1.09-.03,1.64-.04,2.73-.06-.09-.11-.14-.16-.23-.27ZM2263.88,289.47c.05,0,.11,0,.16-.01.01-.03.02-.06.02-.1-.1,0-.2.02-.29.02.03.03.07.06.11.08ZM2261.16,289.06c-.13-.91-3.09-.48-3.23-.35-1.64,1.66-5.79,1.32-9.16,1.56-.98.07-1.96.13-2.94.2.01.22.02.32.04.54,6.26-.37,12.49.04,19.07-.73-.5-.38-.79-.6-1.07-.81-1.22.07-2.62.26-2.72-.41ZM2246.55,282.51c-.16-.04-.3-.1-.48-.11-.18,0-.38.06-.58.09.18.04.28.07.46.11.24-.04.36-.06.59-.09ZM2263.41,282.83c-.19-.01-.38-.04-.57-.04-.07,0-.13.09-.19.15.19.01.38.04.57.03.07,0,.13-.09.2-.14ZM2254.95,292.24c2.23.66,4.93.61,8.69.47-3.17-.68-5.61-1-8.69-.47ZM2225.54,283.5c-.17-.02-.47.04-.72.07.13.07.22.16.42.19.14.02.42-.04.64-.07-.11-.07-.16-.17-.34-.2ZM2222.49,289.19c-.38-.1-.57-.14-.95-.24-.27.11-.61.23-.84.36-.05.03.37.18.44.17.47-.08.9-.19,1.35-.29ZM2271.66,281.4c-.08-.06-.15-.14-.26-.19-.85-.44-3.12-.59-3.85-.25-.24.11-.21.44-.09.45,1.16.09,2.37.13,3.58.16.17,0,.41-.11.62-.17ZM2285.74,287.61c-.24.06-.36.09-.6.15.33.07.65.2.98.19.31,0,.63-.17.95-.26-.53-.03-.8-.05-1.33-.09ZM2239.29,283.24c.41-.02.61-.03,1.02-.05-.19-.02-.4-.07-.58-.06-.16.02-.3.06-.44.11ZM2226.58,285.31c.21,0,.32,0,.53.02-.07-.09-.1-.13-.17-.22-.14.08-.22.12-.36.2ZM2266.49,288.39c-.71.08-1.67.13-2.02.3-.37.18-.34.44-.41.68.72-.06,1.49-.1,2.06-.24.49-.12.67-.39.92-.6.03-.03-.4-.15-.55-.13ZM2404.82,290.09c.33.16,1.26.2,1.91.29-.26-1.27,3.78-.96,5.86-1.6-2.87-.56-5.25-1.16-8.6-.85.8.18,1.61.35,2.36.52-.36.61-2.81.99-1.52,1.64ZM2282.1,286.87c-1.54-.23-2.92-.63-3.65-.51-3.44.57-6.89.44-10.46.64,2.17.23,4.33.46,6.34.67,2.49-.25,4.81-.49,7.76-.79ZM2438.75,289.12c.14.12.24.31.44.33.35.02.74-.02,1.12-.05-.27-.11-.53-.22-.85-.31-.12-.03-.47.02-.71.03ZM2445.58,289.59c-1.83-.05-3.31-.09-4.76-.13,1.08.65,2.67.49,4.76.13ZM2453.42,288.23c.22.13-.21.33-.72.4-.53.07-2.18.03-2.22,0-.76-.51-2.95-.82-5.16-.89-2.36-.07-4.78.11-7.55.08-.5,0-1.09-.56-1.8-.9-1.78.1-3.5.2-5.21.3-.09.01-.14.02-.23.03-.08-.03-.12-.04-.2-.06.16.01.24.02.39.03.08-.01.12-.02.2-.03-9.02-.73-18.04-.32-26.91.59.03,0,.05,0,.08,0-.12,0-.22.01-.35.02.06-.01.1-.02.16-.03-5.9-.05-11.8.43-17.62.46-8.76.05-17.15.44-25.73.72-2.15.07-4.19.14-6.35.16-2.62.02-5.5-.05-7.7.45-1.16.27-2.31.11-3.63.07-4.92-.14-9.9-.24-14.9-.33-2.37-.04-4.86.06-7.28.07-5.67.03-11.34.05-17.01.07-1.85,0-3.71.12-5.56.18.06.01.09.02.15.04-.03,0-.04,0-.07,0-.01,0-.02,0-.03-.02-2.46-.3-5.25-.06-7.78.05-5.19.23-10.1.09-15.08.02-.76,0-1.46-.1-2.43-.16,2.69-.21,4.88-.42,7.76-.37,4.71.08,9.57,0,14.44-.19,6.49-.26,13.05-.39,19.26.1,1.8.14,4.42.13,4.65-.44.02-.04,2.51-.13,3.6-.1,4.54.14,9,.02,13.83-.11-.16-.15-.27-.23-.37-.41-1.83.06-3.4.11-4.91.14,1.13-.37,2.17-1.59,3.26-1.66,3.89-.04,7.82-.08,11.76,0,2.24.05,2.26.02,6.65-.16-1.59-.05-2.92-.04-4.25-.06.36-.05.54-.09.9-.19,1.9.08,3.81.09,5.71.12,4.43.07,8.9.36,13.89-.04.25-.02.55-.04.8-.03,2.96.05,6,.08,8.84.21,2.63.12,5.43-.43,7.83-.05,2.89.02,5.81,0,8.65.02,2.19.02,4.05-.09,6.29-.27,3.56-.29,7.43-.35,11.3-.32-1.69.18-3.38.35-6.1.65,1.71.05,2.56.11,3.46.1,1.86-.02,3.81-.13,5.6-.1,2.18.04,3.29-.05,4.55-.47.94-.31,2.72-.15,3.94.37,5.7-.56,11.63-.17,17.38-.16,10.25.02,20.57-.06,30.83-.52.39.24.72.5,1.09.79,1.49.05,3.05.1,4.81.16-.37.13-.6.26-.84.26-8.71.06-17.46.03-26.72,0,1.08.38,2.03.97,2.66,1.36ZM2357.12,288.33q-2.91-.34-8.42-.32c2.64.56,5.16.45,8.42.32ZM2362.47,287.51c-.17-.04-.33-.09-.54-.13-.07-.01-.42.04-.64.06.47.03.71.04,1.18.07ZM2369.3,287.74c-1.76-.29-3.87-.27-6.06-.16,1.71.32,3.97.17,6.06.16ZM2381.73,287.61c-4.78.1-7.16.1-11.93.16.25.13.57.26.75.26,3.73-.07,7.57.02,11.18-.42ZM2386.49,286.35c-.21-.02-.31-.02-.52-.04.15.01.23.02.39.04.05,0,.08,0,.13,0ZM2395.81,287.35c-.06-.04-.09-.06-.14-.1-3.13.11-4.69.17-7.82.26.09.08.19.15.29.22,1.32-.04,2.65-.06,3.96-.12,1.25-.06,2.48-.17,3.72-.26ZM2293.68,291.52c2.01-.13,3.72-.23,5.54-.35-.46-.44-.77-.74-1.08-1.04-1.27.29-2.56.58-3.79.89-.27.07-.32.23-.67.5ZM2440.32,289.4s.09.03.13.05c.12,0,.25,0,.37.01-.06-.03-.13-.05-.19-.08-.13.01-.19.02-.32.02ZM2274.18,291.58c.87-.04,1.31-.05,2.18-.09.15,0,.27-.1.41-.15-1.02,0-1.52-.01-2.54-.02-.02.1-.03.16-.05.26ZM2409.63,291.97c-1.49.96.82,1.38,1.87,2.14,1.67-1.11.44-1.67-1.87-2.14ZM2425.07,289.29c.1.05.22.16.31.15.48-.02.96-.07,1.44-.11-.1-.06-.21-.17-.29-.17-.49.03-.97.08-1.46.12ZM2419.26,289.32c-.46-.02-.94-.03-1.42-.04.05.12.07.18.12.31.56-.04.85-.06,1.41-.1-.04-.06-.04-.17-.11-.17ZM2411.04,295.7c.1.27.7.51,1.09.77.64-.11,1.28-.23,1.82-.33-.75-.45-1.09-.66-1.44-.87-.53.15-1.53.32-1.48.43ZM2134.87,293.98c.37.08.55.12.92.2-.3-.1-.44-.15-.74-.25-.76-.21-1.14-.32-1.9-.53-.04.02-.06.03-.11.05.01,0,.02,0,.04.02.72.21,1.08.31,1.8.52ZM2121.88,298.91c.14-.01.28-.02.42-.03-.05-.02-.07-.04-.12-.06-.03,0-.05,0-.08.01-.07.02-.15.05-.22.08ZM2117.8,298.2c.18-.06.27-.09.44-.15-.06,0-.12,0-.18.01-.12.02-.18.09-.26.14ZM2132.4,296.14c2.39.02,4.79.04,7.78.07-1.9.21-3.45.51-4.65.51-3.72-.02-6.03.34-7.75,1.02-.25.1-1.41.14-2.14.21.06.01.08.02.14.03-.79.04-1.19.06-1.98.1.05-.02.08-.03.13-.05-.42.04-.82.08-1.22.12-.82-.24-1.51-.51-3.31-.5,5.96-.74,9.17-1.76,9.67-3.01,2.72-.24,3.49.09,4.51.34-1.67.39-2.07.78-1.16,1.16ZM2131.88,296.21c-.38.02-.56.03-.94.06l.27.07c.27-.05.4-.08.67-.13ZM2139.71,297.11c3.12-.15,5.73-.28,9.9-.48-4.12-.61-6.7-.98-9.9.48ZM2155.89,287.94c-4.36.2-6.54.29-10.91.49.04.26.06.4.1.66,4.31-.35,6.46-.53,10.77-.88.01-.11.02-.16.03-.26ZM2127.03,300.63c-.38.04-.73.2-1.09.3.46.03.92.12,1.37.09.35-.03.68-.22,1.02-.33-.44-.02-.88-.09-1.3-.05ZM2118.04,300.27c1.38-.49,2.61-.93,3.84-1.36-.92.07-1.86.12-2.69.26-1.96.34-2.09.77-1.15,1.1ZM2147.16,293.19c2.54-.34,3.81-.51,6.34-.86-2.61.18-3.91.27-6.52.44.06.14.12.27.18.41ZM2127.1,297.61c.13.02.19.02.32.04.07,0,.1,0,.16,0,0,0,0,0-.01,0-.19-.01-.28-.02-.47-.03ZM2132.04,297.37c-1.79.1-2.68.16-4.47.26,1.34.39,2.86.23,4.47-.26ZM2178.75,295.53c.09,0,.14,0,.23,0,.16-.03.25-.04.41-.06-.23.02-.34.03-.57.06-.04,0-.06,0-.1,0,0,0,.01,0,.02.01ZM2153.51,292.33c.46-.03.7-.05,1.16-.08-.02-.09-.02-.13-.04-.21-.07.07-.1.1-.17.17-.38.05-.57.08-.95.13ZM2176.87,295.34c.45.05.89.11,1.35.16.16.02.33.02.51.02-.37-.19-.56-.28-.94-.46-.37.11-.55.17-.92.29ZM2190.07,285.68c-.27.09-.4.14-.67.23.22.02.33.03.55.05.22-.05.33-.08.55-.14-.17-.06-.25-.08-.42-.14ZM2206.83,284.33c-.47.04-.92.12-1.38.18.17.05.35.15.5.14.47-.04.92-.12,1.45-.19-.21-.05-.41-.14-.57-.12ZM2197.8,285.62c.3-.08.51-.21.78-.33-.52-.02-.97-.03-1.42-.04-.03.12-.09.25-.05.37,0,.02.54.04.68,0ZM2230.42,290.85c-1.55.43-2.83.37-4.36.5-6.57.58-13.3-.68-19.76,1.08-.49.13-1.57,0-2.38.03-2.72.07-5.47.05-8.16.23-4.46.3-8.94.73-13.4,1.06s-8.94.57-13.43.58c-.47,0-1.21.1-1.48.23-.45.21-.62.47-.98.78,23.25-1.14,46.52-2.49,69.74-3.68.64-.03,1.3-.3,2.57-.6-1.15-.31-1.98-.75-2.96-.74-1.8.02-4.06.15-5.41.52ZM2151.6,294.18c1.99.88,2.65.84,7.67-.48-2.75-.36-5.19-.1-7.67.48ZM2212.02,285.68c.22.01.45.04.67.03.07,0,.13-.11.2-.17-.27-.02-.41-.03-.68-.05-.07.08-.11.11-.18.19ZM2159.81,289.35c.91-.04,1.36-.06,2.26-.09,0-.04,0-.06.01-.11-.91.04-1.36.06-2.26.1,0,.04,0,.06-.01.1ZM2174.2,286.66c-.25.06-.37.1-.62.16.34.06.68.18,1.02.16.33-.02.65-.18.98-.28-.55-.02-.83-.02-1.38-.04ZM2733.6,267.28c-.65,1.42-2.41,2.8-.16,4.25.1.06.05.15-.02.22-.64.63-.75,1.28-.63,1.92-.26,0-.38,0-.64.02.3,1.18.45,1.77.75,2.94-.36.23-.72.45-1.09.68-.91-.35-1.86-.46-2.85-1.58-.5-.57-1.49-.59-2.19-.56-1.08.05-2.07.43-3.14.54-1.42.14-2.87.24-4.33.2-.82-.02-2.46,1.86-3.11,2.35-.78.6-1.73.47-2.75-.06-.22-.12-1.25.05-1.54.26-.96-1.24-11.2.1-14.87-.95-2.33-.14-4.69-.24-7.11-.25-9.68-.05-14.51-.06-24.18-.06-8.05,0-16.12,0-24.18.12-11.78.18-23.57.34-35.34.45-8.46.08-12.73.06-21.22.07-7.08,0-14.2.03-21.31.07-14.24.08-28.49.09-42.73.09-21.29,0-42.62.12-63.92.26-10.61.07-15.94.09-26.52.18-8.81.08-17.67.28-26.49.43-9.84.18-14.77.26-24.59.45-8.18.16-16.4.28-24.56.53-16.36.49-32.73.94-49.09,1.39-1.98.06-2.98.07-4.95.13-1.97.06-2.97.11-4.95.18-3.96.14-5.94.21-9.9.35-7.91.29-11.9.42-19.79.73-8.63.34-17.31.67-25.93,1.12-10.35.54-15.59.87-25.92,1.39-7.2.36-10.85.5-18.08.84-3.01.14-6.03.24-9.04.42-3.61.21-5.43.32-9.03.54-10.57.65-21.14,1.33-31.71,2-3.17.2-4.78.28-7.93.51-3.15.22-4.75.37-7.92.62-1.25.1-2.38.17-3.42.27-2.48.24-5.15.49-7.84.69-6.92.51-13.91,1.1-20.79,1.75-9.82.93-19.65,2.05-29.45,3.04-9.8.99-19.65,1.92-29.45,3.08-9.8,1.12-19.61,2.25-29.41,3.37-2.45.29-4.91.54-7.35.87-2.93.39-4.4.59-7.33.98-5.86.78-8.79,1.17-14.65,1.96-4.88.66-9.76,1.31-14.64,1.97-1.46.2-2.19.3-3.66.5-1.46.23-2.19.34-3.64.57-2.91.46-4.37.69-7.28,1.15-9.7,1.52-19.43,3.16-29.07,4.74-9.32,1.53-18.83,2.55-28.14,4.19-4.76.84-9.13.96-13.87,2.04-4.74,1.08-9.49,2.17-14.23,3.26-3.52.98-5.19.77-9,1.72-3.56.89-7.73,1.49-11.29,2.47-3.56.98-4.83,1.02-8.4,1.95-3.57.93-12.12,1.97-15.67,2.96-7.11,1.98-4.12,1.24-11.41,3.03-2.76.68-4.14,1.02-6.9,1.7-.91.23-6.4,1.68-7.3,1.92-1.81.49-3.18,1.18-4.99,1.66-3.62.96-7.99,2.04-11.64,2.99-7.14,1.87-6.72,2.1-13.64,3.99-3.42.94-6.4,1.77-9.76,2.9-3.36,1.12-9.32,2.59-12.71,3.88-3.72,1.43-8.29,3.13-12.01,4.59,0,0-11.06,3.63-13.42,4.59-1.62.66-8.48,3.53-8.48,3.53-1.82.8-8.82,3.69-10.59,4.59,0,0-6.31,2.97-7.51,3.47-2.42,1.01-10.48,5.57-12.4,6.53-1.81.91-5.73,3.17-7.19,3.85-2.18,1.01-3.97,2.46-3.97,2.46-1.41.66-2.11.99-3.53,1.66-1.03.56-1.54.85-2.58,1.41,0,0-2.3,1.51-3.05,1.96-.84.5-3.33,1.97-3.33,1.97-3.5,1.96-1.88,1.66-5.47,3.53-2.42,1.26-2.07,1.04-3.72,2.13-1.12.74-2.99,1.98-5.32,3.52-.48.31-2.88,2.13-2.88,2.13-1.58,1.14-2.38,1.71-3.97,2.86-3.76,2.7-5.17,4.12-8.96,6.75-3.82,2.65-6.39,5.74-10.19,8.55-1.49,1.1-4.42,3.51-4.42,3.51,0,0-5.69,5.07-7.82,6.72-1.83,1.42-19.56,14.39-21.54,15.67-8.91,6.64-17.29,14.06-26.15,20.65-3.54,2.63-5.87,4.83-9.49,7.49-2.26,1.8-5.49,3.39-8.01,5.33-2.55,1.96-4.82,3.54-7.5,5.6-2.5,1.92-4.93,3.83-7.46,5.6-1.92,1.35-3.39,1.94-5.39,3.15-1.79,1.09-1.91,1.43-3.7,2.44-1.79,1.01-3.62,2.82-5.45,3.77-1,.52-4.25,2.65-5.04,3.06-1.05.66-4.8,3.16-5.86,3.78-7.58,4.48-6.03,4.42-13.94,8.61-2.27.89-5.57,3.03-7.84,4.13-1.14.55-4.61,2.86-5.74,3.43-1.14.57-3.9,2.16-5.05,2.75-4.63,2.34-7.79,3.82-12.41,6.29-1.16.62-2.35,1.2-3.53,1.75-1.19.55-2.38,1.11-3.55,1.65-2.35,1.08-4.72,2.1-7.06,3.04-2.34.94-2.21,1.12-4.51,1.85-.05.02-3.48,1.37-3.54,1.38-1.44.78-2.92,1.48-4.36,2.23-4.58,2.4-10.33,3.93-15.04,5.95-1.18.5-2.36.99-3.54,1.45-1.18.45-2.38.83-3.57,1.2-2.37.75-4.22,1.61-6.57,2.27-1.64.46-4.11,1.22-4.11,1.22-.1.04-3.2,1.12-3.3,1.16-.86.4-4.15,1.28-4.15,1.29-1.75.34-3.53,1.22-5.27,1.54-2.21.72-4.29,1.35-6.46,2.06-2.97.99-5.99,1.62-8.88,2.57-2.89.95-3.89,1.52-6.94,2.29-.84.21-3.68.71-4.5.93-3.69.98-5.38,1.52-8.92,2.58-1.98.59-5.99,1.72-7.72,2.36-1.72.64-10.64,2.29-12.02,2.97-7.63,2.32-7.29,1.62-14.2,2.99-1.95.55-2.92.83-4.85,1.37-1.68.42-2.52.63-4.2,1.05-1.26-.11-2.93.63-4.28.56-5.07.95-4.7,1.03-10.44,2.11-.12-.15-3.45.71-3.58.56-.69.15-1.04.22-1.73.37-1.38.28-2.79.53-4.19.8-6.08,1.16-9.1,1.73-15.1,2.84-7.39,1.56-14.89,2.04-22.38,3.36-4.93.87-13.81,1.5-18.72,2.33-4.96.84-9.56,1.05-14.59,1.81-5.04.77-10.84,1.08-15.96,1.78-1.29.18-2.56.36-3.87.51-1.59.18-2.38.27-3.97.44-2.66.29-5.34.56-8.03.82-23.82,2.32-47.65,4.61-71.46,7.04-2.16-.04-3.24-.07-5.41-.11-2.04.25-3.06.37-5.1.62-2.03-.41-4-.82-5.91-1.24-10.02.48-15.06.71-25.22,1.17.05.3-.62.59-1.79.85-2.43.56-7.03.98-11.43,1.39-62.85,3.62-125.74,5.99-188.65,8.36-13.49.51-26.98,1.01-40.47,1.48-6.19.21-12.31.1-18.07-.15-1.8-.14-2.81-.4-3.58-.69-2.58.07-3.87.1-6.45.17-1.19.4-3.09.79-5.01,1.19-6.34.45-12.4.52-18.37.18-2.04-.12-3.95-.27-5.71-.44-6.07.33-12.13.67-18.16,1.02-10.58.16-15.83.24-26.27.44-2.03-.5-5.18-.31-5.91-.92-11.26,0-22.52.17-33.78.22,0,0-4.73,0-4.73,0-6.15.22-9.81-.01-15.9.2-3.85.66-8.95-.07-14.17.4-13.23.54-26.46,1.05-39.7,1.52-4.11.13-6.18.19-10.36.31-4.17.1-7.6.23-11.83.33-7.05.18-14.02-.34-21.63-.17-11.33.25-22.67.34-34,.45-6.64-.13-13.31-.23-19.81-.1-6.7.13-10.22-.44-16.33.34-2.53-.1-3.8-.16-6.35-.26-2.43.17-3.65.26-6.09.43-3.91.12-7.86.24-11.78.36-19.35.59-38.79.34-58.16.75-8.23.17-16.59.3-24.98.43-8.4.13-17,.2-25.4.24-12.89.07-25.94-.19-38.83-.34-27.32-.31-54.85.81-82.28-.13.23,0,.35,0,.58.01-18.9-.33-37.78.56-56.67-.06.17,0,.25,0,.42.01-18.92-.34-37.8.2-56.7-.87-9.48-.24-19.31-.4-23.55-1.46-16.67.22-33.33-.32-50-.04-1.85-.16-2.77-.25-4.61-.41-2.36.16-3.53.24-5.87.4-9.67.27-17.24-.13-24.18-.71-2.71-.6-6.78-.76-12.15-.46-4.28-1.88-6.21-4.67,12.41-5.04,35.92-.71,71.99-.68,107.92-1.35,11.67-.22,23.36-.46,35.03-.89,123.92-1.32,247.81-5.14,371.75-5.47,14.64.24,29.28.06,43.91-.49,4.54.12,9.08.25,13.49.36,4.42.11,8.51-.87,12.56-.8,14.02.23,28.08-.57,42.06-1.49,4.09-.27,4.5-.08,8.53-.2.17-.09,8.89-.35,9.04-.44,9.78-.22,19.56-.76,29.34-.9,13.58-.2,27.18-.62,40.75-.86,3.35-.06,6.79-.18,10.18-.3,3.38-.13,6.78-.26,10.17-.39,6.78-.26,13.57-.49,20.29-.64,8.07-.18,16.17-.39,24.26-.57,4.04-.09,8.11-.15,12.18-.19,4.07-.04,8.14-.09,12.24-.07.68.07,1.37.13,2.07.2.81-.43,3.74-.44,5.89-1,8.65-.4,17.48-.68,26.36-.89,4.44-.11,8.9-.21,13.35-.32,4.45-.1,8.93-.18,13.3-.35,17.19-.65,34.43-1.39,51.61-1.97,1.02-.03,8.42.09,9.46.09,1.09,0,3.14-.15,4.18-.21,1.04-.06,3.1-.18,4.14-.25,2.06-.12,6.18-.37,8.24-.5,5.48-.33,10.93-.67,16.35-1.01,4.07-.26,11.58-.12,15.62-.38,2.02-.13,9.52-.86,11.51-1,2-.14,12.49-.93,14.44-1.06,18.69-1.3,37.54-2.31,56.18-3.88,5-.42,5.83-1.17,10.89-1.66,2.54-.25,11.75-.91,14.26-1.18,2.48-.26,7.5-.48,9.99-.76,9.96-1.14,16.45-1.54,26.26-2.91,12.12-1.69,24.25-3.41,36.38-5.13,4.07-.58,16.55-2.61,20.81-3.27,4.22-.65,9.13-1.59,13.41-2.38,4.27-.79,13.16-2.3,17.51-3.18,4.34-.88,19.23-2.69,23.55-3.76,9.25-2.3,18.77-3.93,28.07-5.98,9.65-2.13,13.37-2.76,23-5.33,1.48-.4,8.26-2.31,9.73-2.66,1.47-.35,4.55-1.1,5.97-1.55,2.83-.91,3.26-.89,6.02-1.91,4.13-1.52,9.31-2.6,13.6-3.77,2.15-.59,3.49-1.3,5.6-2.02,2.11-.71,4.22-1.47,6.32-2.23,4.2-1.53,8.39-1.95,12.54-3.55,2.08-.8,8.74-3,10.77-3.89,3.47-1.31,5.19-1.95,8.65-3.25,4.05-1.78,9.17-3.89,13.16-5.64,3.98-1.75,10-4.13,14.03-5.83,2.02-.85,5.61-3.16,7.65-3.96,2.04-.8,4.11-1.57,6.11-2.37,4-1.61,15.72-9.37,19.56-11.22,1.37-.66,3.25-2.24,4.87-2.9.68-.28,1.65-.71,2.34-.91.69-.2.86-.53,1.54-.74.07-.02.13-.04.2-.06-.05-.13.71-.34.64-.46,3.29-2.12,4.79-2.47,8.1-4.59,2.38-1.39,3.58-2.09,5.97-3.48,1.14-.76,5.66-3.37,6.77-4.16,2.22-1.59,3.78-2.49,6.07-4.01,2.29-1.52,3.78-2.51,6.1-3.98,2.32-1.47,6.69-4.61,9.05-6.11,4.71-3,5.57-4.47,10.56-7.24,2.54-1.41,2.08-1.64,4.82-3.56,2.21-1.56,2.26-1.42,5.2-3.51,3.48-2.48-3.93,2.41.45-.69,3.62-2.57,5.22-3.55,8.41-6.11.82-.66,1.6-1.41,2.49-2.09,1.82-1.41,3.46-2.73,5.81-4.23,1.25-.8.85-.41,3.17-2.49.57-.51,2.72-2.21,3.54-2.92,1.86-1.62,9.27-7.39,11.24-9.13,1.96-1.74,4.05-3.35,6.22-4.81,4.33-2.91,5.3-4.05,10.8-8.62,4.38-3.64,4-3.42,8.39-6.76,5.35-4.06,5.04-3.55,8.92-6.66,4.04-3.24,9.5-7.62,14.27-11.29,8.33-6.4,9.28-8.02,17.64-13.77,2.01-1.38,7.31-5.28,9.28-6.48,1.96-1.2,5.23-4.41,7.16-5.54,3.61-2.11,3.67-2.78,7.45-4.94,3.1-1.77,4.25-2.51,7.05-4.28.91-.57,3.95-2.43,4.93-2.83,2.02-1.19,3.03-1.78,5.03-2.96,1.94-.77,7.61-4.41,9.57-5.2,3.89-1.72,6-3.37,11.09-5.64,1.84-.82,5.44-2.43,7.37-3.33,1.23-.57,5.26-2.34,6.51-2.9,1.01-.46,2.72-1.34,3.76-1.74,2.02-.78,5.51-2.92,7.54-3.63,3.9-1.37,10.67-4.55,11.39-4.88.27-.12,4.76-1.82,5.03-1.92,2.97-1.14,4.08-2.02,7.06-3.21,2.98-1.19,5.12-1.68,8.14-2.81,3.14-1.18,6.36-2.22,6.36-2.22,2.37-.71,3.55-1.07,5.92-1.78,1.52-.53,4.99-1.61,6.51-2.07,6.09-1.86,3.08-1.15,9.09-3.2,1.5-.51,5.68-1.25,7.18-1.75,1.49-.51,3.77-1.43,5.26-1.91,2.98-.97,3.94-.42,6.86-1.37,2.76-.9,5.56-1.66,8.22-2.34,2.65-.68,6.92-2.08,9.42-2.51,5.01-.86,7.82-2.76,12.28-3.07,1.69-.37,2.53-.56,4.21-.93,2.46-.65,3.69-.98,6.15-1.63,2.44-.35,4.14-1.11,6.65-1.54,2.51-.43,4.74-1.26,7.29-1.79,5.1-1.06,8.41-2.03,13.56-3.2,2.58-.58,6.26-1.42,8.83-1.92,2.56-.5,5.61-1.34,8.15-1.76,5.08-.85,6.13-1.07,10.8-2.26,1.02-.26,5.12-.6,6.14-.86,2.42-.6,4.5-.42,6.79-1.61.99-.52,3.19-.33,5.74-1.12,1.67-.52,3.53-.64,4.73-.72,1.2-.08,2.35-.38,4.99-.66,2.4-.26,4.21-.37,6.77-.93,2.22-.49,3.95-.64,6.28-.72,2.1-.07,2.01-.45,4.04-.58.22-.01.19-.15.4-.19.1-.02.46.06.55,0,.55-.27.74-.35,3.94-.29.55.01,1.73-.29,2.1-.38,3.61-.88,6.99-1.53,10.73-2.06,1.51-.22,3.2-.23,4.82-.4,1.09-.11,2.3-.31,3.3-.43,5.97-.72,8.35-.49,16.67-1.93,1.36-.24,6.14,2.85,7.79,1.71.3-.21.07-.8.36-1.02,4.53-3.47,11.62-3,17.02-4.36,1.27-.32,3.1-.29,4.66-.4,2.17-.15,4.47-.07,6.46-.45,8.76-1.67,16.85-2.64,25.63-3.8,5.38-.71,11.47-.07,16.78-.93,1.39-.22,3.33-.26,4.43-.08,1.42.23,2.26.75,3.78,1.31,2.84-.45,5.51.19,8.6-.29-.04-.16-.06-.23-.1-.39-2.19.15-3.95-.82-6.3-.66,1.3-1.95,6.71-1.31,10.28-2.31,2.3-.64,4.36-.17,7.12-.64,1.14-.19,1.24-.58,5.8-.23,3.78-1.08,4.91-1.82,9.45-1.25,2.01-.63,4.06-.35,5.8-.91.66-.21,2.31-.26,3.02-.4,5.92-1.13,11.92-2.2,18.01-3.16,3.11-.49,5.15.18,4.56,1.31-.23.44-.96.88-1.42,1.28-2.4.18-4.01-.71-6.37.19-1.43.54-2.42.15-3.63.06-2.31-.17-4.7-.17-7.36.62,1.78.35,5.35,2.3,4.77,3.34,2.02-.25,2.4-2.19,4.94-2.5-.13.55,1.19,2.75,1.07,3.24.3-.02.6-.02.9-.04,3.9-.25,5.1-2.23,8.62-2.51.89-.19,2.05-1.05,2.97-1.2-.61-.39-2.04-.66-1.85-1.15.31-.8.8-1.6,1.18-2.34.82-.18,1.35-.37,1.81-.38,4.56-.13,8.56.06,13.08-.39,2.71-.27,4.09-.44,6.78-.68,2.24-.2,4.52-.35,6.79-.46,3.01-.15,6.01-.22,9.02-.33,7.43-.27,14.46-1.46,21.9-1.83,2.96-.15,5.16.25,7.98-.23,4.55-.78,6.17-1.34,10.33-.94.9.09,7.37.28,8.98.06,4.67-.64,8.3-.47,14.36-.81,1.64-.09,3.41-.15,4.89-.4,3.1-.52,6.07-.53,8.89-.26,3.79.36,7.58.14,11.34-.38,4.37-.61,8.01-.69,12.47-.44,3.32.18,6.87.46,10.5-.12.71-.11,1.72-.12,2.44-.06,5.73.53,11.12.18,16.88-.77,2.3-.38,5.72.1,9.26.22.47-.37,1.07-.84,1.87-1.47,1.77-.14,3.56-.26,5.36-.34,1.79-.07,3.62-.09,5.47-.09,3.7,0,7.54.13,11.63.38-4.49.92-9.24.47-12.57,1.52,3.43-.05,6.58.41,10.2-.19,1.73-.29,1.72-.29,3.89-.26,1.29.01,2.58.02,4.6.04-1.56-3.68-.42-2.66.62-.21.59-.14-1.25-2.5-.53-2.57,1.04-.11,2.38-.24,3.23-.12,5.25.73,10.62.16,16.03-.07,3.73-.16,4.22.63,8.03.62,2.65-1.6.52-.14,4.57-.6,1.12-.13,3.75-.58,4.21-.24,1.08.79,1.15-1.43,1.87-.59.95,1.13,2.17,1.45,5.82,1.4,2.48-.04,4.96-.22,7.44-.24,3.02-.04,6.12-.09,9.05.07,3.03.16,5.9.3,8.95-.04,1.02-.11,2.24-.14,3.29-.08,5.05.27,9.98.39,14.88.01,6.03-.46,6.59-.34,12.34-.51,2.47-.07,9.01-.32,12.67-.39,8.04-.17,7.92-.56,15.72.12,1.88.16,6.5-.14,8.21-.16.77,0,2.11-.18,3.08-.11.62.04,2.05.26,2.78.25,1.14-.01,1.16-.04,2.41-.25,2.05-.34,4.78-.23,6.87-.06,1.6.13,17.6.21,18.81-.06,2.63-.59,4.89-.37,8.22-.48,5.87-.18,10.15.23,15.6-.14,2.03-.14,4.95-.31,6.93.06,1.13.21,3,.05,3.62.24,5.08.14,6.71-.62,9.75-.36,1.27.11,2.75-.45,3.35-.01,8.57.14,12.74.46,21.26.13,4.92-.19,11.19.49,16.14.93,1.58.14,12.29-.19,15.15-.26,5.81-.13,10.45,0,16.48-.44,4.2-.31,11.58.48,15.87.32,6.23-.24,8.42-.65,14.62-.39,1.24.05,2.88-.07,3.98-.3,3.17-.69,6.76-.19,10.57-.02.96.04,1.97.19,3.19,0,.97-.16,2.53-.39,3.07-.26,3.67.9,8.54.22,12.38.86,3.02.5,6.34.33,9.62.17,4.86-.24,9.71-.56,14.59-.71,4.36-.14,8.2,1.02,10.86-.57,3.16.69,5.83,1.28,8.5,1.88.8-.09,1.19-.13,1.99-.22.05-.13.09-.24.14-.37.24.03.47.06.71.08.11.06.21.1.32.16.21-.02.32-.03.53-.06.01.13.02.2.03.34,2.33,1.23,3.74,2.65,8.57,3.58.4.08.87.26.77.36-1.62,1.55,3.5,7.29.89,8.96-1.33.85-.39,1.91-1.86,2.86-.67.44.55,1.08.95,1.63.5.69,1.7,1.4,1.43,2.07-.65,1.6.06,3.17,1.51,4.72,1.69,1.81,1.03,3.6.2,5.38ZM1236.29,592.23s.77,1.87.39,2.06c-1.15.56-2.37.46-3.52,1.06,1.37-.4,2.05-.6,3.43-1.01-1.35.62-2.73.5-4.23,1.07.27-.02.54-.04.81-.06.01,0,.02.01.03.02,1.55-.79,3.1-3.13,3.1-3.13ZM2217.52,247.58c.44-.02.86-.04,1.27-.06,3.46-.29,6.92-.6,10.37-.92-3.32-.13-6.67.16-9.99.51-.56.06-1.06.24-1.66.47ZM2058.8,256.73c.4.32,1.33-.03,1.73.29.49-.08.74-.13,1.23-.21-.47-.4-1.23.07-1.7-.33l-1.26.26ZM2017.81,265.38c.09.09.16.17.23.24.43-.06.87-.11,1.3-.17-.07-.09-.15-.19-.24-.31-.51.1-.77.14-1.29.24ZM1961.17,270.78s0,.06.03.07c.19.11.43-.06.65-.09,4.15-.55,10.94,3.34,10.76-.89,0-.18-.33-.02-.43,0-4.05.87-9.16-3.22-11,.9ZM1930.16,273.16c-.22,0-1.5.15-1.43.39.1.35,1.8.13,1.84-.24.02-.15-.28-.16-.41-.16ZM2691.44,238.84c-4.02-.28-7.84.15-11.75.46-.17.61-.36,1.06-.37,1.51,0,.15.43.29.66.43,2.13-.03,3.73-.04,4.95-.04,3.2,0,4.86-.07,8.1-.1.26-.15.53-.29.75-.44,1.37-.94.5-1.63-2.34-1.82Z"/>
  <path class="b" d="M2072.23,268.63c-2.13,0-3.85-1.73-3.85-3.85V31.67c0-2.13,1.73-3.85,3.85-3.85s3.85,1.73,3.85,3.85v233.11c0,2.13-1.73,3.85-3.85,3.85Z"/>
  <path class="b" d="M1997.59,68.77c10.53,2.52,10.07,10.05,18.15,14.55,13.56,7.56,18.19-1.89,27.85-8.27,8.1-5.35,16.66-7.76,25.97-5.15v-36.24c-13.58-2.34-29.56-.25-39.04,10.57-1.6,1.83-5.98,9.93-6.65,10.16-4.24,1.49-14.74-3.22-20.4-3.65-18.74-1.42-36.85,6.66-49.09,20.58l28.51-3.72c4.39-.13,10.49.15,14.71,1.16Z"/>
</svg>