<?xml version="1.0" encoding="UTF-8"?>
<svg id="a" data-name="Layer 1" xmlns="http://www.w3.org/2000/svg" width="2587.51" height="182.77" viewBox="0 0 2587.51 182.77">
  <defs>
    <style>
      .b {
        fill: #fefefe;
        stroke: #fff;
        stroke-miterlimit: 10;
        stroke-width: 5px;
      }
    </style>
  </defs>
  <g>
    <path class="b" d="M108.39,180.27c-12.47.01-24.89-1.62-36.94-4.87-21.53-5.64-40.53-18.35-53.96-36.1-9.73-12.67-14.49-27.18-14.96-45.66-.21-7.2.5-14.4,2.1-21.42,3.38-13.63,10.35-26.11,20.17-36.14,6.71-7.46,14.58-13.79,23.32-18.72,12.67-6.81,26.46-11.29,40.71-13.25,18.52-2.89,37.44-1.84,55.53,3.08,15.66,4.29,30.14,12.08,42.34,22.79,3.49,2.94,6.51,6.39,8.95,10.24,1.76,2.42,1.27,5.81-1.11,7.63-3.21,1.82-7.26,1.05-9.59-1.81-.79-.9-1.58-1.79-2.39-2.68-.89-1-1.78-1.98-2.66-3-5.86-6.8-13.85-12.06-25.9-17.08-8.58-3.49-17.55-5.93-26.71-7.25-9.63-1.73-19.46-1.96-29.16-.66-1.47.23-2.96.35-4.46.48-1.54.13-3,.25-4.38.5-4.25.72-8.39,1.64-12.62,2.59-.72.18-1.43.4-2.12.66-.99.37-1.99.67-3.02.92-13.37,2.95-24.89,9.74-36.26,21.4-3.17,3.46-5.85,7.32-7.99,11.49-8.64,15.47-11.68,33.44-8.61,50.88,1.01,8.93,3.51,17.63,7.4,25.73,3.48,6.63,8.26,12.49,14.05,17.24,14.13,11.51,31.33,18.63,49.46,20.49,4.88.56,9.85.87,14.07,1.1,10.37.31,20.71-1.14,30.59-4.29,2-.57,4.04-1.08,6.07-1.59,3.05-.75,5.92-1.48,8.74-2.41,7.64-2.64,14.5-7.13,19.99-13.07,1.42-1.45,2.85-2.88,4.27-4.31,4.08-4.09,8.3-8.32,12.07-12.74,3.27-3.83,8.64-6.09,12.57-3,.48.37.91.8,1.28,1.27,2.84,3.6,1.51,8.73-1.07,12.22-7.17,9.62-16.04,17.85-26.17,24.28-7.64,4.66-15.99,8.04-24.71,10.02-12.71,3.3-25.78,4.99-38.9,5.04Z"/>
    <path class="b" d="M344.83,180.24c-20,.02-39.77-4.35-57.9-12.8-20.33-9.41-34.99-23.29-43.58-41.26-4.04-8.83-6.29-18.38-6.61-28.09-.09-1.7-.07-3.36-.05-4.97,0-.69.02-1.38.02-2.08-.63-18.75,5.72-37.07,17.81-51.41,9.25-10.74,20.81-19.25,33.81-24.9,20.55-9.45,43.06-13.36,68.82-11.92,17.06.69,33.82,4.74,49.31,11.9,25.52,12.24,41.82,30.7,48.47,54.9,2.89,10.65,3.63,21.76,2.18,32.69-.8,8.48-2.59,16.83-5.34,24.89-1.47,3.83-3.61,7.37-6.33,10.44-1.03,1.21-2.05,2.43-3.06,3.65-3.71,4.69-7.77,9.09-12.16,13.15-7.09,6.49-15.47,11.41-24.59,14.43-2.5.85-4.96,1.84-7.35,2.96-2,.89-4.08,1.81-6.23,2.6-3.05,1.1-6.2,1.87-9.41,2.3-6.36.89-12.83,1.62-19.09,2.32l-2.39.27c-5.42.62-10.87.93-16.33.94ZM346.85,13.72c-12.93-.01-25.8,1.75-38.24,5.25-8.09,2.07-15.81,5.39-22.88,9.84-5.91,3.66-11.38,7.99-16.31,12.89-.63.66-1.27,1.32-1.92,2-3.57,3.24-6.55,7.08-8.8,11.34-4.8,11.45-10.24,24.43-8.36,37.97l.04.52v2.16c0,1.6.02,3.21-.02,4.81-.42,16.22,5.98,30.07,19.59,42.32,11.6,10.26,25.46,17.63,40.45,21.53,15.64,4.12,31.87,5.58,47.99,4.3,10.11-.34,20.07-2.5,29.41-6.38,2.65-1.21,5.38-2.22,8.01-3.2,1.98-.73,3.96-1.47,5.9-2.29,5.83-2.46,10.57-4.66,14.07-8.62.9-1.02,1.86-2,2.82-3,1.23-1.26,2.4-2.46,3.41-3.72,4.8-6,9.43-11.99,13.77-17.81.43-.73.76-1.52.97-2.34.17-.5.33-1,.52-1.5,2.17-6.57,3.5-13.39,3.95-20.29.17-1.57.34-3.15.53-4.71.12-.98.25-1.97.41-2.97.59-3,.76-6.06.51-9.1-1.86-14.08-7.92-27.26-17.4-37.84-4.22-5.03-8.97-9.58-14.17-13.58-5.33-3.56-11.02-6.53-16.99-8.87l-2.84-1.25c-3.19-1.5-6.52-2.68-9.94-3.55-11.31-2.57-22.87-3.89-34.48-3.92Z"/>
    <path class="b" d="M511.85,176.11c-1,0-1.99-.21-2.91-.63-3.02-1.57-4.85-4.76-4.65-8.16,0-5-.08-9.99-.17-14.99-.52-14.04-.17-28.09,1.05-42.08,1.17-13.14,1.63-26.32,1.39-39.51v-16.99c0-11.38,0-22.76,0-34.14v-.64c-.23-2.64.33-5.29,1.6-7.62,2.44-3.92,6.97-3.92,9.67-3.93l25.79-.04c31.23-.05,63.55-.11,95.33.13,11.39-.18,22.74,1.54,33.57,5.07,19.42,6.26,32.85,24.02,33.58,44.41.19,5.34-.04,10.69-.69,15.99-1.35,10.4-6.55,19.93-15.9,29.13-7.49,7.36-17.35,11.81-27.83,12.58-8.44.69-15.36,1.02-21.79,1.04-25.04.07-50.09.09-75.13.07h-39.64c-1.17-.14-2.36,0-3.47.39-.48.45-.46,1.54-.37,3.28.03.65.07,1.29.06,1.91,0,1.38,0,2.75.02,4.14.02,2.4.04,4.8-.04,7.19-.06,1.86-.1,3.72-.14,5.59-.1,4.8-.21,9.77-.75,14.69-.06,1.78.07,3.56.39,5.31.69,5.05,1.55,11.33-3.12,15.4-1.59,1.49-3.67,2.35-5.85,2.42ZM521.53,104.57c1.09.08,2.19.09,3.29.03.59-.07,1.19-.08,1.79-.04h19.16c28.67.02,58.32.04,87.47-.05,4.42-.02,8.99-.38,13.4-.75,1.81-.15,3.63-.29,5.45-.42,9.24-.63,16.51-5.41,22.98-10.48.82-.74,1.52-1.61,2.06-2.57,2.66-4.31,4.78-7.9,6.66-11.31,1.1-2.07,2.07-4.2,2.92-6.39,3.16-7.91,3.93-16.57,2.22-24.92-2.34-12.64-8.9-20.51-20.63-24.73-8.31-2.83-17.04-4.25-25.82-4.2-4.61-.08-9.37.15-13.97.37-3.8.18-7.72.37-11.62.4-3.42.04-6.87-.19-10.19-.4-2.95-.18-6-.37-8.96-.38-17.89-.08-35.77-.06-53.66-.04h-13.42c-5.93,0-7.87.53-8.08,2.18-.41,4.12-.5,8.27-.27,12.41l.07,2.42c.11,4.95-.14,9.91-.39,14.71-.17,3.29-.34,6.7-.39,10.01-.17,11.41-.19,23.02-.21,34.25v6.38c-.01,1.14.08,2.28.17,3.41v.1Z"/>
    <path class="b" d="M758.12,176.11c-1,0-1.99-.21-2.91-.63-3.02-1.57-4.85-4.76-4.65-8.16,0-5-.08-9.99-.17-14.99-.52-14.04-.17-28.09,1.05-42.08,1.17-13.14,1.63-26.32,1.39-39.51v-16.99c0-11.38,0-22.76,0-34.14v-.64c-.23-2.64.33-5.29,1.6-7.62,2.44-3.92,6.97-3.92,9.67-3.93l25.79-.04c31.23-.05,63.55-.11,95.33.13,11.39-.18,22.74,1.54,33.57,5.07,19.42,6.26,32.85,24.02,33.58,44.41.19,5.34-.04,10.69-.69,15.99-1.35,10.4-6.55,19.93-15.9,29.13-7.49,7.36-17.35,11.81-27.83,12.58-8.44.69-15.36,1.02-21.79,1.04-25.04.07-50.09.09-75.13.07h-39.64c-1.17-.14-2.36,0-3.47.39-.48.45-.46,1.54-.37,3.28.03.65.07,1.29.06,1.91,0,1.38,0,2.75.02,4.14.02,2.4.04,4.8-.04,7.19-.06,1.86-.1,3.72-.14,5.59-.1,4.8-.21,9.77-.75,14.69-.06,1.78.07,3.56.39,5.31.69,5.05,1.55,11.33-3.12,15.4-1.59,1.49-3.67,2.35-5.85,2.42ZM767.8,104.57c1.09.08,2.19.09,3.29.03.59-.07,1.19-.08,1.79-.04h19.16c28.67.02,58.32.04,87.47-.05,4.42-.02,8.99-.38,13.4-.75,1.81-.15,3.63-.29,5.45-.42,9.24-.63,16.51-5.41,22.98-10.48.82-.74,1.52-1.61,2.06-2.57,2.66-4.31,4.78-7.9,6.66-11.31,1.1-2.07,2.07-4.2,2.92-6.39,3.16-7.91,3.93-16.57,2.22-24.92-2.34-12.64-8.9-20.51-20.63-24.73-8.31-2.83-17.04-4.25-25.82-4.2-4.61-.08-9.37.15-13.97.37-3.8.18-7.72.37-11.62.4-3.42.04-6.87-.19-10.19-.4-2.95-.18-6-.37-8.96-.38-17.89-.08-35.77-.06-53.66-.04h-13.42c-5.93,0-7.87.53-8.08,2.18-.41,4.12-.5,8.27-.27,12.41l.07,2.42c.11,4.95-.14,9.91-.39,14.71-.17,3.29-.34,6.7-.39,10.01-.17,11.41-.19,23.02-.21,34.25v6.38c-.01,1.14.08,2.28.17,3.41v.1Z"/>
    <path class="b" d="M1053.31,176.45h-.16c-2.89,0-5.76-.22-8.53-.42-2.43-.18-4.73-.35-7.05-.39-5.02-.09-10.05-.1-15.07-.11-4.36,0-8.71-.01-13.07-.07-8.2-.11-11.38-3.09-11.74-10.99-.25-5.48-.26-11.03-.29-16.39l-.02-4.93c-.02-2.31.02-4.62.06-6.93l.18-13.82,1.11-86.82c-.02-1.85-.15-3.7-.37-5.54-.56-5.5-1.2-11.73,2.25-17.01,3.58-5.5,8.7-5.6,12.44-5.68,4.94-.11,9.96-.1,14.8-.09h5.38c41.55-.05,83.1-.1,124.66-.15h.82c3.16,0,6.33,0,9.49.09,2.07.06,5.98.18,7.75,3.7.28.55.49,1.14.6,1.75.34,1.7-.17,3.47-1.37,4.72-1.85,1.69-4.38,2.41-6.85,1.97-8.04-.89-16.14-.94-24.19-.16-5.22.32-10.62.64-16.01.53l-11.82-.25c-15.33-.34-31.19-.7-46.77-.7-12.19-.07-24.55.33-36.52.65l-10.99.28c-.55.02-1.14,0-1.75,0-1.1-.11-2.21-.03-3.29.25-2.17,1.24-3.48,3.58-3.41,6.08.18,2.84.27,5.84.27,9.17,0,6.12-.33,12.24-.62,17.66l-.07,1.2c-.29,5.33-.58,10.83-.65,16.21,0,1-.11,2.22-.23,3.54-.23,2.58-.66,7.38.52,8.66.38.28.85.41,1.32.35h6.52c18.09,0,36.79,0,55.18-.15,13.62-.1,27-.43,39.43-.78,3.73-.1,7.54-.35,11.24-.58,2.4-.15,4.8-.31,7.2-.43,2.81-.14,5.7-.19,8.61-.16,2.87-.13,5.69.83,7.88,2.69,1.88,1.85,2.54,4.61,1.72,7.11-.81,2.11-2.8,3.54-5.07,3.6-2.98.2-5.96.41-8.94.63-9.06.66-18.43,1.34-27.71,1.43-14.86.14-30.77.12-46.41-1.07-9.83-.75-19.88-.74-29.61-.72-5.73.01-11.64.02-17.49-.13-2.62-.06-3.35.46-3.51.63-.46.8-.64,1.72-.52,2.63.07,3.68.16,7.36.25,11.04l.1,3.77c.16,6.13.31,12.26.42,18.38.1,5.85.11,11.7.12,17.55,0,3.9.02,7.8.05,11.7v.53c0,.98,0,3.29.5,3.59,2.19.49,4.46.56,6.68.23,1.18-.09,2.28-.16,3.18-.16h.02l28.44.03c18.54.02,37.08,0,55.61-.07,10.46-.04,21.13-.4,31.44-.75l3.14-.1c3.75-.12,7.51-.33,11.27-.54,3.6-.2,7.21-.4,10.81-.53,3.06-.37,6.14.5,8.56,2.4,1.06,1.09,1.6,2.58,1.48,4.1-.16,2.19-1.54,5.86-9.02,5.94-2.44.02-4.87.02-7.31,0-2.75,0-5.51-.02-8.26.02-26.15.35-52.3.73-78.44,1.13-2.72.04-5.44.18-8.16.32-3.33.16-6.79.33-10.24.33Z"/>
    <path class="b" d="M1417.77,178.05c-.21,0-.42-.01-.63-.04-2.75-.14-5.42-.91-7.83-2.23-2.25-1.43-4.57-2.78-6.89-4.12-5.82-3.11-11.29-6.84-16.31-11.13-1.33-1.15-2.74-2.21-4.21-3.16-1.83-1.18-3.57-2.5-5.2-3.95-9.86-8.62-20.42-16.4-31.58-23.26-6.05-3.95-12.3-8.04-18.26-12.38-1.94-1.39-4.28-2.1-6.67-2.01h-.04c-15.82.03-31.64.04-47.47.03h-30.5c-.65.04-1.54-.03-2.37-.07-1.69-.09-4.51-.25-5.2.48l-.07.08c-1.54,2.16-.7,6.59.03,10.49.4,1.89.68,3.8.83,5.73l.19,3.75c.35,6.67.71,13.56.85,20.38-.04,3.49-.42,6.97-1.13,10.38-.39,2.19-1.38,4.24-2.85,5.91-1.76,1.96-4.38,2.9-6.98,2.52-2.66-.4-4.94-2.11-6.07-4.55-.74-1.54-1.13-3.23-1.15-4.94.12-16.11.63-32.44,1.12-48.22.42-13.45.86-27.36,1.04-41.05.16-11.45.15-23.11.13-34.39v-15.99c.01-6.53.03-17.29,11.52-18.88,7.35-.79,14.75-.98,22.12-.57,3.96.11,7.7.22,11.38.14,3.68-.07,7.39-.23,11.08-.38,5.6-.25,11.39-.48,17.12-.43,22.44.22,42.39.64,61.02,1.27,8.88.07,17.71,1.17,26.33,3.29,12.07,3.31,20.57,8.14,26.72,15.19,2.95,3.25,5.45,6.87,7.45,10.76,7.61,14.86,7.99,32.39,1.02,47.57-6.12,14.05-17.64,23.41-34.23,27.82-9.19,2.5-18.68,3.73-28.2,3.67-3.45-.04-6.91-.04-10.35-.03l13.16,8.72c14.97,9.93,29.96,19.83,44.97,29.7,3.01,1.97,6.27,3.81,9.43,5.59,1.92,1.08,3.84,2.17,5.75,3.29,1.98,1.08,3.83,2.4,5.5,3.92,1.68,1.91,2.13,4.6,1.16,6.95-.97,2.35-3.2,3.93-5.73,4.09v.03ZM1283.45,18.61c-8.99,0-17.94.02-26.76.04l-18.16.03c-1.41,0-1.81.43-1.94.57-1.31,1.38-1.07,5.7-.94,8.29l.23,4.3c.28,4.97.57,10.11.54,15.24-.06,9.58-.43,19.28-.79,28.67l-.3,8.04c-.08,2.13-.25,4.25-.41,6.37-.14,1.69-.27,3.39-.36,5.09l-.06,1.14c-.15,2.61-.31,5.32.85,6.35.37.3.79.53,1.25.66,4.14,1.41,10.72,1.25,15.99,1.14,1.55-.03,3.15-.05,4.39-.07,6.84-.02,13.75-.2,20.47-.39,6.81-.2,13.77-.4,20.79-.4,10.35,0,20.85.29,31,.56,4.65.12,9.29.24,13.94.34,9.14.2,18.28-.45,27.3-1.93,10.17-1.66,19.27-6.5,29.52-15.66,1.42-1.32,2.53-2.94,3.25-4.75,2.77-6.3,4.54-13,5.23-19.85l.06-1c.38-3.68.26-7.4-.37-11.05-2.59-12.44-11.56-22.59-23.58-26.69-6.61-2.12-13.54-3.09-20.49-2.86-2.15-.04-4.29-.05-6.44-.07-4.19-.03-8.53-.06-12.83-.28-3.53-.18-7.08-.5-10.51-.78-4.93-.43-10.03-.87-14.97-.91-11.93-.11-23.96-.14-35.92-.14h0Z"/>
  </g>
  <g>
    <path class="b" d="M1772.82,178.16c-.21,0-.42-.01-.63-.03-2.75-.14-5.42-.91-7.83-2.23-2.25-1.43-4.57-2.78-6.89-4.12-5.82-3.11-11.29-6.84-16.31-11.13-1.33-1.15-2.74-2.21-4.21-3.16-1.83-1.18-3.57-2.5-5.2-3.95-9.86-8.62-20.42-16.4-31.58-23.26-6.05-3.95-12.3-8.04-18.26-12.38-1.94-1.39-4.28-2.1-6.67-2.01h-.04c-15.82.03-31.64.04-47.47.03h-30.5c-.65.04-1.54-.03-2.37-.07-1.69-.09-4.51-.25-5.2.48l-.07.08c-1.54,2.16-.7,6.59.03,10.49.4,1.89.68,3.8.83,5.73l.19,3.75c.35,6.67.71,13.56.85,20.38-.04,3.49-.42,6.97-1.13,10.38-.39,2.19-1.38,4.24-2.85,5.91-1.76,1.96-4.38,2.9-6.98,2.52-2.66-.4-4.94-2.11-6.07-4.55-.74-1.54-1.13-3.23-1.15-4.94.12-16.11.63-32.44,1.12-48.22.42-13.45.86-27.36,1.04-41.05.16-11.45.15-23.11.13-34.39v-15.99c.01-6.53.03-17.29,11.52-18.88,7.35-.79,14.75-.98,22.12-.57,3.96.11,7.7.22,11.38.14,3.68-.07,7.39-.23,11.08-.38,5.6-.25,11.39-.48,17.12-.43,22.44.22,42.39.64,61.02,1.27,8.87.07,17.71,1.17,26.33,3.29,12.07,3.31,20.57,8.14,26.72,15.19,2.95,3.25,5.45,6.87,7.45,10.76,7.61,14.86,7.99,32.39,1.02,47.57-6.12,14.05-17.64,23.41-34.23,27.82-9.19,2.5-18.68,3.73-28.2,3.67-3.45-.04-6.91-.04-10.35-.03l13.16,8.72c14.97,9.93,29.96,19.83,44.97,29.7,3.01,1.97,6.27,3.81,9.43,5.59,1.92,1.08,3.84,2.17,5.75,3.29,1.98,1.08,3.83,2.4,5.5,3.92,1.68,1.91,2.13,4.6,1.16,6.95-.97,2.35-3.2,3.93-5.73,4.09v.03ZM1638.51,18.71c-8.99,0-17.94.02-26.76.04l-18.16.03c-1.41,0-1.81.43-1.94.57-1.31,1.38-1.07,5.7-.94,8.29l.23,4.3c.28,4.97.57,10.11.54,15.24-.06,9.58-.43,19.28-.79,28.67l-.3,8.04c-.08,2.13-.25,4.25-.41,6.37-.14,1.69-.27,3.39-.36,5.09l-.06,1.14c-.15,2.61-.31,5.32.85,6.35.37.3.79.53,1.25.66,4.14,1.41,10.72,1.25,15.99,1.14,1.55-.03,3.15-.05,4.39-.07,6.84-.02,13.75-.2,20.47-.39,6.81-.2,13.77-.4,20.79-.4,10.35,0,20.85.29,31,.56,4.65.12,9.29.24,13.94.34,9.14.2,18.28-.45,27.3-1.93,10.17-1.66,19.27-6.5,29.52-15.66,1.42-1.32,2.53-2.94,3.25-4.75,2.77-6.3,4.54-13,5.23-19.85l.05-1c.38-3.68.26-7.4-.37-11.05-2.59-12.44-11.56-22.59-23.58-26.69-6.61-2.12-13.54-3.09-20.49-2.86-2.15-.04-4.29-.05-6.44-.07-4.19-.03-8.53-.06-12.83-.28-3.53-.18-7.08-.5-10.51-.78-4.93-.43-10.03-.87-14.97-.91-11.93-.11-23.96-.14-35.92-.14h0Z"/>
    <path class="b" d="M1834.17,176.5c-.38,0-.76-.03-1.14-.1-2.83-.55-5.13-2.6-6-5.35-.61-2.2-.88-4.47-.81-6.75v-47.77c.01-26.29,0-52.59-.02-78.89,0-3.48-.27-6.94-.55-10.59-.16-2.12-.32-4.25-.43-6.36-.03-.48-.07-.97-.12-1.45-.15-1.3-.2-2.62-.12-3.93.02-1.63.47-3.22,1.32-4.61.53-.77,1.2-1.43,1.98-1.94,1.76-1.14,3.96-1.35,5.9-.55,3.15,1.42,5.53,4.14,6.53,7.45.86,3.46,1.25,7.01,1.18,10.57,0,2.98-.25,5.93-.5,8.78-.1,1.16-.2,2.32-.29,3.48-.21,3-.45,6.02-.68,9.02-.52,6.75-1.06,13.74-1.39,20.57-.33,6.95-.23,13.87-.09,20.94.25,12.26.59,24.95,1.04,37.72.42,11.76.99,23.55,1.5,33.68l.07,1.12c.23,3.69.54,8.74-2,12.17-1.25,1.73-3.25,2.76-5.38,2.77Z"/>
    <path class="b" d="M1934.22,174.76c-8.08,0-16.17-.01-24.25-.03-3.04.25-6.07-.52-8.63-2.18-1.9-1.53-3.17-3.71-3.56-6.12-.64-3.13-.99-6.32-1.06-9.52-.25-10.56-.48-21.12-.68-31.68-.21-10.23-.42-20.47-.65-30.71-.11-4.47-.29-8.95-.48-13.43-.32-7.62-.65-15.51-.56-23.31.08-7.55.66-15.16,1.22-22.52.25-3.41.52-6.81.73-10.22.09-1.42.15-2.85.2-4.28.04-1.04.08-2.08.14-3.12.38-7.6,2.93-9.97,10.9-10.16l1.69-.04c4.96-.12,10.09-.21,15.17-.23,5.66.01,11.32.02,16.97.02,17.42,0,35.44.02,53.17.32,15.16.25,27.59.98,39.14,2.26,5.76.86,11.4,2.35,16.83,4.46,1.32.46,2.65.92,3.96,1.36,10.42,3.3,20.18,8.41,28.83,15.08,7.7,6.24,13.84,14.21,17.91,23.25,4.57,9.4,6.21,19.42,7.79,29.11l.48,2.95c2.7,16.66-1.25,33.72-11.01,47.5-5.71,8.81-12.68,16.73-20.7,23.51-4.45,3.86-9.71,6.68-15.38,8.24-3.28.86-6.62,1.95-9.84,3-2.36.77-4.73,1.53-7.11,2.23-8.38,2.46-17.06,3.75-25.79,3.85-18.49.21-37.29.26-55.46.31l-12.85.04c-5.7.02-11.4.02-17.11.02ZM1911.5,164.27c.96.1,1.93.12,2.9.04.41-.02.8-.04,1.16-.04,5.03-.1,10.06-.23,15.08-.36,8.6-.22,17.49-.44,26.26-.53,8.99-.09,17.99-.07,26.97-.05,7.4,0,14.8.03,22.2-.02h3.21c4.47.17,8.95-.1,13.37-.82,8.46-1.71,16.99-4.16,25.23-6.53l2.76-.79c6.07-1.54,11.58-4.77,15.88-9.33,1.8-1.98,3.57-4,5.34-6.01,2.43-2.77,4.94-5.63,7.52-8.38,12.43-12.87,18.71-30.47,17.26-48.3-.33-4.73-1.11-9.41-2.33-13.99-3.71-14.18-9.94-23.73-19.61-30.04-2.13-1.39-4.36-2.63-6.73-3.94l-2.28-1.27c-9.49-5.73-19.94-9.72-30.83-11.78-7.54-1.15-15.15-1.87-22.77-2.15-3.51-.16-7.01-.03-10.71.1-7.15.59-14.35.16-21.38-1.27h-14.99c-15.34-.01-30.69,0-46.04.03-5.93.02-6.3.52-6.67,2.23-.3,1.99-.32,4.02-.06,6.01.17,1.72.23,3.44.18,5.17-.23,4.75-.54,9.49-.86,14.24-.41,6.19-.83,12.59-1.05,18.85-.29,8.49-.11,17.17.08,25.56.21,9.24.41,18.8,0,28.27-.02.9,0,1.8.08,2.7l.06.93c.09,1.54.19,3.08.3,4.62.22,3.2.45,6.5.5,9.81.09,4.84.09,9.69.08,14.53,0,3,0,6.01.01,9.02,0,.53-.04,1.12-.08,1.73-.06.59-.08,1.18-.06,1.77h0Z"/>
    <path class="b" d="M2253.69,180.21c-.52,0-1.04,0-1.56-.01-21.34-.35-39.25-4.45-54.74-12.55-7.12-3.72-14.01-7.79-19.24-10.92-4.6-3.11-8.47-7.19-11.34-11.94l-1.09-1.55c-7.58-10.68-12.11-23.08-14.69-40.22-1.59-9.22-1.8-18.63-.64-27.92,2.25-15.44,9.56-29.7,20.8-40.53,13.55-13.2,30.38-22.55,48.75-27.06,18.24-4.76,37.2-6.11,55.93-3.97,12.4,1.25,24.51,3.45,35.75,5.66,12.37,2.56,23.76,8.56,32.87,17.31,3.74,3.46,6.94,7.45,9.49,11.86,2.9,4.95.9,7.7-1.28,9.14-2.62,1.71-6.07,1.42-8.37-.69-1.01-1.03-1.9-2.17-2.67-3.39-.54-.9-1.18-1.72-1.92-2.45-1.82-1.51-3.74-2.87-5.76-4.09-2.29-1.39-4.47-2.95-6.53-4.65-3.01-2.43-6.44-4.27-10.13-5.43-18.51-6.45-37.8-10.39-57.36-11.72-11.74-.64-23.51.58-34.87,3.6-5.15,1.42-10.17,3.26-15.03,5.5-1.2.52-2.4,1.03-3.61,1.54-5.54,2.07-10.81,4.81-15.69,8.16-15.24,11.44-23.97,24.79-26.65,40.81-.69,5.6-.77,11.26-.23,16.88l.07,1.14c.38,4.62,1.04,9.21,2,13.74l.2,1.07c2.77,13.82,9.11,26.66,18.4,37.26,4.77,5.71,11.74,9.44,18.47,13.05,12.34,6.3,25.87,9.96,39.7,10.74,1.8.07,3.6-.04,5.38-.33,1.88-.27,3.78-.41,5.68-.42,9.7.31,19.4-.47,28.93-2.31,4.05-.83,8.17-1.47,12.15-2.08,2.85-.44,5.7-.88,8.53-1.39,1.86-.37,3.68-.95,5.41-1.73,2.8-1.22,5.57-2.5,8.34-3.75,4.18-1.91,8.49-3.88,12.87-5.67,3.93-1.87,7.52-4.38,10.62-7.42l1.71-1.5c.26-.34.43-.75.49-1.18,0-9.97-.11-19.95-.23-29.92l-.09-7.29c0-.59.03-1.19.07-1.83.03-.47.08-1.22.07-1.76-.72,0-1.44.05-2.15.14-.52.06-1.02.11-1.46.13-1.87.1-3.75.25-5.6.4-2.88.23-5.85.46-8.83.53-14.38.33-28.77.63-43.15.89l-16.74.32c-1.08.02-2.16.08-3.25.14-2.65.21-5.31.2-7.96-.03-3.37-.1-6.49-1.83-8.36-4.64-.82-1.46-1.34-3.06-1.53-4.72-.45-1.73-.03-3.58,1.14-4.94,2.32-2.02,5.43-2.87,8.46-2.29.4.02.78.05,1.13.05l8.24.08c5.5.05,10.99.11,16.49.17,7.25.08,14.5.19,21.75.31,13.17.23,26.89.6,41.94,1.12,2.92-.12,5.82.48,8.44,1.75,4.19,2.47,4.21,7.81,4.22,10.38.03,6.16,0,12.32-.02,18.49-.03,7.2-.06,14.4,0,21.61.11,5.01-2.2,9.77-6.21,12.78-10.91,9.08-23.57,14.32-34.51,18.26-13.5,4.84-27.64,7.65-41.97,8.34-2.02.1-4.04.23-6.07.36-4.23.3-8.59.59-12.95.59Z"/>
    <path class="b" d="M2461.67,176.55h-.16c-2.89,0-5.76-.22-8.53-.42-2.43-.18-4.73-.35-7.05-.39-5.02-.09-10.05-.1-15.07-.11-4.36,0-8.71-.01-13.07-.07-8.2-.11-11.38-3.09-11.74-10.99-.25-5.48-.26-11.03-.29-16.39l-.02-4.93c-.02-2.31.02-4.62.06-6.93l.18-13.82,1.11-86.82c-.02-1.85-.15-3.7-.37-5.54-.56-5.5-1.2-11.73,2.25-17.01,3.58-5.5,8.7-5.6,12.44-5.68,4.94-.11,9.96-.1,14.8-.09h5.38c41.55-.05,83.1-.1,124.66-.15h.82c3.16,0,6.33,0,9.49.09,2.07.07,5.98.18,7.75,3.7.28.55.49,1.14.6,1.75.34,1.7-.17,3.47-1.37,4.72-1.85,1.69-4.38,2.41-6.85,1.97-8.04-.89-16.14-.94-24.19-.16-5.22.32-10.62.64-16.01.53l-11.82-.25c-15.33-.34-31.19-.7-46.77-.7-12.19-.07-24.55.33-36.52.65l-10.99.28c-.55.02-1.14,0-1.75,0-1.1-.11-2.21-.03-3.29.25-2.17,1.24-3.48,3.58-3.41,6.08.18,2.84.27,5.84.27,9.17,0,6.12-.33,12.24-.62,17.66l-.06,1.2c-.29,5.33-.58,10.83-.65,16.21,0,1-.11,2.22-.23,3.54-.23,2.58-.66,7.38.52,8.66.38.28.85.41,1.32.35h6.52c18.09,0,36.79,0,55.18-.15,13.62-.1,27-.43,39.43-.78,3.73-.1,7.54-.35,11.24-.58,2.4-.15,4.8-.31,7.2-.43,2.81-.14,5.7-.19,8.61-.16,2.87-.13,5.69.83,7.88,2.69,1.88,1.85,2.54,4.61,1.72,7.11-.81,2.11-2.8,3.54-5.07,3.6-2.98.2-5.96.41-8.94.63-9.06.66-18.43,1.34-27.71,1.43-14.86.14-30.77.12-46.41-1.07-9.83-.75-19.88-.74-29.61-.72-5.73.01-11.64.02-17.49-.13-2.62-.05-3.35.46-3.51.63-.46.8-.64,1.72-.52,2.63.07,3.68.16,7.36.25,11.04l.1,3.77c.16,6.13.31,12.26.42,18.38.1,5.85.11,11.7.12,17.55,0,3.9.02,7.8.05,11.7v.53c0,.98,0,3.29.5,3.59,2.19.49,4.46.56,6.68.23,1.18-.09,2.28-.16,3.18-.16h.02l28.44.03c18.54.02,37.08,0,55.61-.07,10.46-.04,21.13-.4,31.44-.75l3.14-.1c3.75-.12,7.51-.33,11.27-.54,3.6-.2,7.21-.4,10.81-.53,3.06-.37,6.14.5,8.56,2.4,1.06,1.09,1.6,2.58,1.48,4.1-.16,2.19-1.54,5.86-9.02,5.94-2.44.02-4.87.02-7.31,0-2.75,0-5.51-.02-8.26.02-26.15.35-52.3.73-78.44,1.13-2.72.04-5.44.18-8.16.32-3.33.16-6.79.33-10.24.33Z"/>
  </g>
</svg>