<?xml version="1.0" encoding="UTF-8"?>
<svg id="a" data-name="Layer_1" xmlns="http://www.w3.org/2000/svg" width="2660.85" height="3561.04" viewBox="0 0 2660.85 3561.04">
  <defs>
    <style>
      .b {
        fill: #8ba1ff;
      }
    </style>
  </defs>
  <path class="b" d="M2018.02,0c39.14,18.84,82.08,32.43,116.69,57.52,92.77,67.25,126.81,190.29,91.52,309.07-32.69,110.03-133.88,197.56-243.74,203.01-98.24,4.87-196.83,2.73-295.27,3.65-13.7.13-27.41.02-43.22.02v694.43h129.15c0-84.11-.8-166.04.41-247.94.46-31.03,1.62-63,9.25-92.81,26.92-105.12,122.32-179.89,230.85-182.52,39.21-.95,79.71-3.56,117.54,4.45,97.74,20.7,155,107.82,144.12,210.57-9.93,93.81-93.89,170.06-191.77,173.32-32.18,1.07-64.42.17-98.73.17v134.49c12.1,1.99,23.42,3.47,34.58,5.74,42.67,8.71,78.19,45.69,81.07,88.58,2.4,35.77.83,71.82.79,107.74-.01,9.07-.9,18.15-1.5,29.37H972.57c0-48.28-4.09-95.72,1.13-142.11,5.39-47.93,39.79-78.03,88.31-84.2,22.04-2.81,29.82-10.21,28.75-32.41-1.65-34.44-.44-69.02-.44-107.2-35.99,0-68.16.82-100.27-.15-99.74-3.01-184.1-80.98-194.65-179.14-10.08-93.71,47.81-185.44,141.57-202.9,157.86-29.39,300,6.39,353.15,178.57,9.66,31.31,9.71,66.24,10.3,99.57,1.4,78.67.45,157.37.45,238.56h130.91c0-14.42,0-27.81,0-41.21,0-273.51-.48-547.02.18-820.53.44-186.5,99.2-328.81,266.27-385.88C1721,12.02,1744.54,6.54,1767.73,0c83.43,0,166.86,0,250.29,0Z"/>
  <path class="b" d="M2268.44,1707.14v275.49c74.67,10.97,143.8,32.51,204.26,76.09,113.9,82.1,178.64,192.23,185.33,333.54,4.5,94.93,8.86,190.58-31.53,280.38-67.44,149.93-182.38,238.21-345.52,262.6-3.25.49-6.37,1.85-13.06,3.86,0,25.83,0,52.24,0,78.64-.02,46.37.68,92.75-.28,139.09-1.06,50.97-11.36,60.52-60.88,60.52-448.41,0-896.82-.54-1345.22.97-38.56.13-52.23-15.2-55.26-48.71-1.25-13.82-2.12-27.73-2.12-41.59-.11-459.03.29-918.05-.85-1377.08-.08-34.29,7.27-44.79,43.53-44.69,459.99,1.36,919.99.89,1379.98.89,12.5,0,25,0,41.61,0ZM2268.9,2721.37c79.08-7.39,155.81-74.23,172.48-159.08,9.66-49.18,7.95-100.97,7.95-151.58,0-89.44-55.24-169.18-137.76-202.32-12.95-5.2-27.05-7.53-42.67-11.75v524.73Z"/>
  <path class="b" d="M615.05,3256.78c-2.37,173.56-140.28,306.3-316.1,304.24C133.24,3559.07-2.37,3417.93.03,3249.89c2.43-169.67,141.54-307.19,309.21-305.67,170.33,1.54,308.13,142.39,305.81,312.56Z"/>
  <path class="b" d="M2099.22,3425.71c7.47,88.52-34.17,134.9-119.01,134.93-297.56.12-595.12.18-892.67-.06-80.15-.07-127.41-55.57-113.67-134.87h1125.36Z"/>
</svg>