<?xml version="1.0" encoding="UTF-8"?>
<svg id="a" data-name="Layer 1" xmlns="http://www.w3.org/2000/svg" width="298.43" height="298.43" viewBox="0 0 298.43 298.43">
  <defs>
    <style>
      .b {
        fill: #14ab5b;
      }
    </style>
  </defs>
  <path class="b" d="M149.21,0C66.8,0,0,66.8,0,149.21s66.8,149.21,149.21,149.21,149.21-66.8,149.21-149.21C298.34,66.84,231.58.09,149.21,0ZM149.21,275.47c-69.73,0-126.26-56.53-126.26-126.26S79.48,22.96,149.21,22.96s126.26,56.53,126.26,126.26c-.08,69.7-56.56,126.18-126.26,126.26ZM241.04,149.21c0,6.34-5.14,11.48-11.48,11.48h-80.35c-6.34,0-11.48-5.14-11.48-11.48v-80.35c0-6.34,5.14-11.48,11.48-11.48s11.48,5.14,11.48,11.48v68.87h68.87c6.34,0,11.48,5.14,11.48,11.48Z"/>
</svg>