<?xml version="1.0" encoding="UTF-8"?>
<svg id="a" data-name="Layer_1" xmlns="http://www.w3.org/2000/svg" width="2968.98" height="3562.17" viewBox="0 0 2968.98 3562.17">
  <defs>
    <style>
      .b {
        fill: #ff7f46;
      }
    </style>
  </defs>
  <path class="b" d="M1518.77,0c71.68,27.46,111.84,77.54,116.46,156,2.15,36.48,28.15,55.32,60.24,69.02,285.95,122.04,571.55,244.91,857.44,367.09,43.48,18.58,83.47,40.16,104.58,85.73,36.81,79.48,3.33,165.89-82.1,203.58-119.46,52.71-239.88,103.23-359.91,154.65-167.84,71.89-335.53,144.13-503.64,215.37-53.17,22.53-78.94,61.07-78.92,118.46.14,454.39-.12,908.78.28,1363.17.06,63.45,29.18,88.5,96.36,91.34,298.93,12.63,595.92,41.57,884.22,126.22,81.44,23.91,159.44,60.77,236.96,96.2,29.65,13.55,56.37,36.97,79.45,60.73,51.23,52.75,52.76,116.34-1.66,165.51-40.53,36.63-87.96,68.41-137.27,92.01-138.65,66.35-287.87,99.57-438.38,126.17-396.73,70.14-796.73,83.17-1197.93,61.12-272.92-15-544.77-44.04-807.43-124.79-84.37-25.94-164.51-66.3-245.27-102.96-22.45-10.19-41.89-29.05-59.77-46.88-56.93-56.8-56.64-119.56.89-176.62,62.53-62.01,142.46-94.29,223.2-123.01,176.3-62.72,359.56-94.99,544.5-118.7,49.34-6.33,98.86-11.7,148.46-15.58,51.45-4.03,78.74,21.73,79.13,72.96.51,67.23-1.18,134.5.67,201.68,1.99,72.54,55.54,133.14,123.28,143.53,72.72,11.16,142.22-29.18,163.38-98.99,7.87-25.96,8.71-54.77,8.72-82.28.41-967.9.5-1935.8-.03-2903.69-.03-58.55,10.25-111.12,60.52-147.41C1411.71,17.69,1431.13,9.76,1449.23,0c23.18,0,46.36,0,69.55,0Z"/>
</svg>