<?xml version="1.0" encoding="UTF-8"?>
<svg id="a" data-name="Layer_1" xmlns="http://www.w3.org/2000/svg" width="476.97" height="476.97" viewBox="0 0 476.97 476.97">
  <defs>
    <style>
      .b {
        fill: #feeb2c;
      }
    </style>
  </defs>
  <path class="b" d="M214.64,55.65v-31.8c0-13.17,10.68-23.85,23.85-23.85s23.85,10.68,23.85,23.85v31.8c0,13.17-10.68,23.85-23.85,23.85s-23.85-10.68-23.85-23.85ZM373.63,238.49c0,74.64-60.51,135.14-135.14,135.14s-135.14-60.51-135.14-135.14,60.51-135.14,135.14-135.14c74.61.08,135.07,60.54,135.14,135.14ZM86.47,120.22c9.33,9.33,24.46,9.33,33.79,0,9.33-9.33,9.33-24.46,0-33.79l-23.85-23.85c-9.33-9.33-24.46-9.33-33.79,0s-9.33,24.46,0,33.79l23.85,23.85ZM86.47,356.72l-23.85,23.85c-9.33,9.33-9.33,24.46,0,33.79s24.46,9.33,33.79,0l23.85-23.85c9.33-9.33,9.33-24.46,0-33.79-9.33-9.33-24.46-9.33-33.79,0ZM373.63,127.19c6.33,0,12.4-2.5,16.87-6.98l23.85-23.85c9.33-9.33,9.33-24.46,0-33.79-9.33-9.33-24.46-9.33-33.79,0l-23.85,23.85c-9.34,9.29-9.38,24.39-.1,33.73,4.5,4.53,10.63,7.06,17.01,7.03ZM390.5,356.76c-9.33-9.33-24.46-9.33-33.79,0-9.33,9.33-9.33,24.46,0,33.79h0l23.85,23.85c9.33,9.33,24.46,9.33,33.79,0,9.33-9.33,9.33-24.46,0-33.79l-23.85-23.85ZM79.5,238.49c0-13.17-10.68-23.85-23.85-23.85h-31.8c-13.17,0-23.85,10.68-23.85,23.85s10.68,23.85,23.85,23.85h31.8c13.17,0,23.85-10.68,23.85-23.85ZM238.49,397.48c-13.17,0-23.85,10.68-23.85,23.85v31.8c0,13.17,10.68,23.85,23.85,23.85s23.85-10.68,23.85-23.85v-31.8c0-13.17-10.68-23.85-23.85-23.85ZM453.12,214.64h-31.8c-13.17,0-23.85,10.68-23.85,23.85s10.68,23.85,23.85,23.85h31.8c13.17,0,23.85-10.68,23.85-23.85s-10.68-23.85-23.85-23.85Z"/>
</svg>