<?xml version="1.0" encoding="UTF-8"?>
<svg id="a" data-name="Layer 1" xmlns="http://www.w3.org/2000/svg" width="22.01" height="24.02" viewBox="0 0 22.01 24.02">
  <defs>
    <style>
      .b {
        fill: #00a95a;
      }
    </style>
  </defs>
  <path class="b" d="M21.85,22.46l-7.83-12.3L21.75,1.67c.37-.41.33-1.05-.08-1.41-.41-.36-1.03-.33-1.4.07l-7.35,8.09L7.85.46C7.67.18,7.35,0,7.01,0H1.01C.46,0,0,.45,0,1c0,.19.05.38.16.54l7.82,12.3L.27,22.33c-.38.4-.35,1.04.05,1.41.4.38,1.04.35,1.41-.05,0,0,.01-.01.02-.02l7.35-8.09,5.06,7.95c.18.29.5.46.84.46h6c.55,0,1-.45,1-1,0-.19-.05-.38-.16-.54ZM15.56,22L2.83,2h3.62l12.73,20h-3.63Z"/>
</svg>