<?xml version="1.0" encoding="UTF-8"?>
<svg id="a" data-name="Layer_1" xmlns="http://www.w3.org/2000/svg" width="879.76" height="824.57" viewBox="0 0 879.76 824.57">
  <defs>
    <style>
      .b {
        fill: #0dab5b;
      }
    </style>
  </defs>
  <g>
    <path class="b" d="M0,490c0-9.73,0-19.46,0-29.2.62-1.5,1.47-2.96,1.82-4.52,6.83-30.13,23.27-53.47,50.77-67.6,9.26-4.76,9.67-10.15,9.03-18.8-2.58-35.05-5.91-70.14-6.11-105.23-.19-33.82,8.4-66.36,25.9-95.72,35.44-59.45,90.59-87.31,157.13-95.99,7.33-.96,13.42-2.68,19.43-7.38C309.62,25.11,367.79,1.63,433.89.12c45.41-1.04,90.09,5.01,134.09,16.05,61.34,15.39,118.78,39.24,168.06,79.87,58.36,48.11,90,109.4,88.12,185.91-.71,29.11-3.77,58.17-6.36,87.21-.82,9.22-.05,14.78,9.82,19.96,35.94,18.83,56.73,58.9,51.26,98-6.02,43.07-29.91,73.22-72.03,84.59-16.58,4.48-23.29,12.2-29.32,26.94-78.87,192.62-306.7,280.49-494.05,190.51-89.64-43.05-151.93-111.86-187.59-204.73-1.54-4.02-2.18-7.93-8.5-8.94-41.15-6.57-68.93-29.72-82.8-69.16-1.87-5.32-3.09-10.87-4.61-16.31ZM307.15,279.95c-8.38,10.79-16.2,22.52-25.66,32.71-28.7,30.91-64.84,50.13-104.16,63.92-5.01,1.76-8.85,3.5-10.52,9.53-10.73,38.77-21.94,77.41-32.85,116.14-.81,2.88-1.15,6.18-.64,9.1,29.25,168.99,193.31,285.59,360.57,252.64,131.64-25.93,214.13-107.36,249.29-236.72,3.09-11.35,3.79-22.42.13-34.26-10.2-32.97-19.46-66.24-28.57-99.53-1.83-6.7-4.56-8.78-11.55-8.93-70.7-1.54-141.07-6.68-210.34-21.85-51.56-11.29-101.63-26.92-146.79-55.16-13.73-8.58-26.48-18.73-38.89-27.6Z"/>
    <path class="b" d="M439.05,696.21c-41.04-.91-77.47-14.26-108.02-42.48-12.63-11.66-13.88-28.81-3.28-40.4,10.57-11.55,27.49-11.64,40.6-.21,42.81,37.32,99.73,37.35,142.6.07,13.21-11.49,29.97-11.47,40.59.06,10.82,11.74,9.36,28.97-3.75,41.01-30.65,28.14-67.16,41.23-108.75,41.95Z"/>
  </g>
  <g>
    <path class="b" d="M259.22,499.27c-5.64,0-11.31-1.9-15.99-5.79-10.61-8.84-12.04-24.6-3.21-35.21,15.74-18.89,42.89-30.87,70.86-31.25,27.8-.39,52.57,10.12,69.71,29.58,9.13,10.36,8.13,26.16-2.23,35.29s-26.16,8.13-35.28-2.23c-9.89-11.23-23.97-12.73-31.5-12.63-13.37.18-26.68,5.51-33.14,13.26-4.94,5.93-12.06,9-19.22,9Z"/>
    <path class="b" d="M620.53,499.27c-7.17,0-14.28-3.06-19.22-9-6.45-7.75-19.77-13.08-33.14-13.26-7.51-.09-21.61,1.4-31.5,12.63-9.13,10.36-24.92,11.36-35.28,2.23-10.36-9.13-11.36-24.92-2.23-35.29,17.14-19.46,41.86-29.98,69.71-29.58,27.97.39,55.13,12.36,70.86,31.25,8.84,10.61,7.4,26.37-3.21,35.21-4.67,3.89-10.35,5.79-15.99,5.79Z"/>
  </g>
</svg>