<?xml version="1.0" encoding="UTF-8"?>
<svg id="a" data-name="Layer 1" xmlns="http://www.w3.org/2000/svg" width="249.64" height="499.91" viewBox="0 0 249.64 499.91">
  <defs>
    <style>
      .b {
        fill: #fff;
        fill-rule: evenodd;
      }

      .c {
        fill: #144722;
      }
    </style>
  </defs>
  <path class="b" d="M90.87,141.11c-.85-.06-2.84,1.9-2.81,2.39.4,5.24-.89,10.68-1.61,15.77-1.05,7.32-8.06,14.56-9.54,26.38-.78,6.25.27,16.1-.58,18.64-1.43,4.28-19.65,19.95-17.47,27.59,4.96,17.36,15.94,19.62,32.13,21.24,8.54.85,16.66,3.45,25.41,2.72,4.55-.38,8.72-2.7,13.25-3.27,6.63-.83,12.44,4.44,19.24,2.18,2.87-.96,4.4-4.1,5.45-6.72,4.66-11.65-.95-11.49-3.09-22.14-1.06-5.28-1.14-10.92-1.63-16.34-.65-7.16-2.03-13.72-1.31-19.2.73-5.68,3.59-10.28,4.46-17.23.91-7.28.46-11.7,1.27-19.03.28-2.54,1.68-10.94-.62-12.48-.49-.33-2.03.91-2.33.6-1.27-1.27.39-5.72-.18-7.44-.56-1.69.32-1.83.82-4.36.75-3.77,2.47-7.43,3.89-10.75,1.4-3.26-3.21-4.76-3.64-5.01-7.01-3.88-2.78-4.8.57-3.83,2.75.8,3.29-5.36.6-8.06-1.53-1.54-3.11-2.51-2.93-3.4.44-2.18,3.93-1.94,4.7-4.14,1.86-5.34,2.58-11.91-1.57-18.13-1.14-1.71,1.22-5.16-.81-5.67-3.9-.97-11.02.92-12.71.36-1.43-.48-.77-3.61-3.45-3.99-6.94-.99-13.37,6.15-17.06,11.07-1.82,2.42-.48,7.12-1.82,9.8-.59,1.18-3.03,1.76-3.81,2.54-1.12,1.12.24,4.2-1.63,5.45-4.97,3.31-20.99,8.87-23.05,15.06-1.44,4.31,4.45,4.18,5.63,6.53.67,1.34-3.16,8.15-3.45,10.17-.26,1.81,6.39,11.14,3.63,12.52-1.09.54-2.56.27-3.93.18h0Z"/>
  <path class="b" d="M94.25,145.88c-1.57-.53-2.73-1.58-4.49-1.73-6.87-.57-11.8,2.02-18.03,4.51-2.1.84-4.85.34-7.05.59-4.11.46-7.21,2.7-11.46.88-5.05-2.17-8.65-6.58-10.09-11.85-.8-2.94-.27-6.06-1.08-9.01-1.11-4.05-3.82-6.87-5.68-10.58-1.14-2.27-2.15-5.21-4.11-6.96-4.11-3.65-7.57-7.99-11.76-11.66-2.63-2.3-6.36-3.74-9.31-5.58-.88-.55-4.53-5.56-3.53-6.56.25-.25.44-.92.78-1.27,3.93-3.93,10.61-1.07,14.99.39,1.82.61,3.43,1.89,5.19,2.64.14.06,2.25,1.01,2.25.98,0-.43-.9-1.54-1.08-2.06-.55-1.63-.7-3.32-.98-5-.58-3.51,1.5-6.97.69-9.4-.76-2.27-3.34-3.25-4.02-5.29-.4-1.2-.65-3.64,1.08-4.21,1.55-.52,3.22-1.08,4.9-1.08.72,0,1.98.72,2.64.39.84-.42,1.56-1.71,2.45-2.16,1.71-.86,3.25,1.73,4.7,1.37.8-.2,1.11-1.14,1.76-1.47,3.1-1.55,7.45-.28,8.82,2.45.99,1.98-2.5,4.8-3.23,6.27-1.08,2.17-1.05,4.66-2.06,6.66-.67,1.34-2.27,2.13-3.13,3.33-1.02,1.43-1.64,3.16-2.25,4.8-.74,1.98-.06,4.14.59,6.07.24.71,1.27,2.86.88,3.62-.39.78-3.93-.37-4.41-.49-2.38-.6-4.28-2.28-6.56-3.13-2.17-.81-4.56-.83-6.76-1.57-.13-.04-.26-.05-.39-.1-2.09-.78-5-2.01-5-1.76,0,.19,1.23.87,1.37.98,1.89,1.51,4.05,2.29,6.07,3.53,2.44,1.5,9.99,6.77,12.05,7.25,2.94.68,6.06.08,9.01.88,1.89.52,4.19,1.63,5.88,2.64,1.42.85,2.87,2.63,4.51,3.04,1.21.3,2.27-.88,3.43-.59,2.08.52,5.76,3.94,7.64,5.19,2.92,1.95,7.1,2.88,10.48,3.72,3.2.8,6.57,1.91,9.8,2.45,2.46.41,5.51.36,7.25,2.45,1.89,2.27,1.08,6.11,1.47,8.82.45,3.17,2.11,6.27,2.35,9.41.56,7.2-2.48,7.07-6.58,8.19h0Z"/>
  <path class="b" d="M16.57,90.54c-1.27-.1-6.59-.07-7.56-.65-1.71-1.03-3.12-2.53-4.94-3.34-.96-.42-2.37.13-3.19-.53-.78-.64-.78-2.58-.39-3.43,1.14-2.49,2.77-4.89,4.37-7.08.97-1.33,1.6-2.45,2.96-3.48.76-.58,1.83-.74,2.71-1.07,1.17-.43,2.35-.9,3.48-1.42,1.45-.67,2.89-1.72,4.43-2.17,3.74-1.07,8.06.16,11.16,2.37,1.26.9,3.26,2.66,3.65,4.25.33,1.35-.03,2.89.25,4.28.52,2.53,2.34,4.97,2.19,7.63-.04.66-.31,1.32-.53,1.93-.26.71-.55,1.65-1.04,2.26-1.58,1.94-4.88,1.02-7,1.13-1.4.07-2.46.43-3.89.23-1.31-.18-2.54-.83-3.85-.99-.94-.11-1.86.15-2.8.08h0Z"/>
  <path class="b" d="M35.69,472.65l22.98-1.02s2.88-3.05,2.84-9.95c-.04-6.9-1.68-18.49-1.21-23.91.47-5.42,7.17-35.28,7.84-49.43.67-14.15-1.93-17.84-1.44-22.89.5-5.05,1.2-5.7,3.12-11.66,1.92-5.96,6.05-16.74,8.25-22.08,2.19-5.34,3.37-4.28,7.83-3.97,4.46.32,7.2,2.35,8.8-.78,1.6-3.14,6.89-31.35,10.39-34.3,3.49-2.95,7.35-10.56,9.28,3.6,1.93,14.16,5.6,34.55,7.75,36.14,2.15,1.59,9.77.49,14.2-1.57,4.43-2.07,7.04-2.3,8.41,1.47,1.37,3.77,11.01,21.91,13.07,27.21,2.06,5.31,6.14,26.88,8.97,33.47,2.84,6.6,10.7,31.14,13.52,37.98,2.82,6.85,4.38,11.46,4.48,12.75.09,1.29-1.59,1.47-2.04,5.85-.45,4.38-3.35,18.72-.95,19.69,2.4.97,15.64,1.55,26.23.81,10.59-.73,15.32-2.28,12.16-5.77-3.17-3.5-10.02-7.23-13.2-11.13-3.18-3.9-1.75-2.61-6.85-7.66-5.1-5.05-3.52-5.97-6.91-8.04-3.4-2.07-.57.08-1-4.09-.43-4.17-5.15-17.92-6-28.07-.84-10.15,1.8-23.46-1.28-34.86-3.07-11.4-5.97-17.21-9.43-30.16-3.46-12.95-2.69-24.38-6.16-33.45-3.47-9.07-9.4-33.09-11.66-42.31-2.26-9.21-9.78-19.15-9.78-19.15,0,0-38.92-2.61-47.03-2.35-8.11.25-30.6-3.68-32.4-.5-1.8,3.18-2.4,8.98-3.17,16.24-.77,7.25.68,6.63-5.05,16.52-5.73,9.89-14,31.24-13.94,36.42.06,5.18,4.4,6.78,5.73,10.43,1.32,3.65,4.37,8.93,2.14,18.44-2.23,9.52-4.61,18.53-4.38,22.16.23,3.62,1.59,5.65.9,8.65-.69,3-2.62,9.18-4.39,20.23-1.77,11.05.14,19.26,0,29.56-.14,10.3.99,13.71-2.41,22.01-3.4,8.3-7.52,15.34-9.4,20.16-1.88,4.82,1.17,9.31,1.17,9.31h0Z"/>
  <path class="c" d="M129.93,495.92c2.24.26,4.09.51,5.93.79,1.59.24,3.18.49,4.75.81.4.08.75.43,1.12.66-.3.3-.56.8-.9.87-7.41,1.42-14.9.64-22.35.77-.62.01-1.25-.7-1.88-1.07.59-.37,1.15-.98,1.78-1.06,2.58-.35,4.92-1.19,7.25-2.39.94-.48,2.58.38,4.3.64h0Z"/>
  <path class="c" d="M99.03,496.51c-1.77.2-3.35.11-4.91.21-3.04.2-6.32-.14-9.05.92-4.08,1.58-7.72-.29-11.54-.36-2.69-.05-5.37-.89-8.05-1.37-1.46-.27-2.92-.55-4.39-.78-.87-.14-1.76-.18-2.65-.26.73-.56,1.43-1.14,2.18-1.66,1.38-.96,2.93-1.14,4.59-1.31,2.56-.25,5.11-.85,7.61-1.53,4.18-1.13,8.43-.62,12.66-.77,2.93-.11,5.7.37,8.49,1.32,1.5.51,3.43.55,4.94.08,2.41-.75,4.6-.94,6.94.06.67.28,1.53.13,2.3.13,3.01.01,6.03-.09,9.04.06,1.09.05,2.7-.96,3.15.85.06.23-1.9,1.26-2.99,1.4-3.15.42-6.33.82-9.5.77-3.11-.04-6,.27-8.82,2.23h0Z"/>
  <path class="c" d="M199.99,490.41c5.49-.14,10.58-.11,15.48,1.59.39.14.71.49,1.05.74-.33.27-.63.74-.99.79-2.64.32-5.29.52-7.93.83-4.25.49-8.47,1.21-12.73,1.52-5.78.43-11.58.61-17.38.81-3.01.1-6.05.22-9.04-.04-2.69-.24-5.38-.86-8-1.56-1.65-.44-1.77-1.6-.49-2.82,1.43-1.36,3.19-1.92,5.13-1.85,2.92.1,5.65-.65,8.47-1.36,2.71-.68,5.85-.75,8.55-.09,3.74.91,7.43.36,11.12.67,2.13.18,4.24.51,6.76.77h0Z"/>
  <path class="c" d="M240.93,477.81c-.04-1.86.86-2.15,1.49-1.06.65,1.11.82,2.62.82,3.95,0,2.04.16,3.65,2.83,3.48.52-.03,1.13.45,1.6.82.23.19.3.67.31,1.02,0,.15-.36.45-.53.43-4.12-.51-7.75,2.44-11.95,1.63-2.35-.45-4.77-.53-7.14-.86-.31-.05-.8-.66-.76-.95.07-.49.4-1.19.79-1.33,1.71-.63,3.47-1.44,5.24-1.52,1.73-.08,1.8-.73,1.82-2.08.04-2.98-.22-5.35-3.24-7.36-4.42-2.94-5.26-8.05-4.54-12.91.77-5.19,8.69-8.89,14.04-7.34,3.94,1.14,6.61,3.2,7.12,7.51.16,1.39,1.53,2.45.31,4.13-.75,1.04.19,3.34-.44,4.51-.52.97-2.15.82-2.8,1.68-1.23,1.64-2.85,2.9-5.51,3.16-.58.06-1.38,1.02-1.52,1.68-.3,1.41-.35,2.9-.25,4.35.05.8.6,1.57.92,2.35.2-.69.41-1.39.6-2.08.27-.94.53-1.88.79-3.22h0Z"/>
  <path class="c" d="M137.8,477.81c2.8,1.3,5.21-.04,7.61-.01,3.28.04,6.56.12,9.83-.02,2.94-.13,5.88-.1,8.79.1,3.47.24,6.92.95,10.36,1.55.42.07.75.7,1.12,1.07-.4.18-.79.41-1.21.55-1.49.51-2.98,1.33-4.5,1.43-6.44.4-12.89.65-19.34.8-1.59.04-3.18-.59-4.79-.72-3.31-.27-6.42.36-9.61,1.46-4.76,1.65-9.72,1.26-14.59-.07-1.19-.33-2.54-.81-3.66-.55-3.56.83-7.12,1.58-10.77,1.46-3.1-.1-6.15-.51-8.73-2.71-.93-.79-2.5-.89-3.81-1.16-1.7-.36-3.45-.52-5.15-.89-.43-.09-1.01-.68-1.04-1.08-.03-.34.58-.99,1-1.07,3.3-.62,6.61-1.2,9.93-1.69,3.28-.49,6.72.89,9.9-.8,2.14,1.65,4.27-.22,6.44-.04,2.34.19,4.73-.13,7.07.08,4.25.39,8.49.99,12.73,1.56.7.09,1.36.5,2.43.76h0Z"/>
  <path class="c" d="M237.49,14.44c-.91-3.09-1.61-6.44-3.99-8.96-.62-.65-.53-2.19-2.04-1.56-1.57.66-.57,1.92-.54,2.93.01.32.38.61.57.94,2.15,3.76,1.6,7.9,1.52,11.94-.02,1.29-.48,2.71-1.15,3.82-2.11,3.5-8.99,4.49-12.27,1.89-.24-.19-.36-.54-.53-.82.23-.08.46-.22.69-.23.65-.02,1.32-.08,1.95.05,1.9.39,3.33-.17,3.46-1.74.2-2.5,1.26-5.05-.11-7.54-.15-.27-.28-.56-.41-.83.36-.03.88-.22,1.04-.06.85.9,1.55,1.79,2.05,3.07.78,1.98-.35,3.57-.12,5.31.07.55.63,1.04.97,1.56.45-.35,1.22-.65,1.3-1.07.62-3.31,1.82-6.74,1.4-9.94-.36-2.7-2.61-5.16-4.11-7.68-.51-.86-1.1-1.05-2.21-.32-1.38.92-3.09,1.56-4.73,1.79-2.48.34-4.27,1.74-6.29,2.96-2.69,1.63-5.63,2.86-8.51,4.14-.34.15-.99-.4-1.49-.63.44-.3.84-.66,1.31-.88,1.76-.82,3.87-1.22,5.25-2.44,4.19-3.72,9.44-5.08,14.41-7.11.79-.32,1.64-.47,2.47-.69.57-.15,1.14-.29,1.71-.43-.5-.38-.95-.89-1.51-1.11-.89-.36-1.99-.97-2.78-.73-4.41,1.34-8.86,2.67-13.11,4.44-5.05,2.1-10.52,3.02-15.36,5.68-1.26.7-2.67,1.17-4.06,1.58-5.38,1.59-10.81,3.02-16.18,4.67-8.37,2.58-16.72,5.24-25.04,7.97-4.26,1.4-8.47,2.99-12.67,4.57-.54.2-.91.86-1.36,1.31.6.13,1.28.52,1.79.36,8.14-2.5,16.26-5.07,24.38-7.64,3.48-1.1,6.92-2.34,10.43-3.31,4.25-1.17,8.59-2.05,12.85-3.21,3.4-.92,6.74-2.11,10.13-3.08.52-.15,1.2.21,1.8.34-.36.37-.65.93-1.09,1.08-2.29.81-4.61,1.54-6.94,2.25-5.48,1.67-10.95,3.34-16.45,4.94-9.72,2.84-19.49,5.51-29.17,8.46-8.6,2.62-17.17,5.41-25.67,8.35-9.52,3.29-18.98,6.73-28.4,10.29-8.73,3.3-17.37,6.86-26.06,10.26-2.6,1.02-5.25,1.9-7.9,2.77-.41.14-.96-.15-1.45-.24.29-.37.5-.91.88-1.08,1.43-.66,2.9-1.23,4.37-1.79,10.43-3.97,20.86-7.91,31.29-11.88,6.12-2.33,12.19-4.8,18.36-6.99,6.87-2.44,13.83-4.61,20.74-6.95,1.02-.34,1.95-.91,2.93-1.37-1.13-.13-2.34-.58-3.37-.32-8.27,2.11-16.43,4.68-24.56,7.26-6.44,2.04-12.72,4.75-19.06,7.18-10.54,4.04-21.12,7.97-31.85,11.48-1.05.34-2.13.64-3.22.78-2.51.33-5.1.27-7.52.91-1.5.4-2.63.73-4.14-.02-.96-.48-2.25-.15-3.06,1.02-.68.98-1.57,1.68-2.95,1.15-.54-.21-1.2-.12-1.81-.17.3.53.48,1.26.94,1.56,2.27,1.51,2.85,3.98,3.76,6.27.1.27-.18.69-.29,1.04-.28-.23-.63-.4-.82-.69-.96-1.44-1.81-2.94-2.81-4.34-2.38-3.34-5.28-3.75-8.3-1.09-1.01.89-1.94,1.32-3.33,1.56-4.33.73-8.81,1.49-12.48,3.95-2.54,1.71-4.41,4.42-6.58,6.68.59,2.22-.89,3.8-1.74,5.58-1.57,3.3-.3,5.79,3.19,5.65,1.94-.08,2.75.79,3.25,2.24,1.41,4.11,3.91,7.12,8.07,8.68.79.3,1.5.86,2.18,1.38,4.4,3.32,8.81,6.65,13.16,10.03,1.11.86,2.11,1.82,1.87,3.58-.12.89.37,1.91.73,2.81,1.62,4.06,3.04,8.19,5.41,11.95,1.2,1.91,2.1,4.24,2.33,6.46.25,2.39,1.28,4.24,2.49,6.09,1.5,2.28,3.54,4.3,4.63,6.75,2.26,5.11,6.48,6.7,11.42,7,5.07.31,9.96-.53,14.17-3.76.65-.49,1.55-.67,2.37-.91,2.94-.84,5.88-1.64,8.82-2.47.55-.15,1.08-.37,1.62-.56-.01.71.09,1.45-.07,2.13-.34,1.42-1.24,2.83-1.17,4.2.2,3.81-1.17,7.05-2.98,10.22-3.59,6.31-6.07,13.09-7.23,20.2-.78,4.77.21,9.63,1.13,14.41.29,1.52.34,3.4-.31,4.71-1.32,2.63-3.23,4.96-4.85,7.45-3.29,5.06-6.33,10.3-9.87,15.18-2.72,3.74-3.81,7.84-2.57,11.96,1.06,3.52,3.49,6.68,7.12,8.36,1.45.67,2.95,1.36,2.9,3.06-.16,5.79-.14,11.63-1.02,17.32-.37,2.38-.64,4.45.55,6.38.67,1.09.23,1.41-.21,2.26-1.23,2.33-.68,3.51,1.97,4.26,2.36.67,4.81,1.06,7.21,1.63.37.09.67.51,1,.78-.35.26-.67.68-1.04.74-2.25.32-4.5.71-6.76.78-3.65.12-6.43,2.04-8.21,4.77-4.12,6.34-7.91,12.92-9.21,20.57-.09.51-.47.97-.72,1.46-.28-.59-.89-1.25-.78-1.75.78-3.33,1.23-6.86,2.68-9.9,3.62-7.59,6.34-15.5,9.02-23.42,1.37-4.05,2.54-8.25,3.09-12.47.52-4,.13-8.12.09-12.19,0-.56-.35-1.6-.49-1.6-.71.03-1.67.14-2.04.61-.65.83-1.05,1.92-1.36,2.95-.74,2.46-1.29,4.97-2.05,7.42-1.91,6.16-4.29,12.2-5.72,18.47-1.26,5.51-2.95,10.86-4.61,16.22-2.15,6.9-4.16,13.78-4.2,21.1-.02,3.42,1.18,5.88,4.4,7.17,1.85.73,2.34,2.1,1.91,3.86-.57,2.37-1.36,4.7-1.88,7.09-.76,3.51-1.44,7.04-2.03,10.58-.61,3.7-.72,7.53-1.7,11.12-1.51,5.54-2.18,11.22-2.94,16.85-.75,5.6-.93,11.32-.83,16.98.16,9.21-.75,18.43.64,27.63.71,4.68.59,9.48.88,14.23.04.61.22,1.22.35,1.82.65,3.14.79,6.18-.46,9.29-.73,1.8-.52,3.98-1.26,5.78-.74,1.79-2.17,3.3-3.24,4.96-.18.28,0,.78-.13,1.12-1.34,3.64-2.56,7.34-4.11,10.89-1.13,2.57-2.88,4.83-3.05,7.82-.04.67-1.22,1.82-1.86,1.81-3.92-.09-5.17.03-7.52,1.28-.85.45-2.1.58-1.55,2.05.4,1.06,1.13,1.55,2.35,1.52,2.28-.06,4.52-.12,6.78.69,1.73.62,3.72.93,5.55.78,2.82-.23,5.64-.85,8.4-1.52,6.6-1.62,13.05-.55,19.61.47,4.2.65,8.57.28,12.86.24.64,0,1.27-.69,1.9-1.06-.61-.4-1.17-1.02-1.83-1.16-2.78-.61-5.59-1.07-8.39-1.62-1.08-.21-2.22-.35-3.2-.81-2.13-.99,1.02-1.99.09-3.12-.27-.34-.16-.97-.3-1.44-.69-2.35-.82-4.56.2-6.97.9-2.12,1.37-4.5,1.57-6.8.14-1.56.42-3.16-.54-4.86-1.11-1.96-1.45-4.38-2.03-6.62-.2-.76-.43-1.82-.07-2.36,2.03-3.05,1.03-6.6,1.82-9.87,1-4.12.81-8.54,1.82-12.66,1.74-7.1,4.07-14.05,6-21.11.78-2.86,1.56-5.81,1.64-8.74.11-4.08-.3-8.19-.74-12.26-.25-2.31-.88-4.6-1.59-6.81-.24-.74-1.21-1.43-2-1.72-.29-.11-1.33.92-1.51,1.58-.52,1.91-1.2,3.91-1.07,5.83.55,8.46-.92,16.61-3.22,24.68-1.04,3.64-2.32,7.22-3.09,10.91-.96,4.55-1.58,9.18-2.2,13.79-.46,3.39-.7,6.81-.98,10.22-.1,1.17.01,2.36-.02,3.54-.03,1.15-.55,1.22-1.48.7-1.81-1.01-3.68-1.9-5.49-2.88-.36-.19-.8-.57-.85-.91-.33-2.11-.69-4.23-.8-6.36-.33-6.97-.51-13.95-.84-20.93-.08-1.74-1.1-3.64-.64-5.15,1.09-3.59.44-7.16.66-10.73.38-6.05-.75-12.16.76-18.18.25-.99.39-2.27-.03-3.11-1.91-3.81-.03-7.41.58-10.99.84-4.95,2.5-9.76,3.36-14.71,1.03-5.96,2.36-11.84,4.05-17.63.88-3.02,1.15-5.87.08-8.86-.44-1.23-.39-2.41,1.52-2.07,2.93.52,5.89.93,8.79,1.6,4.05.95,8.05,2.08,12.05,3.23.38.11.92.99.81,1.33-.73,2.18-1.34,4.48-2.54,6.41-.95,1.53-1.55,3.05-1.86,4.76-.45,2.43-.8,4.9-1.41,7.29-1.55,6.01-5.34,11.29-5.82,17.66-1.88,1.32.9,2.36.27,3.79-.21.47,1.69.57,2.23-.44.35-.63.55-1.34.8-2.03.79-2.16,1.51-4.36,2.38-6.49,3.12-7.63,6.29-15.24,9.43-22.86.41-.98.87-2.12,2.11-1.44,1.5.83,2.79.49,4.31.19,1.34-.26,2.87.53,4.24.32,1.86-.28,3.77-1.12,4.27-3.16,1.58-6.4,3.56-12.66,5.93-18.81,1.48-3.85,2.88-7.73,4.38-11.57.17-.43.75-.69,1.15-1.03.13.47.51,1.04.36,1.39-1.96,4.75-.01,8.96,1.66,13.25,1.15,2.94,2.21,5.93,3.06,8.96.73,2.61.82,5.42,1.7,7.97.74,2.16,2.04,4.19,3.38,6.06,1.57,2.19,5.59,3.03,8.52,1.91,4.1-1.56,8.66-1.66,12.49-4.07.27-.17,1.32.28,1.45.63.65,1.84,1.38,3.72,1.58,5.63.56,5.41,2.87,9.91,6.45,13.88,1.36,1.51,2.74,3.03,3.87,4.7,1.16,1.71,2.33,3.43,2.37,5.72.05,2.65.19,5.36.8,7.93,1.18,4.98,2.69,9.89,4.11,14.82.98,3.39,1.7,6.91,3.14,10.11,1.89,4.21,4.59,8.06,6.54,12.25,2.2,4.74,4.56,9.43,5.13,14.82.37,3.52,1.46,6.98,2.3,10.44.43,1.77,1.11,3.49,1.54,5.26,1.03,4.22,2.33,8.24,6.32,10.73.4.25.47,1.04.69,1.58-.5-.16-1.03-.27-1.51-.48-3.59-1.56-4.52-.96-4.7,3.15-.03.66.12,1.34-.02,1.96-.83,3.68-.88,6.83-.07,10.15.45,1.85-.73,4.03-2.5,4.41-4.19.91-8.35,2.06-12.73,1.61-1.43-.15-2.9-.15-4.32.02-.8.1-1.54.68-2.31,1.05.69.42,1.32,1.02,2.07,1.23,1.43.39,3.07.25,4.36.88,3.6,1.77,7.4,1.54,11.18,1.48.81-.01,1.9-.93,2.37-.64,2.35,1.49,4.84.31,7.22.65,2.37.35,4.79.89,7.15.74,6.74-.44,13.53,1.17,20.27-1.35,3.22-1.2,7.07-.68,10.63-.95.75-.06,1.5-.18,2.25-.27-.29-.63-.63-1.25-.87-1.91-.25-.69-.41-1.41-.59-2.12-.28-1.07-.23-2.39-.87-3.16-2.46-2.97-4.79-6.23-7.84-8.49-2.77-2.05-5.43-4.14-7.88-6.53-1.85-1.8-2.41-1.65-4.32.45-1.57,1.72-1.84,2.42-4.36.35-1.12-.92-2.45-1.68-3.8-2.19-.76-.29-2.32-.25-2.55.17-.47.85-.39,2.07-.3,3.13.03.4.68.75,1.06,1.12,1.85,1.79,3.04,3.87,3.38,6.49.09.7.95,1.3,1.45,1.94.54-.47,1.12-.91,1.62-1.43.24-.25.25-.71.47-.97.67-.8,1.36-2.15,2.12-2.2,1.84-.13,3.81.11,5.58.66,1.48.46,2.76,1.57,4.09,2.44.43.28.75.73,1.12,1.1-.46.13-.93.36-1.4.39-3.44.17-6.96-.53-10.29.82-2.05.83-3.87,1.1-6.09.09-2.19-1-4.75-1.39-7.18-1.6-2.05-.18-2.75-.98-2.6-2.9.07-.91.12-1.85-.01-2.75-.22-1.47.43-2.16,1.68-2.82,3.56-1.86,4.55-4.27,3.58-8.03-.14-.52-.36-1.23-.13-1.59.83-1.34,3.98-1.6,5.1-.51,1.5,1.47,2.86,3.12,4.51,4.38.76.58,2.08.44,3.14.62.08-.88.43-1.85.17-2.62-.61-1.83-1.29-3.72-2.34-5.31-1.02-1.53-2.17-2.91-4.54-3.06-3.59-.22-6.69.22-10.1,2.64-1.13.8-1.47,1.03-1.89-.68-1.11-4.49-2.55-8.9-3.87-13.34-2.46-8.27-5.19-16.43-8.56-24.4-2.35-5.58-4.28-11.4-5.6-17.36-1.43-6.45-2.92-12.88-3.28-19.55-.15-2.71-.78-5.61-2.39-8.02-2-2.99-4.29-5.8-6.11-8.89-2.84-4.83-5.39-9.83-8.08-14.75-.41-.75-1.01-1.42-1.34-2.2-.12-.28.23-1.04.52-1.15,1.03-.38,2.11-.72,3.2-.81,5.58-.47,11.02-1.65,16.41-3.15,2.83-.78,4.37.1,5.25,3.04,1.41,4.68,2.49,9.46,3.96,14.11,1.99,6.3,4.22,12.52,5.24,19.09.11.69.41,1.47.88,1.98,1.75,1.89,2.14,4.36,3.06,6.62,1.26,3.09,1.49,6.29,1.63,9.59.15,3.21,1.13,6.38,1.45,9.59.43,4.2.52,8.44.85,12.66.16,2.13.4,4.26.8,6.36.98,5.09,2,10.18,3.14,15.23.7,3.08,1.14,6.26,3.09,8.96.75,1.04,1.29.69,1.73.02.39-.58.67-1.39.63-2.07-.18-3.18-.93-6.38-.66-9.51.52-5.97-1.45-11.6-1.88-17.45-.44-5.94-1.48-11.86-1.37-17.86.01-.66.07-1.32-.01-1.97-.5-3.98-1.2-7.95-1.49-11.95-.15-2.05-.53-3.94-1.45-5.72-3.2-6.15-5.76-12.57-8.06-19.49-.52-2.32-1.27-4.22-1.53-6.19-.63-4.78-1.73-9.44-3.29-14-.31-.93-.96-2.18-.61-2.82,1.71-3.09.17-5.82-.63-8.62-1.07-3.75-2.25-7.46-3.39-11.19-.5-1.63-1.08-3.23-1.56-4.86-.52-1.76-.82-3.59-1.46-5.3-1.27-3.41-2.8-6.71-4.04-10.13-1.61-4.45-3.18-8.93-4.5-13.48-.62-2.11-1.33-4.62-.74-6.56,1.12-3.7.45-6.62-1.92-9.4-.42-.5-1.07-.86-1.35-1.41-.66-1.29-1.53-2.64-1.61-4.01-.05-.88,1.27-1.76,1.76-2.76,1.43-2.92,2.73-5.99,1.8-9.29-1.31-4.68-3.19-9.21-4.34-13.93-1.15-4.7-1.7-9.54-2.5-14.33-.41-2.46-.76-4.92-1.2-7.38-.2-1.08-.4-2.2-.89-3.16-.18-.35-1.64-.54-1.75-.35-.68,1.14-1.61,2.42-1.58,3.63.12,5.39.5,10.77.85,16.15.14,2.14.51,4.27.61,6.42.06,1.2-.74,1.24-1.48.57-1.17-1.06-2.24-2.21-3.35-3.32-1.84-1.84-3.73-3.63-5.5-5.53-1.2-1.29-2.18-2.8-3.39-4.08-.4-.42-1.3-.68-1.84-.53-.42.11-.73.95-.9,1.52-.15.48-.19,1.11,0,1.55,1.38,3.28,2.68,6.63,5.2,9.26,2.16,2.26,4.47,4.38,6.61,6.66,2.2,2.33,4.38,4.7,6.38,7.21.97,1.21,1.58,2.74,2.22,4.18.16.37-.15.95-.24,1.44-.45-.11-1-.09-1.33-.35-2.78-2.19-5.51-4.44-8.27-6.66-1.97-1.58-4.07-3-5.9-4.71-3.22-3-6.76-5.83-9.29-9.36-3.85-5.34-5.91-11.67-7.99-17.91-.38-1.15-.66-2.37-1.27-3.4-.33-.57-1.24-.79-1.89-1.17-.24.8-.8,1.67-.66,2.4.64,3.38,1.33,6.76,2.28,10.07,1.97,6.93,4.49,13.62,9.92,18.71,3.01,2.82,6.12,5.53,9.12,8.37,2.85,2.7,5.16,6.02,9.04,7.49.38.15.61.71.91,1.08-.45.18-.89.38-1.34.56-4.18,1.63-8.43,3.04-12.98,2.85-6.45-.27-12.93.75-19.37-.68-1.95-.43-4.12.11-6.18.14-2.73.04-5.46.02-8.2,0-.88,0-1.84-.37-2.63-.13-6.57,1.96-12.56.14-18.34-2.77-3.16-1.59-6.22-3.41-9.23-5.28-3.13-1.96-6.25-3.99-7.72-7.67-.64-1.61-.97-3.02.36-4.57,2.19-2.58,4.31-5.24,6.2-8.06,2.65-3.96,5.57-7.78,7.15-12.38.15-.43.72-.73,1.09-1.08.15.45.38.89.44,1.36.29,2.51.35,5.07.85,7.53.56,2.74,1.49,5.4,2.34,8.08.14.44.68.76,1.04,1.14.17-.43.5-.88.48-1.3-.22-3.83-.5-7.66-.76-11.48-.32-4.61.22-9.2-.64-13.87-.92-5.02-.6-10.26-.96-15.39-.31-4.43,1.44-8.31,3.4-11.97,1.9-3.55,4.91-6.37,6.48-10.32,1.3-3.25,4.1-5.91,6.23-8.83.81-1.11,1.99-1.22,2.37.03.58,1.88,2.04,2.55,3.47,3.02,4.52,1.47,9.07,2.99,13.72,3.88,2.81.54,4.25,1.64,5.36,4.27,1.94,4.58,4.78,8.68,8.16,12.36,4.48,4.89,10.73,6.97,16.24,10.22.79.46,1.84.49,2.76.72-.54-.74-.99-1.59-1.65-2.21-2.9-2.72-5.97-5.25-8.76-8.07-3.64-3.67-7.08-7.55-10.6-11.33-.18-.19-.46-.34-.53-.57-.1-.33-.06-.7-.08-1.06.28.09.57.15.83.27,2.34,1.01,4.66,2.04,7,3.06,3.13,1.35,5.28,1.05,7.54-1.41,4.48-4.89,5.36-10.88,4.97-17.21-.02-.26-.43-.49-.65-.74-.3.3-.7.55-.88.91-1.63,3.26-3.24,6.53-4.82,9.81-.31.65-.54,1.36-.69,2.07-.68,3.21-1.6,3.67-4.51,2.16-3.02-1.57-6.14-2.99-9.04-4.76-5.74-3.5-12.01-5.13-18.6-5.38-2.11-.08-2.72-.95-3.31-2.61-1.22-3.43-2.4-6.89-3.95-10.17-2.49-5.24-3.45-10.7-3.1-16.43.13-2.04.57-2.29,2.72-1.63.7.22,1.44.6,2.12.52,2.44-.28,4.57,1.15,7.21.61,5.17-1.06,10.54-1.89,15.77-1.68,3.49.14,7.29.5,10.57,2.86,3.85,2.78,7.95,2.21,11.66-.78.26-.21.56-.39.83-.58.09.49.36,1.04.22,1.45-.2.56-.68,1.04-1.09,1.51-1.39,1.58-1.32,3.5-1.18,5.39.03.34,1.07.93,1.12.88,2.6-2.55,5.76-4.85,5.85-8.94.04-1.88.57-3.41,1.63-4.86.21-.28.42-.56.63-.83.16.46.53.96.45,1.38-.28,1.57-1.33,3.28-.96,4.62.72,2.54,1.01,4.83-.09,7.27-.16.35.2.93.32,1.41.41-.31.81-.63,1.21-.94.27-.21.54-.56.81-.56.26,0,.72.37.73.6.31,4.09,1.25,8.29.59,12.23-.51,3.02-.35,5.96-.46,8.9-.23,5.86-.16,11.69-1.62,17.46-1.35,5.36-1.78,10.91-3.79,16.15-.79,2.05-.66,4.45-1.01,6.67-.25,1.62,1.08,2.21,1.88,3.17.56-.75,1.26-1.43,1.64-2.27.76-1.65,1.48-3.34,1.98-5.08,1.01-3.53,1.77-7.13,2.8-10.65,1.7-5.81,3.37-11.59,2.78-17.76-.11-1.2.28-2.47.55-3.69,1.35-6.02,2.76-11.97,1.05-18.25-1.22-4.48-1.27-9.29-4.41-13.17-.53-.66-.71-2.2-.31-2.92,1.27-2.27.69-4.4-.14-6.45-.52-1.3-.38-1.7.85-2.37,2.93-1.59,4.53-4.16,3.88-7.56-.39-2-1.09-4.03-2.06-5.82-.97-1.79-1.14-3.35-.2-5.13,2.99-5.65,2.94-11.59,1.51-17.61-1.26-5.33-5.02-8.99-8.9-12.42-3.4-3-7.59-4.55-12.11-4.91-6.18-.5-12,.98-16.89,4.76-5.31,4.1-10.04,8.84-9.27,16.43.19,1.91-.66,3.31-2.01,3.83-2.21.86-2.64,2.54-2.71,4.38-.06,1.64-.59,2.35-2.12,3.09-2.1,1.01-3.83,2.76-5.81,4.05-1.21.8-2.54,1.48-3.9,1.98-2.51.92-5.26,1.35-7.58,2.59-2.47,1.32-5.19,2.68-5.16,6.43.01,1.9-1.12,2.13-3.1,1.6-3.91-1.05-7.45-2.94-11.04-4.71-.58-.29-1.4-.11-2.11-.15.26.63.39,1.36.79,1.89,3.78,5.02,9.13,7.75,14.89,9.61,1.95.63,3.62,2.32,6.02,1.73,1.07-.26,1.32.65.62,1.42-1.54,1.71-1.19,3.78-1.25,5.79-.11,3.84-.14,7.69,1.05,11.38.26.8.4,1.37-.38.96-4.34-2.23-8.86-4.26-12.78-7.1-5.18-3.75-10.38-6.95-16.87-7.84-5.11-.7-10.02-2.32-14.37-5.17-7.65-5.01-14.78-10.69-21.22-17.22-3-3.05-6.73-5.23-10.66-6.51-2.37-.77-3.86-1.84-5.09-3.75-1.18-1.82-.42-3.86,1.7-4.28.76-.15,1.61-.19,2.35,0,2.11.58,4.25,1.14,6.24,2.02,2.22.98,4.18,2.77,6.47,3.35,3.59.91,6.74,2.92,10.26,3.75,4.06.96,7.55,3.48,11.97,3.59,2.97.07,5.92,1.4,8.86,2.24,2.22.63,4.41,1.39,6.63,2.05.41.12.89.02,1.34.03-.1-.45-.06-1.13-.34-1.31-3.83-2.41-7.21-5.63-12.28-5.59-2.52.02-5.48-.26-7.21-2.31-1.7-2.01-2.58-4.69-4.02-6.95-.96-1.51-.28-2.36.77-3.25,1.75-1.49,3.59-2.88,5.2-4.5,1.05-1.06,1.66-2.46,1.49-4.1-.11-1.04-.27-2.17.03-3.13.61-1.96,1.31-3.96,2.4-5.67.53-.82,2.02-1.05,3.11-1.48,7.33-2.9,14.77-5.53,21.96-8.74,5.99-2.67,11.99-5.26,18.17-7.45,8.58-3.04,17.11-6.22,25.73-9.14,5.54-1.87,11.23-3.28,16.8-5.07,9.02-2.91,17.97-6.06,26.99-8.94,5.46-1.74,11.02-3.17,16.53-4.76,4.45-1.29,9.02-2.3,13.26-4.1,1.54-.66,2.73-.22,3.27.27,1.76,1.56,3.36,2.18,5.49.88.29-.18.87.13,1.32.21,2.58.46,4.29,2.16,5.47,4.3,1.71,3.1,4.18,5.49,6.73,7.8.94.85,2.35,1.4,3.62,1.6,1.57.25,3.21.24,4.85.11,5.1-.42,8.28-3.64,8.47-8.75.03-.84.44-1.66.56-2.51.32-2.2,1.28-4.62.7-6.58ZM46.62,453.43c1.97-.04,3.94-.09,5.9.02.54.03,1.08.55,1.56.91.07.05-.14.56-.31.8-.8,1.1-1.51.62-2.17-.18-2.19-.09-3.6-.14-5-.31-.31-.04-.56-.52-.84-.8.28-.15.56-.44.85-.44ZM59.05,472.28c-4.32.04-8.64.02-12.96.02-1.85.1-2.5-.86-1.76-1.23,1.82-.91,3.64-2.69,5.85-1.86,2.87,1.07,5.72,1.76,8.8,1.57.49-.03,1.02.64,1.53.99-.49.18-.97.5-1.46.51ZM58.82,457.22c.06-.62.17-1.23.26-1.84.49-.49.59-.57.67-.67.63-.85-.75-2.89.92-2.73,1.75.16.8,2.18.68,3.21-.19,1.76-.95,3.47-1.49,5.19-.09.3-.3.56-.46.83-.28-.28-.78-.54-.79-.83-.02-1.05.11-2.11.21-3.17ZM57.95,464.52c.49.52.86,1.22,1.09,1.9.11.33.5,1.38-.82.76-1.42-.66-3.24-.64-4.47-1.5-3.35-2.34-6.26-2.84-9.81-.09-1.91,1.48-4.72,1.79-7.14,2.6-.14.05-.53-.16-.52-.22.04-.36.04-.87.27-1.04,1.79-1.34,3.53-2.8,5.48-3.86,1.57-.86,3.44-1.18,5.14-1.81.36-.13.59-.59.89-.9-.38-.22-.75-.57-1.16-.62-.77-.1-1.57.03-2.35-.05-.37-.04-.71-.33-1.07-.51.28-.28.56-.8.83-.8,3.11.09,6.39-1.46,9.26.94,1.47,2.26,2.97,3.69,4.38,5.21ZM49.24,443.96c1.86-.87,3.26-1.24,4.67-.09,1.77,1.45,1.15,3.72,1.97,5.49.04.09-.8.88-1.2.86-2.52-.17-5.03-.45-7.53-.8-.2-.03-.53-1.03-.36-1.35.73-1.41,1.62-2.74,2.45-4.1ZM192.93,468.39c1.17-.08,2.35-.02,3.52-.02,3.96,1.6,7.26.66,10.52.51.89-.04,1.78.09,2.67.08,2.54-.03,5.08-.06,7.61-.17,1.25-.05,2.49-.34,3.73-.39.34-.01.69.46,1.04.71-.32.27-.63.75-.98.79-2.76.32-5.52.57-8.28.81-2.77.24-5.5.01-8.32.61-2.56.54-5.44-.44-8.17-.79-1.1-.14-2.2-.32-3.26-.63-.56-.17-1.03-.66-1.54-1.01.48-.18.96-.48,1.45-.51ZM155.83,275.46c-.98-1.69-2.34-3.19-3.66-4.67-1.31-1.47-2.77-2.81-4.12-4.24-.28-.29-.38-.75-.56-1.13.5-.05,1.11-.3,1.48-.11.66.35,1.17.98,1.76,1.46.68.56,1.32,1.22,2.08,1.61,1.15.59,2.4,1,3.61,1.48-.09-1.33-.12-2.66-.3-3.98-.28-2.09-.68-4.17-.97-6.26-.02-.18.45-.6.71-.62.27-.01.73.29.8.54,1.09,3.74,2.49,7.45,3.09,11.28.9,5.73,2.8,11.13,4.52,16.61,1.66,5.3,3.61,10.51,3.55,16.26-.03,2.62,1.12,5.25,1.73,7.88.17.72.4,1.42.5,2.14.04.33-.18.7-.28,1.05-.28-.22-.66-.38-.82-.67-1.6-2.87-3.22-5.73-4.69-8.67-.32-.65-.07-1.58-.09-2.38-1.08-5.28-2.74-10.13-3.99-15.07-1.33-5.25-5.23-7.54-9.73-9.33-1.12-.45-2.28-.83-3.35-1.39-.34-.18-.44-.83-.65-1.27.44-.16.9-.52,1.31-.46,2.2.33,4.49.49,6.55,1.25,1.91.71,1.96-.54,1.51-1.31ZM120.72,279.75c.07-.17,1.74.19,2.56.54,2.9,1.23,5.75,2.57,8.62,3.86,3.42,1.31,6.45,2.2,9.46,3.18.45.15.78.66,1.17,1.01-.51.07-1.06.29-1.52.17-3.42-.89-6.84-1.81-10.24-2.79-3.05-.88-5.92-2.17-8.61-3.89-.87-.55-1.98-.82-1.44-2.07ZM94.06,265.29c.82.18,1.61.5,2.41.76,2.29,1.51,4,2.5,6.05,3.29,2,.78,3.57,2.69,5.28,4.16.15.13-.07.67-.13,1.03-.28-.15-.53-.35-.83-.45-4.88-1.74-8.82-5.08-13.18-7.7-.28-.17-.43-.54-.65-.81.35-.1.73-.34,1.04-.27ZM84.25,298.78c1.52-.46,3.04-1,4.6-1.21,5.4-.75,10.4-2.56,15.15-5.16.37-.2.88-.12,1.33-.17-.15.54-.13,1.38-.47,1.57-2.87,1.58-5.76,3.15-8.75,4.47-1.32.58-2.9.58-4.36.84-2.94,1.1-5.26.76-7.53.77-.22,0-.44-.2-.66-.3.23-.28.4-.72.68-.81ZM127.62,73.41c2.63-2.4,5.28-4.52,8.47-6.16,2.35-1.2,4.62-1.13,7-1.15,1.13,0,1.4.59.72,1.44-1.23,1.54.07,2.21,1.07,2.41,1.21.24,2.74.29,3.76-.26,1.92-1.03,3.11-.42,4.36.95.88.97,1.78,1.94,2.78,2.77,3.59,2.96,4.76,6.91,4.88,11.36.03.96.6,1.9.62,2.86.03,1.49.04,3.06-.36,4.47-.72,2.56-1.82,5.01-2.61,7.56-.26.84-.38,2.04.02,2.7,1.2,1.95.65,4.01.69,6,.06,3.67-2.38,5.25-5.7,3.47-4.43-2.37-9.13-2.99-13.91-2.34-2.23.3-4.29.64-6.44-.11-1.26-.44-2.55-.79-3.83-1.19-1.9-3.58-3.81-6.58-4.13-10.29-.08-.88-.55-1.53.55-1.06,2.58,1.11,5.26,1.26,7.97,1.7,6.12.99,12.15,2.39,18.34.61.49-.14,1.08.09,1.56-.04.84-.24,2.25.88,2.37-.89.01-.17-1.45-.66-2.21-.63-5.62.27-10.61-2.05-15.85-3.49-4.6-1.26-8.56-3.5-12.45-6.02-.66-.43-1.55-1.15-1.59-1.78-.31-4.76-.06-9.3,3.92-12.92ZM93.72,114.06c-.63-2.62.59-5.24,3.04-6.53.54-.28,1.07-.59,1.63-.82.24-.1.55-.06.83-.08,0,.26.1.57,0,.77-.71,1.28-1.57,2.49-2.17,3.82-.72,1.6-.02,2.37,1.8,2.1,2.01-.3,3.59-1.51,4.58-3.09,2.63-4.23,6.51-6.98,10.52-9.64.26-.17.76-.47.8-.42,1.15,1.34,3.14,2.67,3.21,4.1.21,4.06-.32,8.16-.67,12.24-.05.53-.62,1.28-1.11,1.45-1.27.44-2.63.61-3.96.88-3.81,1.22-7.06,1.02-10.23-.71-1.04-.57-2.36-.67-3.57-.85-2.04-.29-4.36-1.83-4.7-3.22ZM29.16,74.65c-.14.83-.34,1.65-.51,2.47-.53-.57-1.08-1.11-1.58-1.7-1.74-2.06-4.03-2.56-6.53-2.18-.59.09-1.47.87-1.51,1.39-.04.53.69,1.27,1.26,1.66.57.39,1.4.4,2.05.72,3.03,1.44,4.7,5.2,3.64,8.2-.03.09-.65.06-.96-.05-1.6-.56-3.25-1.03-4.74-1.81-.64-.33-1.09-1.3-1.31-2.07-.4-1.42-.51-2.93-.86-4.37-.11-.44-.66-1.13-.94-1.1-.49.06-1.06.5-1.36.94-.39.59-.92,1.44-.76,1.99.75,2.49-1.35,3.18-2.58,4.39-.49.48-1.24.68-1.87,1.01-.11-.61-.26-1.21-.32-1.83-.05-.52.1-1.08-.04-1.56-.27-.93-.43-2.23-1.08-2.62-1.15-.69-1.69.46-2.06,1.45-.07.2-.56.46-.59.43-.35-.36-.96-.82-.91-1.15.15-.81.41-1.77.97-2.31,2.21-2.12,4.41-4.34,6.92-6.05,1.32-.9,3.35-.69,4.97-1.23,2.99-1,5.57-.82,7.55,1.94,2.05.74,3.52,1.26,3.15,3.43ZM48.02,68.43c-.42.22-1.16.07-1.39.36-.39.5-.83,1.35-.65,1.84,1.63,4.66-.19,8.14-3.66,11.02-2.91,2.42-3.53,4.96-1.71,8.06.19.33.71.52.79.85.16.68.12,1.41.15,2.12-.52-.21-1.07-.36-1.56-.62-1.3-.67-2.52-1.52-3.87-2.06-2.36-.94-4.33-1.73-3.14-5.11.51-1.46-.45-3.4-.64-5.13-.19-1.69.47-2.72,2.35-2.67.48.01,1.18,0,1.42-.29,2.01-2.42,4.86-3.33,7.63-4.42.66-1.6.87-2.81,1.19-3.99.45-1.62,1.79-1.6,3.09-1.49.29.02.55.36.83.56-.27.33-.48.77-.83.96ZM51.12,63.24c-.71-.14-1.41-.35-2.11-.54-.04-.01-.07-.2-.03-.26.06-.11.17-.19.27-.28,1.19-.38,2.05-.55,2.76-.3.38.14.49,1,.73,1.54-.54-.05-1.08-.06-1.61-.16Z"/>
  <path class="c" d="M242.49,465.21c.07-.65.64-2.3.8-2.54.29-.45.64-1.38.85-1.39.33-.02.86.97,1.04,1.47.45,1.24,1.13,1.7,1.4,1.58,1.33-.62-.91-1.11-.25-1.97.11-.15-.5-.78-.67-1.23-1.06-2.93-5.09-5.08-7.91-4.58-1.65.29-3.58.85-4.92,2.42-1.86,2.19-2.51,5.25-1.25,7.63.93,1.76,2.88,3.03,4.51,4.33.6.48,1.64.5,2.49.52.19,0,.26-.95.15-1.05-.34-.3-.09-1.08-.48-1.32-.35-.22-.9-.07-1.24-.3-.92-.63-2.15-.72-2.33-2.2-.2-1.58-.27-2.36.33-3.3.12-.18.42-.3.74-.41.3-.11.61-.22.75-.38.5.64-.49,1.83-.04,2.51.33.5.99,1.27,1.35,1.34,1.22.25,2.75.45,2.81,1.63.05,1.06.55.95.65,1.58.09.55,1.65-.12,2.04-.04,2,.38,2.1.14,2.93-.51.47-.37.2-1.72.21-2.49-.22-.1-.93.54-1.15.41-.17-.11-.43-.72-.67-.72-.27,0-.53.63-.72.64-1.33.07-1.53-.55-1.42-1.63h0Z"/>
  <path class="c" d="M242.31,461.48c.27.6-.13,1.53-.69,2.32-.29.41-.55,1.05-1.51,1.17-.58.07-1.75.02-2.1-.47-.16-.23-.14-.74-.24-1.12-.1-.41-.32-.69-.37-.99-.2-1.12,1.28-1.84,2.9-1.45.94.22,1.73-.06,2,.55h0Z"/>
  <path class="c" d="M60.26,443.96c-.09.08-.19.16-.25.26-.04.06-.02.17-.02.25.48-.07.97-.14,1.45-.21-.26-.23-.52-.47-1.18-.31h0Z"/>
  <path class="c" d="M83.29,393.78c-.02.11-.09.17-.18.21-.09.04-.21.05-.33.06.1-.16.21-.31.51-.28h0Z"/>
  <path class="c" d="M172.25,363.86c-.85-1.75-1.59-3.28-2.12-4.88-.14-.44.19-1.4.54-1.54.47-.19,1.39-.03,1.73.34,1.9,2.07,4.21,3.37,6.77,4.49.91.4,1.61,1.91,1.87,3.04.48,2.11-1.12,3.29-3.2,2.56-2.15-.76-4.61-1.11-5.59-4.01h0Z"/>
  <path class="c" d="M163.59,340.24c2.19,3.09,2.58,6.38,2.54,9.77,0,.34-.22.68-.34,1.02-.45-.16-1.14-.19-1.3-.5-1.81-3.54-4.67-6.54-5.46-10.63-.34-1.77-1.09-3.46-1.5-5.22-.12-.51.26-1.14.41-1.72.53.29,1.26.45,1.56.89,1.36,2.02,2.6,4.12,4.09,6.39h0Z"/>
  <path class="c" d="M68.53,342.41c-.26-3.16-.54-5.92-.78-8.69-.1-1.17-.17-2.57,1.14-2.99,1.17-.38,2.34-.21,3.49.87,3.06,2.87,3.75,9.43-.61,13.4-.34.31-1.42.24-1.81-.07-.63-.52-.97-1.39-1.43-2.51h0Z"/>
  <path class="c" d="M129.54,333.75c1.44-.26,2.88-.52,4.33-.79.83-.16,1.67-.32,2.49-.54.22-.06.43-.32.53-.54.04-.1-.23-.48-.32-.47-2.85.44-5.87-1.01-8.59.77-.43.28-.79.65-1.19.98.66.2,1.31.39,2.76.59h0Z"/>
  <path class="c" d="M91.36,328.63c.72.13,1.44.32,2.16.37.32.02.65-.24.98-.37-.18-.18-.33-.43-.55-.54-2.03-1.01-4.02-2.14-6.14-2.93-.75-.28-1.83.29-2.75.47.79.6,1.49,1.4,2.38,1.77,1.1.46,2.34.57,3.92,1.23h0Z"/>
  <path class="c" d="M53.57,319.19c-.08-.05-.16-.1-.24-.16-.08-.05-.16-.1-.23-.16.02.24.05.47.47.31h0Z"/>
  <path class="c" d="M148.04,210.94c.19.58.52.76.53.95.03.97-.03,1.94-.06,2.91-.93-.24-1.85-.47-2.78-.71-.23-.06-.52-.09-.68-.24-5.83-5.74-11.7-11.34-14.48-19.48-1.08-3.17-2.66-6.22-3.47-9.52-.14-.56.13-1.52.54-1.8.37-.25,1.38-.02,1.81.34,4.13,3.42,6.47,8.14,9.16,12.64,2.96,4.95,6.25,9.7,9.4,14.93h0Z"/>
  <path class="c" d="M88.99,188.11c1.05-3.89,2.42-7.33,3.07-10.89.75-4.16,3.06-7.68,4.18-11.66.12-.44.66-.83,1.09-1.1.48-.3,1.18-.74,1.58-.58.49.19,1.08.96,1.05,1.44-.13,2.26-.29,4.54-.78,6.74-.57,2.61-1.38,5.17-2.27,7.7-.68,1.94-1.53,3.83-2.49,5.65-1.87,3.56-3.86,7.05-5.82,10.56-.18.31-.54.52-.82.78-.12-.34-.3-.68-.35-1.03-.43-2.6.97-4.82,1.56-7.6h0Z"/>
  <path class="c" d="M91.36,153.87c1.74-1.74,3.48-3.46,5.17-5.24.11-.11-.38-.69-.43-1.07-.24-1.82-2.14-1.72-3.15-2.67-.46-.44-1.72-.3-1.63,1.21.13,2.32.03,4.65.03,7.77h0Z"/>
  <path class="c" d="M82.3,140.88c-2.95,1.15-6.03,1.63-9.18,1.56-.48-.01-.95-.23-1.42-.35.47-.4.89-1.01,1.43-1.17,2.12-.61,4.29-1.04,6.41-1.64.56-.16,1.01-.71,1.52-1.08-.16-.15-.29-.34-.47-.45-3.24-1.99-6.5-3.94-9.73-5.96-1.28-.8-1.24-.15-1.62.93-.81,2.27-1.96,4.44-3.13,6.56-.25.46-1.13.61-1.76.76-.08.02-.48-.75-.53-1.18-.09-.78.12-1.61-.05-2.35-.59-2.5-1.18-5.01-1.99-7.44-.72-2.12-3.07-1.72-4.58-2.11-5.36-1.4-9.72-4.53-14.29-7.34-.49-.3-1.08-.47-1.62-.7.16.64.21,1.32.49,1.9,1.82,3.83,4.51,7.38,5.15,11.61.46,3.03,1.68,5.63,2.95,8.25.86,1.76,2.42,3.19,3.23,4.96,1.04,2.27,2.64,3.1,4.98,3.14,4.33.09,8.17-1.7,12.17-2.94.93-.29,1.79-.82,2.73-.98,3.44-.59,7.06-.65,10.29-1.81,1.32-.47,3.45.6,4.14-1.53-1.44-.21-2.89-.42-5.12-.62h0Z"/>
  <path class="c" d="M143.12,136.35c.46,2.57.74,4.93.97,7.31.03.34-.18.7-.27,1.05-.37-.3-1.01-.56-1.07-.9-.74-4.99-5.2-7.7-7.22-11.89-.52-1.09-1.15-2.13-1.64-3.23-.26-.59-.34-1.26-.5-1.89.71.12,1.48.1,2.11.39,3.62,1.68,5.39,4.97,7.03,8.34.11.22.26.41.59.82h0Z"/>
  <path class="c" d="M140.56,121.99c.26,0,.56-.08.78.01,3.32,1.37,4.34.92,5.13-2.3.44-1.8,1.7-2.73,3.4-3.24.73-.21,2.12.73,2.01-.85-.04-.54-1.12-1.19-1.85-1.46-1.13-.42-2.36-.66-3.58-.81-1.17-.14-2.29-.07-1.13,1.6,1.15,1.67-.68,2.97-.66,4.51-1.06-.17-2.12-.37-3.18-.49-.89-.1-1.79-.09-2.69-.14-2.05-.12-2.95-1.93-1.64-3.61.88-1.12.47-1.15-.55-1.12-.78.02-1.57-.03-2.35.01-.62.04-1.23.17-1.84.27.29.63.63,1.25.86,1.9.25.68.79,1.76.53,2.04-1.29,1.37-.09,1.74.76,2.05,1.7.63,3.47,1.08,5.99,1.61h0Z"/>
  <path class="c" d="M124.42,108.21c-.2-.39-.41-.79-.61-1.18-.32.28-.89.52-.93.83-.4,3.39.75,6.9-.79,10.22-.06.13.4.72.6.71.58-.03,1.2-.18,1.7-.46.17-.09-.05-.75.05-1.12.15-.53.42-1.02.64-1.53.51.34,1.18.57,1.5,1.03.69.99,1.08,2.19,1.82,3.13.46.59,1.34.85,2.03,1.25.1-.87.52-1.88.21-2.57-.39-.89-1.38-1.51-2.09-2.26-.61-.65-1.74-1.4-1.67-1.99.29-2.37-1.66-3.53-2.46-6.07h0Z"/>
  <path class="c" d="M51.01,112.74c3.09,2.04,5.98,3.87,8.86,5.73.3.19.49.54.73.82-.34.11-.68.28-1.03.33-4.75.67-8.12-1.93-11.24-4.92-.61-.58-.66-1.74-.97-2.63.87-.1,1.74-.28,2.61-.27.28,0,.57.49,1.04.94h0Z"/>
  <path class="c" d="M108.67,116.48c-1.14-3.71-1.49-7.33,1.86-10.12.38-.32.76-.71,1.2-.88.74-.27,1.53-.38,2.31-.56-.09.71,0,1.5-.3,2.11-1.51,3.17-3.11,6.3-5.07,9.45h0Z"/>
  <path class="c" d="M120.48,93.25c-.62-.39-1.25-.79-1.87-1.18.05.61.1,1.22.15,1.83.05.64-.06,1.34.17,1.89.8,1.9,1.7,3.75,2.64,5.58.07.14.67,0,1.03,0-.02-.19-.03-.37-.07-.55-.55-2.39-1.1-4.78-2.05-7.56h0Z"/>
  <path class="c" d="M134.85,71.01c.57-.57.89-1.02,1.32-1.3,1.38-.87,2.79-1.69,4.53-1.12-.76,1.19-1.29,2.64-2.32,3.52-3.55,3.06-4.72,7.49-6.87,11.35-.85,1.53-1.5,3.18-2.47,4.62-.23.35-1.47-3.83-.62-5.68,1.77-3.89,2.82-8.21,6.43-11.39h0Z"/>
  <path class="c" d="M3.97,84.59c1.3-1.08-.29-1.8-.34-2.7-.35.05-1.01.1-1.01.16-.01.7,0,1.42.16,2.1.08.32.52.56,1.18.44h0Z"/>
  <path class="c" d="M29.17,68.85c1.05,1.09,2.6,2.02,3.01,3.31.47,1.47,1.29.84,2.01,1.02-.14-.69-.06-1.56-.46-2.05-.97-1.2-2.11-2.27-3.28-3.28-.21-.18-.85.13-1.29,1h0Z"/>
  <path class="c" d="M39.79,63.73c-.35.09-.71.18-1.06.27.56,1.16,1.11,2.33,1.69,3.48.01.02.51-.15.5-.18-.23-1.06-.49-2.12-1.13-3.57h0Z"/>
</svg>