<?xml version="1.0" encoding="UTF-8"?>
<svg id="a" data-name="Layer 1" xmlns="http://www.w3.org/2000/svg" width="86.27" height="171.56" viewBox="0 0 86.27 171.56">
  <defs>
    <style>
      .b {
        fill: #fff;
      }
    </style>
  </defs>
  <path class="b" d="M13.29,167.8c0-.17.11-.26.22-.28,1.21-.5,2.37-1.16,3.44-1.81.04-.04.08-.06.13-.06.28-1.12.33-2.1.14-2.99-.15-.62-.41-1.19-.76-1.9-.06-.13-.11-.25-.16-.36-.17-.37-.33-.71-.45-1.09-.03-.06-.06-.13-.09-.2-1.9.53-3.82.49-5.56-.13-.07.03-.15,0-.24-.07-.04,0-.07,0-.11,0-.05.29-.12.57-.2.83-.03.09-.05.18-.08.27l.26.07c.11.05.18.13.21.23.04.1.03.21-.01.29-.06.11-.15.24-.34.24h-.15s-.26-.08-.26-.08c-.08.22-.18.44-.28.66-.05.09-.09.18-.13.28l.17.1c.09.05.16.15.18.26.02.1-.01.2-.08.28-.06.11-.15.22-.33.22-.07,0-.12-.03-.14-.06h-.03s-.12-.08-.12-.08c-.04.06-.07.13-.1.19l-.04.08c-.03.08-.07.16-.12.23-.02.03-.04.06-.05.09l.08.04c.09.01.17.05.22.13.07.1.08.23.04.37-.01.16-.16.28-.36.28h-.15s-.23-.08-.23-.08c-.07.11-.13.21-.19.31-.22.35-.43.7-.69,1.04,1.55-.16,3.23.32,4.5,1.3h.01c.19.2.21.44.05.6-.06.06-.15.15-.32.15-.06,0-.17,0-.26-.1-.94-.75-2.23-1.19-3.5-1.19-.12,0-.23,0-.34.01v.06h-.14c-.18,0-.38-.15-.41-.35-.59.61-1.3,1.12-1.99,1.6-.8.54-1.57,1.08-2.18,1.85l-.02.04c-.05.07-.09.13-.13.2,1.02.07,1.74.27,2.45.49l.25.07c.87.25,1.69.48,2.57.48h.06c.81,0,1.67-.16,2.88-.55.67-.17,1.26-.33,1.79-.65.54-.35.93-.8,1.09-1.29ZM12.38,165.58c.05-.1.13-.17.24-.2,1.19-.52,2.33-1.42,3.23-2.53.04-.09.11-.15.19-.18.13-.04.26,0,.4.09.06.03.12.11.14.2.02.12-.02.24-.12.34-.88,1.22-2.14,2.24-3.51,2.85h-.05s-.04.05-.04.05l-.08.02c-.17,0-.31-.14-.37-.2l-.02-.02v-.03c-.05-.13-.05-.25,0-.36ZM9.79,164.32h-.11l-.61-.12c-.08-.04-.16-.11-.21-.2-.06-.11-.07-.22-.02-.31.09-.25.29-.36.5-.29l.55.17c.12.04.2.11.25.19.04.08.05.18.01.29-.01.16-.16.28-.36.28ZM10.58,162.98c-.08.16-.23.24-.34.24-.06,0-.11-.02-.14-.04h-.04l-.5-.31c-.1-.03-.2-.13-.23-.25-.02-.1,0-.2.08-.28.05-.08.12-.14.22-.17.11-.04.21-.03.29.01l.5.28c.08.04.15.12.18.22.04.1.03.21-.01.29ZM11,161.67h-.1s-.53-.16-.53-.16c-.11,0-.22-.06-.28-.15-.07-.1-.09-.24-.05-.36h0c.04-.09.11-.17.2-.22.11-.06.22-.07.31-.02l.51.15c.11,0,.2.06.25.15.06.09.06.2.03.3-.01.2-.15.33-.36.33ZM10.26,168.11c-.09.08-.19.08-.25.08-.12,0-.22,0-.32-.1-.17-.28-.44-.43-.62-.53-.1-.03-.19-.11-.23-.22-.04-.1-.04-.21,0-.3.07-.21.3-.32.55-.24.34.17.63.39.94.7l.03.04c.06.11.07.28.03.4-.02.07-.07.13-.12.16Z"/>
  <path class="b" d="M1.1,42.07c.85.51,1.54.82,2.16.97l2.08.33c.53,0,1.05-.16,1.65-.35l.27-.09c.44-.16.89-.33,1.39-.44l3.87-.56c.8,0,1.52-.23,2.18-.49h.04c.59-.23,1.21-.45,1.82-.5.5-.09,1.11-.11,1.77-.05-.49-.4-.97-.79-1.45-1.2l-2.68-2.94c-.21.49-.58.86-.85,1.31-.07.12-.15.23-.22.34-.31.46-.54,1-.91,1.39-.05.06-.15.15-.26.15-.16,0-.24-.08-.3-.14-.07-.04-.12-.11-.13-.2-.02-.12.02-.25.12-.34.88-1,1.54-2.07,1.94-3.17l-.51-.55c-.61,1.59-1.63,3.04-2.95,4.2l-.04.03h-.05c-.06.03-.11.05-.16.05-.18,0-.27-.09-.32-.15-.16-.16-.16-.41,0-.58.97-.78,1.79-1.79,2.39-2.93-2.32,1.03-4.56,1.77-6.84,2.28h-.08c-.34,0-.41-.21-.41-.33-.03-.08-.02-.18.04-.26.07-.11.19-.18.32-.18,2.38-.53,4.81-1.38,7.2-2.52.06-.05.15-.05.23-.03.03-.06.05-.12.07-.18.04-.11.08-.21.13-.32v-.05c-.64-1.51-1.57-3.37-3.14-4.44-.41-.29-.89-.52-1.3-.7-.27-.17-.6-.33-.88-.44-.76-.44-1.3-.88-1.63-1.37-.38.92-.84,1.83-1.35,2.64-.14.25-.3.47-.46.69-.09.12-.18.24-.26.36-.11.16-.21.33-.32.49-.55.86-1.07,1.67-1.44,2.63-.31.63-.47,1.34-.63,2.03l-.02.11c-.06.2-.11.4-.16.6-.15.57-.31,1.16-.56,1.74-.29.58-.43,1.07-.43,1.49.05.61.46,1.23,1.1,1.65Z"/>
  <path class="b" d="M13.12,169.41c-.14.13-.31.25-.5.36-.64.35-1.35.58-2.01.78h0l-.25.07c-.95.25-1.84.49-2.82.49h-.06c-.96,0-1.86-.27-2.73-.53l-.29-.09c-.88-.26-1.68-.48-2.58-.54v.02c0,.25.16.53.41.53l4.39,1.05c1.39,0,2.9-.15,4.47-.44.92-.13,1.47-.39,1.73-.82.14-.23.19-.55.25-.89Z"/>
  <path class="b" d="M1.52,19.35l5.72.22.45-.66.18-.22-.33-.86-.22-.08c-.16.05-.32-.02-.44-.12h-.06l-5.25-.28c-.54,0-1.01.45-1.01.97,0,.57.42,1.02.96,1.02Z"/>
  <path class="b" d="M19.49,130.45c-.22-.09-.46-.19-.69-.27h-.02c-.8-.41-1.47-.71-2.25-.71l-1.55-.05c-.73,0-1.54-.16-2.4-.49l-.04,1.19c2.4.66,4.88.82,7.22.44-.09-.04-.17-.07-.26-.11Z"/>
  <path class="b" d="M59.51,119.45c.02-.21.04-.42.06-.63,0-.34.04-.65.09-.98l.02-.13.26-2c-.36-.2-.68-.39-1.04-.62l-.37-.22c-.88-.46-1.37-.93-1.65-1.55-.29-.68-.31-1.59.25-2.15-.02-.18-.03-.36-.04-.52-.02-.2-.03-.4-.05-.57q-.11-1.3-.53-1.87c-.04-.06-.08-.13-.12-.2-.08-.13-.16-.27-.26-.41-.03-.06-.06-.12-.09-.17-.12-.22-.27-.49-.32-.77-.06-.29-.06-.57-.06-.85v-.04s.05-.15.05-.15c0-.8-.2-1.59-.4-2.36l-.09-.34c-.33-1.08-.67-2.2-.5-3.34l-1.03-5.37c-.32-.12-.64-.33-.86-.51-.61.11-1.23.26-1.83.41l-.43.1c-2.07.48-4.21.98-6.43.98l-8.45-.61c-1.33-.28-2.49-1.04-3.19-2.11l-4.13-5.46-2.06-4.56-2.07-6.81c-1.14,1.64-2.42,3.13-3.65,4.58-1.94,2.19-3.65,4.19-4.87,6.52,0,.06-.02.1-.07.15-1.28,4.31-2.02,8.87-2.19,13.57v2.96c-.06,2.5-.11,5.09-.78,7.52-.36,1.49-1.03,3.04-2,4.62l-.23.29c-.05.09-.11.19-.18.3-.17.28-.35.57-.46.88-.58,1.43-.13,3.11.44,4.71l.06.23.08.21c.25.65.53,1.38.58,2.2.06.92-.2,1.74-.71,2.32.57.5,1.28.95,1.98,1.25.08,0,.12.04.21.13.93.35,1.82.53,2.52.53l1.56.11c.99,0,1.86.37,2.59.73.11.05.24.1.36.15.42.18.85.36,1.31.44.95.21,2.08-.06,2.81-.69l1.43-.92h.04c.06-.03.11-.05.17-.05.25,0,.49-.61.58-1.21.05-.43.05-.86,0-1.29v-.51c-.06-1.85.22-3.44.83-4.73l.11-2.4c0-.13.05-.19.1-.22.3-.59.61-1.16.92-1.72.2-.37.41-.74.6-1.11.25-.47.5-.92.75-1.38.25-.45.5-.91.74-1.38l.09-.15c.42-.73.86-1.49,1.06-2.35.31-1.04.34-1.89.07-2.54-.08-.09-.08-.18-.08-.24l.5-2.62c.54-2.63,1.22-4.83,2.09-6.73-1.26-1.62-2.58-2.99-4.03-4.19-.17-.17-.17-.41-.02-.58.05-.08.13-.13.24-.14.09-.02.19,0,.26.05,1.78,1.54,3.2,3.06,4.24,4.52.18.17.29.32.41.49l.11.15v.14l1.1,4.24.27.93,1.69,4.6c2.11,1.69,3.54,4.3,3.93,7.17l1.71,4.46c.6,1.03,1.36,1.89,2.27,2.53.08.08.17.16.17.28l.27,1.44c.61.89,1.36,1.55,2.17,1.91l1.97.28c2.25,0,4.4-.6,6.19-1.75l2.81-1.83c-.04-.99.06-2.02.16-3.01ZM16.95,101.72c.09-.18.32-.25.46-.25l.06.02c.15.08.24.23.24.4v.88c0,.17-.16.42-.41.42h-.06l-.04-.04s0,0,0,0c-1.06,2.55-1.46,5.08-1.2,7.51,0,.18-.15.43-.36.43h-.05c-.19,0-.35-.16-.36-.35-.33-2.93.26-5.96,1.72-9.01ZM13.21,118.76c.1-.16.33-.19.5-.1l.03.02c1.17,1.06,1.96,2.47,2.25,3.99.04.08.02.19-.03.27-.07.11-.19.18-.32.18h-.05c-.22,0-.36-.14-.36-.36-.27-1.32-.97-2.57-1.98-3.48-.07-.05-.12-.12-.13-.21-.02-.11.02-.23.1-.32ZM17.68,126.21c-.06,0-.16,0-.25-.08-1.65-.94-3.16-2.11-4.48-3.49l-.02-.03c-.08-.15-.08-.38.08-.54.09-.09.21-.13.33-.12.09.01.16.06.21.13,1.24,1.35,2.7,2.49,4.31,3.38.17.08.26.33.17.51-.08.16-.24.25-.34.25ZM24.06,125.9c-.08.08-.22.15-.37.15h-.17c-1.37-.7-2.82-1.2-4.44-1.55h-.02c-.25-.09-.37-.28-.31-.49,0-.08.06-.16.13-.22.11-.07.25-.1.38-.05.73.15,1.32.46,2,.67.2.06.4.13.59.2.66.24,1.41.38,2,.68.21.07.32.3.24.55l-.04.05ZM27.7,97.53l-1.37-5.39c-.32-.18-.65-.38-.97-.58-.34-.21-.69-.41-1.02-.61-.35-.19-.7-.4-1.03-.6-.34-.21-.7-.42-1.06-.61h-.01c-.22-.16-.24-.4-.16-.57.09-.18.35-.26.55-.18h.03c.4.28.82.53,1.26.78.28.16.56.33.84.5.36.22.72.43,1.09.64.35.2.69.4,1.04.61.09.02.13.11.15.16,0,.02.02.05.04.08l1.45,5.53c0,.29-.14.47-.36.47h-.05c-.17,0-.32-.09-.4-.24ZM28.73,107.79c-.08.17-.23.26-.4.26h-.1c-.12-.05-.21-.13-.25-.24-.04-.09-.04-.19,0-.28.82-2.41.75-5.13-.17-7.46-.07-.21.02-.4.23-.51.23-.08.42-.01.52.17,1,2.56,1.06,5.5.17,8.06ZM29.75,97.9h.06c.28-.01.4.12.45.23.45,1.4.68,2.85.68,4.31,0,.24-.17.42-.41.42s-.41-.17-.41-.42c0-1.51-.2-2.83-.6-4.04-.09-.18.08-.42.24-.5ZM37.4,98.36c-.17-.1-.19-.34-.1-.51l.03-.04c.18-.19.43-.2.58-.05l5.17,4.19c.45.4.92.8,1.1,1.39.05.41,0,.8-.06,1.22v.04c-.05.08-.05.17-.05.22-.22,1.23.26,2.58,1.29,3.72.92.97,2.08,1.66,3.22,2.33l.22.13c.14.09.22.21.24.34.01.1-.03.19-.1.26-.07.07-.16.15-.32.15h-.15l-.28-.16c-1.14-.67-2.43-1.43-3.43-2.53-1.16-1.22-1.75-2.88-1.52-4.31,0-.05.01-.12.03-.18.01-.05.02-.09.02-.13l.02-.13c.04-.27.09-.51.04-.73-.05-.4-.41-.71-.77-.97l-5.18-4.25ZM46.49,113.87c-2.71-2.45-5.03-5.47-6.87-8.99v-.02c-.05-.13-.04-.26.01-.36.05-.1.13-.16.24-.2.06-.03.16-.04.27,0,.1.04.18.1.23.19,1.73,3.41,3.93,6.29,6.7,8.79.09.08.13.19.13.3s-.04.21-.12.29c-.06.06-.15.15-.32.15-.11,0-.19-.08-.25-.14ZM49.01,121.73h-.03s-.2.01-.2.01c-.11,0-.25-.09-.31-.15l-.03-.04-1.54-3.09c-.09-.24-.01-.48.17-.57.26-.1.43.03.54.13l.03.04,1.55,3.11c.08.23,0,.46-.18.55ZM57.28,122.35c-.19,0-.38.01-.57.03-.2.01-.39.03-.59.03-.5,0-.95-.05-1.41-.17-1.15-.29-2.16-.97-2.78-1.88-.61-.9-.9-2.08-.8-3.23,0-.23.22-.35.41-.35.24,0,.42.18.42.42-.16.93.08,1.9.63,2.68.53.79,1.38,1.39,2.29,1.6.76.17,1.64.1,2.33.05.25,0,.43.17.43.42,0,.17-.15.41-.36.41Z"/>
  <path class="b" d="M21.55,125.06c-.11-.04-.22-.08-.33-.11.11.04.22.08.33.11Z"/>
  <path class="b" d="M14.41,87.59c.11-.28.22-.55.38-.78.01-.03.03-.06.05-.09,0-.04.02-.07.03-.09.01-.04.02-.06.02-.09v-.09l.09-.06s0,0,0,0c.02-.02.04-.03.06-.04h0c1.21-2.45,3.06-4.58,4.85-6.64l.18-.2c1.31-1.47,2.66-2.99,3.71-4.64.04-.04.06-.07.08-.1.03-.04.06-.09.1-.13l-1.3-4.29c-.04-.15-.07-.29-.1-.43-.02.02-.04.04-.06.06l-1.45,1.62c-.05.11-.2.18-.29.18-.11,0-.19-.08-.25-.13-.17-.09-.19-.33-.1-.51l.02-.03,1.49-1.66c.15-.15.35-.17.52-.06-.27-1.26-.48-2.52-.61-3.77-.01.02-.02.03-.04.05-1.04,1.04-1.96,2.14-2.74,3.3l-.02.03c-.06.06-.15.14-.31.14-.1,0-.19-.07-.21-.1-.2-.13-.22-.37-.14-.54.82-1.15,1.81-2.32,2.88-3.4.05-.07.12-.12.2-.13.11-.02.23.02.32.1-.04-.43-.07-.87-.1-1.3-.02.07-.05.13-.11.18-.97.86-1.82,1.9-2.53,2.8-.08.16-.21.16-.33.16-.06,0-.16,0-.25-.08-.16-.1-.18-.33-.1-.5.83-1.13,1.72-2.12,2.68-2.97.09-.09.21-.14.34-.12.09.01.16.06.2.13.04.04.06.08.08.13l.16-4.2c.39-1.91.61-3.77.66-5.69l2.06-8.99s-.08-.02-.11-.03c-.02,0-.04-.01-.06-.02h-.04c-.14-.05-.23-.05-.34-.05-.06,0-.11-.02-.15-.04h-.04l-.05-.04-1.99-1.27c-.09-.05-.18-.1-.27-.15-.22-.13-.44-.25-.67-.4-1.14,5.18-1.72,10.43-1.72,15.62-.05,4.36-2.44,8.42-4.54,12-.04.08-.09.17-.15.26,0,0,0,.01-.01.02l1.24-.74c.08-.04.16-.06.24-.06s.15.02.23.06l.04.02.02.04c.06.12.14.29.05.45-2.75,6.28-4.2,13.2-4.18,20.02,1.04-.65,1.88-1.64,2.33-2.73ZM22.15,72.25c.16-.17.41-.17.57-.02.08.05.13.13.14.24.01.09,0,.18-.05.26l-.02.03c-1.72,1.93-3.29,4.12-4.66,6.52-.02.15-.16.26-.36.26-.07,0-.11-.03-.14-.05h-.03c-.18-.11-.26-.35-.18-.57,1.26-2.28,2.85-4.51,4.71-6.67Z"/>
  <path class="b" d="M18.83,136.96c-.08,0-.15.03-.23.03.08,0,.15-.02.23-.03Z"/>
  <path class="b" d="M10.9,135.59c3.24,1.47,6.99,1.74,10.31.76.54-1.88.54-3.73.02-5.25-2.93.68-6.17.59-9.14-.3-.06,0-.17,0-.25-.06-.09,0-.2-.04-.29-.07-.9,1.38-1.16,3.29-.65,4.92ZM19.31,135.2c.25-.68.28-1.48.11-2.29-.06-.2.03-.39.24-.49.23-.07.43.04.52.3.21.8.19,1.75-.05,2.67-.06.21-.21.32-.41.32h-.1c-.22-.08-.32-.29-.32-.47v-.05ZM18.1,133.34c0-.19.13-.43.33-.45.2-.05.37.04.48.24v.04c.19.88,0,1.79-.49,2.46-.04.12-.2.19-.35.19-.02,0-.11,0-.19-.08-.16-.1-.24-.33-.15-.5.39-.61.53-1.3.38-1.9ZM14.41,132.75l.03-.04c.16-.16.39-.22.54-.14.18.09.26.34.18.52-.33.71-.35,1.56-.05,2.2.04.08.05.19,0,.29-.04.08-.1.15-.19.2-.03.05-.09.09-.22.09-.11,0-.26-.08-.34-.24h0c-.38-.88-.36-1.98.06-2.88ZM12.92,132.43c.04-.09.12-.16.23-.19.1-.03.2-.03.29.02.1.03.18.09.22.18.05.09.05.19.01.31-.2.5-.27,1.08-.22,1.71,0,.21-.18.43-.41.43s-.41-.16-.41-.36c-.05-.67.04-1.36.28-2.08v-.02ZM11.87,131.77c.04-.12.12-.2.23-.24.11-.04.24-.02.36.06.07.03.14.12.17.22.03.1.03.2-.01.29-.34.75-.4,1.53-.16,2.21.09.18-.07.42-.23.5h-.03s-.14.01-.14.01c-.2,0-.34-.12-.36-.28-.28-.92-.22-1.93.18-2.78Z"/>
  <path class="b" d="M18.22,145.95c.98-2.78,1.99-5.65,2.28-8.59-1.01.27-2.09.39-3.37.39-1.8,0-3.53-.28-5.14-.84-.67,2.56-.44,5.35-.23,7.82.03.48.07.96.11,1.43.04.46.08.9.11,1.34.16,3.5-.28,7.13-1.29,10.8,1.56.49,3.3.49,4.91,0-.12-.82-.06-1.65-.01-2.45,0-.15.02-.3.03-.44.33-2.85,1.26-5.67,2.1-8.1l.51-1.34ZM13.57,138.93v-.03c.06-.15.13-.25.24-.3.08-.04.16-.05.26-.02.19.01.33.19.33.41-.21,1.86-.23,3.76-.05,5.84,0,.18-.15.42-.36.42h-.06c-.17,0-.33-.15-.4-.29v-.05c-.16-1.79-.15-3.8.04-5.99ZM11.97,138.33c0-.19.18-.41.41-.41h.06c.11.07.3.16.3.41v.06c-.05,2.48-.12,5.3.27,8.03.03.08.02.18-.03.27-.07.11-.19.18-.32.18-.37,0-.41-.25-.41-.36-.46-2.77-.38-5.67-.28-8.18ZM12.65,157.07l-.08.61c0,.18-.19.34-.41.34h-.04c-.26-.09-.38-.29-.31-.51.02-.17.05-.37.08-.58.03-.2.05-.41.08-.6,0-.11.05-.35.41-.35.13,0,.25.07.32.18.05.09.07.19.04.27-.03.22-.06.43-.09.64ZM12.7,151.93c0,.07-.02.14-.02.21-.09.79-.09,1.62-.27,2.36,0,.11-.11.27-.41.27h-.05c-.09,0-.18-.05-.24-.13-.08-.11-.1-.24-.06-.37.37-1.75.55-3.23.55-4.66,0-.24.18-.41.41-.41.2,0,.36.19.36.41,0,.81-.18,1.55-.26,2.33ZM13.73,157.14c-.02.18-.18.33-.36.33-.09,0-.12-.02-.18-.06-.06-.02-.13-.06-.17-.12-.08-.11-.1-.25-.06-.38h0c.23-.66.37-1.42.43-2.45,0-.11.06-.23.16-.3.08-.06.18-.07.27-.05.11,0,.22.07.29.16.06.08.08.18.05.27,0,.85-.15,1.72-.44,2.6ZM15.44,157.6h0c0,.2-.11.37-.3.47h-.03s-.09.01-.09.01c-.18,0-.33-.16-.4-.3v-.05c-.13-1.25-.11-2.42.04-3.46,0-.21.21-.34.41-.34h.06c.21,0,.36.25.36.42-.16,1.04-.18,2.12-.06,3.24ZM15.17,147.69l-.22,1.16c0,.21-.17.39-.41.39h-.14v-.07c-.08-.02-.13-.07-.18-.13-.06-.09-.08-.2-.04-.31l.16-1.19c.44-2.52.83-5.12,1.22-7.62l.17-1.08c.09-.25.28-.36.48-.31.2.02.33.25.33.42-.51,3-.96,5.97-1.38,8.75ZM16.19,150.02h-.17c-.08-.06-.16-.13-.2-.22-.06-.11-.07-.21-.03-.3l2.7-10.59c.08-.22.23-.32.47-.32h.06c.21.12.3.31.23.51l-2.7,10.59c0,.15-.17.32-.36.32Z"/>
  <path class="b" d="M14.09,142.07c0-.11,0-.21,0-.32,0,.11,0,.21,0,.32Z"/>
  <path class="b" d="M6.68,25.29c-.15.27-.27.57-.4.9.72-.33,1.41-.74,2.08-1.14l.26-.16c.15-.08.29-.17.43-.25-.38.08-.76.18-1.18.28l-.07.07h-.15c-.36.1-.67.21-.97.31Z"/>
  <path class="b" d="M7.42,16.92l.08.07.45.15c.09.01.15.09.19.15.01.02.03.04.04.05l.03.04.5,1.21c.08.15.01.33-.09.43l-.27.32-.47.67c-.01.13-.09.21-.14.26l-.03.06v.07c-.06.37-.12.78-.22,1.14-.05.36-.1.73-.15,1.05l.55,1.45c1.33-.32,2.64-.54,3.64-.69h.1c.44-.19.93-.37,1.54-.39.5-1.07.97-1.98,1.44-2.77v-.13l.06-.05v-.05l.07-.07s.04-.08.08-.1c.09-.19.19-.38.29-.57l-.36-.51c-.22-.33-.43-.65-.55-1.02-.05-.03-.08-.09-.08-.16h-.01c-.06-.08-.08-.14-.09-.18-.09-.17-.19-.42-.26-.68-.03,0-.07-.02-.11-.05-.08,0-.15-.02-.21-.04-.05-.01-.09-.02-.12-.02-.12,0-.21-.09-.26-.15l-.06-.08c-.12-.16-.32-.43-.44-.43-.05,0-.15.09-.22.16-.05.11-.14.3-.14.42v.05s-.1.22-.1.22c-.06.06-.13.13-.23.15-.31.11-.62.05-.92-.17-.08-.02-.14-.08-.2-.13-.02,0-.06-.03-.1-.06-.05-.03-.11-.08-.14-.08h-.06s-.07-.03-.16.13c-.02.03-.03.05-.05.07-.08.21-.26.3-.5.23-.52-.12-.99-.42-1.28-.83l-.26-.25s-.01.02-.02.02c-.02.03-.04.06-.06.08l-.76.98h.06Z"/>
  <path class="b" d="M14.87,168.35l.05.05s.06-.02.09-.04c.06-.02.12-.05.18-.06.05-.05.12-.1.2-.11l.97-.36.11-.29c.09-.25.2-.52.29-.78-.78.47-1.54.88-2.27,1.2.08.04.15.09.2.15.06.06.12.12.18.23Z"/>
  <path class="b" d="M34.8,16.89l.8.32c.19.1.26.29.19.5l-.22.93-.27,1.39.82,2.45c.05.14.03.28-.04.39-.04.06-.1.1-.17.12-.04.04-.09.06-.15.06-.18,0-.33-.15-.4-.3l-.43-1.3-.61.57,1.07,4.22,1.18.52c.11,0,.17.05.19.09l.11.03,2.48,1.1.99.39c.11.04.2.12.25.22.04.1.04.21,0,.3-.07.15-.23.24-.4.24h-.17s-.68-.33-.68-.33l-3.2,1.52-.23.21c.38.12.72.3.99.54,1.36-1.05,3.05-1.67,4.78-1.72h.06c1.83,0,3.62.66,5.05,1.86.11.11.17.23.17.35,0,.09-.03.18-.1.25-.16.15-.4.15-.54.08l-.03-.02c-1.22-1.07-2.88-1.68-4.54-1.68h-.06c-1.59,0-3.29.65-4.54,1.73-.13.06-.27.08-.37.05-.07-.02-.13-.07-.16-.13-.48-.46-1.2-.72-2.04-.72h-.06c-.16,0-.37,0-.57.05-.78.11-1.48.38-2.17.65-.07.05-.16.07-.23.07l-.07.05-.12.04c-.13.04-.29.09-.4.16l-.04.02c-.9.29-1.84.56-2.63.22-.12-.04-.25-.11-.35-.17-.04-.02-.07-.04-.1-.05-.22-.16-.37-.26-.55-.26h-.22c-.11,0-.19.03-.31.07l-.09.03c-.14.05-.4.12-.6.12-.57.12-1.09-.11-1.6-.34-2.09-.97-4.03-2.14-5.77-3.5-1.11-.9-2.28-1.89-3.29-3.07-.15-.02-.23-.14-.28-.24v-.06s-.01-.04-.01-.04c-.35-.27-.62-.6-.89-.92l-.14-.17c-.12,0-.24-.01-.36-.01-1.66,0-3.07.85-4.56,1.74l-.13.08c-.83.52-1.75,1.07-2.79,1.52.26.42.72.8,1.4,1.17.28.17.55.33.81.43.45.2.94.46,1.46.78,1.81,1.28,2.81,3.34,3.47,4.98.11.15.16.33.21.48l.65.76,3.19,3.42c1.08.87,2.15,1.72,3.15,2.34.04.01.07.03.09.05h.03l.05.05c.09,0,.17.05.2.13,0,.01,0,.02.01.03l.03.03c.28.2.59.37.89.54.11.06.21.11.31.17l1.91,1.25c.18,0,.33.07.43.11.06,0,.16,0,.24.06l1.83.11h1.81l13.25.77c.09-.05.21-.05.31,0h.01l1.11.06,2-.39s.04-.01.05-.02c.03-.02.08-.04.14-.04l3.12-.6h0c.18,0,.41.14.43.33.03.09.02.18-.02.26-.05.1-.15.18-.29.22l-2.34.45c.86.74,1.92,1.23,3.09,1.44h.04c.19.11.3.28.3.47l-.02.06c-.06.14-.21.3-.4.3h-.05c-1.54-.29-2.94-1.03-3.96-2.09l-2.04.38h-.02s-.3-.03-.3-.03c1.14,1.16,2.63,2.08,4.33,2.68.23.08.31.3.31.46l-.02.06c-.07.15-.23.3-.4.3-.06,0-.12-.03-.16-.08-1.99-.66-3.8-1.85-5.25-3.45l-13.24-.72c-.39-.05-.82-.05-1.19,0h-.68l-1.16-.1-2.07,9.05c-.12,2.05-.36,3.95-.72,5.63l-.16,4.12c.1,2.01.43,4.13,1.04,6.64l1.32,4.47,2.26,7.57,2.03,4.4,4.01,5.39c.64.91,1.59,1.55,2.68,1.83l8.42.61c2.24,0,4.51-.59,6.52-1.1l2.15-.5c.11-.03.24-.06.36-.08.11-.03.23-.05.33-.08.24-.14.48-.33.69-.53-.05-1.9.05-3.85.17-5.86l.02-.44c.16-3.56.32-7.25-.68-10.67-.57-1.98-1.49-3.91-2.31-5.56-.13-.28-.26-.56-.39-.84-.87-1.86-1.78-3.79-2.21-5.87-1.2-5.74,1.02-11.96,2.49-16.09.27-.78.47-1.52.66-2.23l.11-.41c.08-.27.16-.53.23-.79.25-.84.5-1.72.88-2.65.76-1.82,1.55-4.19.93-6.37-.38-1.26-1.22-2.44-1.91-3.38l-3.01-4.05c-.06-.02-.11-.05-.17-.08-.1-.05-.21-.09-.33-.12l-.04-.02c-.15-.1-.31-.15-.51-.2-.15-.07-.31-.15-.32-.32-.06-.13-.06-.26-.06-.31l.16-.69-.19-.28c-.36-.52-.7-1.02-1.07-1.48-.45.93-1.06,1.96-2.04,2.72l-2.97,1.69h-.2l-1.83-.11-.04-.04s-.03-.01-.05-.02c-.05-.02-.11-.04-.16-.09l-2.09-1.99c-.08-.07-.13-.15-.17-.2-.02-.03-.04-.06-.06-.08-.12-.11-.18-.18-.25-.32-.08-.14-.08-.38.08-.54l.05-.04c.22-.07.45,0,.54.16.03.03.05.07.08.11.02.04.05.07.07.09.11.11.18.18.23.29l1.99,1.83,1.51.16,2.83-1.58c.78-.64,1.42-1.58,1.92-2.86l.03-.04s.02-.04.03-.06c.01-.04.03-.1.06-.14.08-.19.15-.37.21-.55.06-.19.13-.38.22-.57,0-.04.02-.08.03-.12,0-.02.02-.06.02-.07l.02-.06s.03-.08.04-.12c.02-.05.04-.1.07-.17.08-.17.14-.37.2-.56.07-.22.15-.44.24-.64.02-.04.03-.07.03-.1.02-.06.04-.13.1-.2,0-.01,0-.02,0-.03,0-.08.05-.14.1-.19.02-.09.05-.2.09-.31,0,0,0,0-.01,0l-.06.05c-.14.07-.27.07-.39.07-.2,0-.39-.07-.52-.19-.12-.07-.18-.18-.18-.31h-.04c-.21.29-.32.61-.32.91,0,.22,0,.49.05.81.06.41.12.85,0,1.31,0,.1-.08.17-.13.23l-.05.04-1.66.78h-.11c-.13,0-.29-.06-.38-.15l-.03-.05c-.11-.33.14-.49.22-.54l1.38-.69c.02-.15.01-.32,0-.5,0-.11-.02-.23-.02-.34v-.05c-.06-.3-.1-.59-.05-.91.05-.97.72-1.79,1.49-2.53l-2.23-.31c0,.08-.01.16-.04.26l-.03.05c-.07.07-.21.15-.32.15-.06,0-.11-.02-.14-.04h-.04l-.05-.04c-.91-.59-3.67-.74-4.41-.59-.09.04-.19.02-.29-.04-.09-.06-.16-.15-.16-.24-.06-.19.03-.38.24-.48h.03c.5-.11,1.85-.13,3.1.08l-2.42-1.69h-.06l-.04-.04-1.3-1.4c-.59.39-1.05.91-1.28,1.42-.17.28-.27.49-.32.74v.03c-.08.15-.24.25-.41.25h-.1c-.12-.05-.21-.13-.25-.23-.04-.09-.04-.19,0-.28.06-.29.18-.57.34-.85.39-.67.92-1.24,1.5-1.62l-.3-.34c-.47.35-.88.8-1.24,1.38-.08.09-.17.18-.34.18-.06,0-.16,0-.25-.08-.09-.05-.15-.15-.17-.25-.02-.11.02-.21.1-.29.35-.56.81-1.08,1.33-1.52l-.27-.3c-.48.31-.85.76-1.05,1.23,0,.1-.05.17-.08.23,0,.02-.02.03-.03.05-.02.17-.18.32-.36.32-.1,0-.13-.02-.19-.08-.2-.11-.28-.3-.21-.49l.17-.35c.26-.57.72-1.12,1.25-1.47l-.16-.13c-.42.21-.77.56-1.13,1.13l-.03.04c-.06.06-.15.14-.31.14-.11,0-.14-.02-.21-.1-.23-.15-.2-.35-.14-.53l.02-.03c.36-.51.77-.94,1.22-1.27l-.08-.08c-.33.25-.67.54-.97.83-.05.11-.2.18-.29.18-.07,0-.17,0-.26-.1-.18-.18-.21-.43-.05-.58.3-.31.65-.65,1-.92l-.06-.07-1.58,1.63.37,1.58v.23s-.55,1.27-.55,1.27l1.29,3.6c.09.02.15.08.2.12ZM45.86,38.94h-.03s-.14.01-.14.01c-.19,0-.34-.11-.36-.27-.72-1.92-2.35-3.51-4.27-4.15-.23-.11-.32-.3-.25-.51v-.02c.05-.11.17-.2.28-.24.09-.02.18-.02.24.01,2.13.71,3.96,2.5,4.76,4.66v.05c.01.17-.08.38-.24.45ZM25.66,46.05c.11-.2.28-.29.48-.24.09.01.18.07.24.16.06.1.08.22.03.31l-.76,3.67c0,.16-.17.33-.36.33-.08,0-.13-.02-.16-.07-.09-.03-.16-.08-.21-.16-.05-.09-.06-.19-.03-.28l.78-3.72ZM24.38,52.02v-.05l.02-.04c.13-.19.27-.27.46-.33.26-.13.6-.16.93-.05.34.11.63.36.78.67.14.28.16.62.05.95-.11.34-.35.62-.65.77-.15.13-.4.13-.58.13-.5,0-.92-.25-1.17-.68-.25-.43-.18-1.02.15-1.39ZM23.17,61.17l.72-6.3c0-.2.14-.34.36-.34h.06c.11,0,.36.04.36.42l-.72,6.31c0,.2-.14.34-.36.34h-.05c-.11,0-.36-.04-.36-.41v-.02ZM23.01,64.44c-.25-.7.09-1.49.74-1.73h.08c.29-.11.62-.1.92.04.34.15.6.43.72.76.18.68-.18,1.42-.8,1.67-.13.06-.31.06-.44.06-.56,0-1.05-.32-1.23-.81ZM27.77,78.26h-.03s-.14.01-.14.01c-.17,0-.33-.09-.4-.24l-1.61-4.37-1.83-6.84c0-.23.1-.39.31-.46.19-.09.42.07.51.23l1.77,6.82,1.59,4.35c.04.07.04.18,0,.28-.03.1-.1.18-.19.23ZM28.94,50.7l-.03.02h-.2c-.1,0-.25-.08-.32-.15l-.03-.04c-.08-.16-.02-.39.14-.54l.03-.02c3.04-1.72,6.23-2.9,9.47-3.49.09-.04.21-.02.31.05.08.06.13.15.17.26v.04c.01.2-.11.41-.35.41-3.29.67-6.39,1.84-9.2,3.46ZM50.6,73.72c-.11-.26-.21-.53-.32-.8-.14-.35-.27-.69-.41-1.02-.3-.88-.63-1.76-.94-2.48-.06-.1-.06-.2-.04-.26.02-.1.1-.19.22-.25.1-.08.21-.07.27-.05.1.03.18.11.24.22.4.84.73,1.69,1,2.5.1.24.19.49.3.75.23.58.46,1.18.69,1.73.08.16,0,.33-.08.43-.08.08-.22.15-.32.15-4.48-.73-8.85-.6-12.65.38h-.02s-.08,0-.08,0c-.05,0-.14,0-.23-.06-.1-.03-.19-.13-.19-.29-.36-1.7-1.28-3.58-1.79-4.56-.04-.05-.07-.12-.07-.2,0-.08.03-.15.09-.2.05-.06.12-.12.25-.19h.04c1.13-.18,2.23-.29,3.38-.35.26,0,.42.18.42.36,0,.25-.17.42-.41.42-.32.04-.66.07-1,.1-.56.05-1.14.11-1.72.2.33.67,1.08,2.29,1.49,3.87,3.59-.84,7.7-.97,11.87-.39ZM43.92,24.75c-.06.1-.17.17-.29.18-.14.05-.31.05-.47.05-.58,0-1.08-.14-1.46-.41-.16-.08-.24-.33-.16-.5.03-.09.18-.3.55-.18l.03.02c.38.23.85.32,1.4.25h.07c.17,0,.34.1.36.33.03.09.02.18-.04.27ZM44.81,22.94c.19,0,.41.18.41.41,0,.18-.15.33-.37.41h-.02s-.35,0-.35,0c-.52,0-.95-.05-1.41-.32-.1.06-.26.1-.36.1-.57,0-1.15-.09-1.86-.28-.18-.09-.35-.33-.25-.52.08-.22.3-.3.46-.3h.04c.59.18,1.1.28,1.55.28.04-.05.1-.09.17-.11.09-.03.17-.03.26,0,.13,0,.25.07.33.13.4.2.94.2,1.41.2ZM42.94,21.52c.05.15.05.28,0,.38-.05.1-.13.17-.24.2h-.02s-.13,0-.13,0c-.1,0-.25-.08-.32-.15l-.02-.03c-.3-.6-.08-1.4.49-1.78.12-.08.24-.11.37-.07.1.03.18.09.22.18.09.28.05.49-.12.57-.12.06-.21.17-.25.31-.04.13-.03.28.03.38ZM40.07,16.48h.01l1.13.11s.07-.05.13-.05c.06,0,.11.02.14.04.01,0,.03.01.03.01l1.5.22s.11,0,.19.06h0l.8.17h0c.2,0,.33.21.33.41v.04c-.08.2-.22.32-.41.32h-.09s-.57-.15-.57-.15c-.23.31-.46.47-.79.53-.13.06-.26.06-.38.06-.26,0-.54-.04-.81-.32-.18-.13-.29-.33-.31-.58h0c-.33-.05-.62-.09-.92-.09-.24,0-.41-.18-.41-.42,0-.2.19-.36.41-.36ZM34.55,14.73c.18-.09.31-.27.31-.43s-.05-.38-.26-.48l-.04-.03c-.16-.16-.16-.39-.08-.54.05-.09.13-.16.23-.18.11-.03.24,0,.36.07.36.24.61.72.61,1.16-.06.5-.36.92-.78,1.11-.06.06-.09.08-.19.08-.19,0-.34-.11-.36-.27-.06-.18.02-.4.19-.49Z"/>
  <path class="b" d="M24.06,63.47h-.06c-.13.1-.24.25-.28.39-.02.09-.01.17.03.24v.03c.1.25.4.38.67.3.2-.08.34-.4.29-.67-.08-.18-.38-.36-.65-.28Z"/>
  <path class="b" d="M24.52,18.51c.21.36.41.71.35,1.21,0,.15-.02.28-.08.4l8.49.27,1.3.05-.11-.35v-.11l.19-.98-10.16-.53.02.04Z"/>
  <path class="b" d="M22.52,29.98c-.3-.17-.59-.34-.88-.52.29.18.58.35.88.52Z"/>
  <path class="b" d="M24.79,29.68c-.13,0-.19-.04-.22-.09-.08-.05-.13-.11-.15-.19-.03-.12.01-.24.11-.34.88-1.19,1.83-2.29,2.83-3.28-.5.09-1.01.19-1.47.36l-6.04,1.96c1.53,1.14,3.19,2.12,4.94,2.92l.14.05c.37.14.69.26,1.04.27.07-.03.15-.04.23-.06.06-.01.13-.02.2-.05.06-.03.16-.08.26-.09.06-.37.13-.78.2-1.18l.12-.71.03-.03s.03-.04.04-.05c.05-.06.1-.14.19-.15.65-.25,1.22-.53,1.78-.89-.18-.08-.34-.15-.51-.22-.25-.11-.5-.22-.79-.33-.13-.07-.25-.16-.25-.35,0-.17.09-.26.15-.32.69-.45,1.37-.93,1.88-1.5-.09.02-.18.04-.27.05-.18.04-.37.07-.55.12-1.22,1.17-2.41,2.51-3.54,3.99-.11.11-.21.11-.33.11Z"/>
  <path class="b" d="M15.42,18.31l.52.73.02.13.04.04v.07c.09.16.15.35.19.52,0,0,.01,0,.02,0,.06.01.13.03.19.01.02-.06.05-.11.07-.15.01-.02.02-.05.04-.07.15-.36.31-.73.26-1.02l-.49-1.19c-.08-.22,0-.42.18-.51.1-.07.2-.06.27-.05.1.03.19.11.25.22l.55,1.28c.12.57-.07,1.06-.23,1.49l-.06.15c-.05.09-.09.19-.14.32v.09l-.04.04v.03l-.03.04c-.05.11-.1.2-.1.27,0,.17.07.2.17.25l.03.02c.08.02.32,0,.46-.19v-.07l.04-.04s.05-.05.07-.06h0s.04-.05.04-.05c0,0,.01-.01.01-.01l.02-.07.5-.83.31-.83c-.05-.26-.11-.52-.16-.73-.03-.13-.07-.28-.11-.42-.04-.16-.09-.32-.12-.47-.03-.08-.02-.18.02-.26.05-.1.15-.18.29-.23.07-.04.18-.04.27.03.11.06.17.17.18.29.11.29.16.57.22.89.11.25.16.53.22.8v.06s0,.22,0,.22l-.38.92c-.01.07-.05.13-.08.16-.07.13-.14.25-.2.38-.07.15-.15.29-.23.44l-.03.04s-.03.03-.04.04c.09.04.14.04.18.04.16-.04.5-.31.93-.98.47-.84.53-1.98.58-2.99v-.04c0-.23.18-.4.42-.4h.04c.22.08.37.24.37.41-.05,1.12-.11,2.36-.74,3.44-.04.06-.08.12-.11.18-.01.02-.03.05-.04.07l.53-.08c.32-.56.72-1.04,1.13-1.35.06-.06.12-.1.16-.12,0,0,.01,0,.02-.01,0-.03-.02-.09-.03-.12-.02-.05-.04-.11-.04-.16l-.1-.25c-.18-.42-.29-.82-.34-1.25,0-.43.09-.77.27-1.04l-1.67-.41c-.17-.05-.3-.08-.41-.04h-.04c-.07,0-.16.05-.26.09l-.38.19c-.25.05-.59.08-.82-.08-.09-.04-.16-.1-.21-.18-.02,0-.03.02-.06.03-.02.01-.04.02-.07.04l-.09.09c-.12.12-.31.31-.62.37-.18.07-.41,0-.6-.05h-.2c-.28-.04-.57.07-.9.35-.14.14-.29.34-.45.59.11.31.32.63.53.94Z"/>
  <path class="b" d="M22.68,16.54c-.27.15-.45.47-.45.8,0,.25.08.49.17.74.04.11.07.22.11.33l.11.27-.13.04.13-.04c.06.18.18.56-.01.88-.07.21-.29.34-.39.39-.41.31-.71.67-.92,1.12v.02c0,.07-.04.13-.08.16,0,.01-.02.02-.03.04v.11h-.11s-.07.05-.14.05l-1.54.22s-.09,0-.15-.02c-.16.14-.33.19-.47.24h-.04s-.16,0-.16,0c-.26,0-.49-.08-.69-.25-.2.1-.41.19-.64.19-.12,0-.25,0-.39-.07-.46-.11-.75-.55-.68-1.08v-.02l-.89-.04c-.4.72-.82,1.49-1.19,2.32h.17c.18,0,.27.09.32.15.36.47.72.88,1.09,1.21,1.93-.67,4.03-1.08,6.23-1.19l1.82-2.63c0-.08.05-.22.15-.28.1-.2.19-.39.24-.59,0-.17-.11-.43-.32-.78-.1-.15-.22-.32-.24-.51-.05-.05-.1-.13-.11-.23-.07-.12-.1-.24-.12-.35-.01-.05-.02-.1-.04-.15-.06-.31-.11-.5-.21-.7-.05-.14-.23-.32-.39-.36Z"/>
  <path class="b" d="M35.93,8.18s.02.01.04.02c.03.02.08.04.12.09l.04.04v.05l.57.62.75.75v.06l.73.73,2.22,2.33,5.21,1.33h.01c.1,0,.32.05.54.16.05,0,.11.01.18.06l5.46-.06c1.46-1.75,1.75-3.19,1.75-3.2.1-.56-.23-1.15-.54-1.73-.28-.51-.57-1.02-.62-1.6-.06-.33-.06-.67-.06-1.01,0-.42,0-.9-.2-1.26-.22-.38-.76-.65-1.15-.83-.18-.12-.39-.22-.54-.27-.86-.48-1.45-1.19-2.02-1.87l-.38-.43c-.51-.56-1-1.1-1.6-1.47-1.01-.62-2.36-.86-3.71-.64-1.17.14-2.28.55-3.36.95-.18.07-.36.13-.53.2l-.19.08c-.6.25-1.23.51-1.77.9-.53.44-.82.95-.88,1.56v.08l1.03,3.43,3.98,4.31,2.18.82c.17.08.34.32.24.52-.08.15-.23.24-.4.24h-.16s-2.32-.92-2.32-.92l-.05-.06-4.05-4.39c-.06-.02-.09-.08-.11-.1,0-.01-.02-.03-.02-.04l-.03-.02v-.04s-.61-2.03-.61-2.03l-.33,2,.56.61ZM45.35,10.2l-.04.03c-.24.09-.39.19-.55.34-.04.1-.06.23-.05.29l.04.04c.05.05.11.11.17.16.23.34.17.77-.16,1.18l-.02.02h-.03s-.06.06-.1.09c-.04.05-.1.1-.18.14s-.17.13-.21.21l-.03.04c-.05.06-.15.15-.32.15-.1,0-.18-.07-.21-.09-.2-.14-.22-.37-.13-.54.13-.2.31-.32.41-.37.05-.1.12-.16.22-.22.03-.06.05-.12.06-.17h0c-.06-.03-.12-.1-.14-.17-.26-.35-.26-.83.02-1.24.22-.27.47-.4.75-.53l.13-.06c.08-.04.18-.05.29-.02s.18.1.23.19c.1.27-.02.43-.13.55ZM46.45,5.68l-.14.13c-.33.32-.61.6-.69.95,0,.08,0,.15-.05.27,0,.17,0,.39-.07.57-.12.3-.3.49-.46.65l-.12.12c-.16.2-.18.34-.18.4,0,.2-.11.37-.3.46h-.03s-.09.01-.09.01c-.17,0-.33-.15-.4-.37v-.04c-.01-.21.05-.61.41-.98l.11-.11c.03-.06.1-.13.16-.21.05-.06.1-.12.13-.17,0-.06.02-.12.03-.18.02-.06.03-.12.03-.16,0-.16,0-.29.06-.43.13-.67.62-1.14,1.09-1.5.15-.14.43-.14.57.01l.03.04c.08.16.08.45-.09.56ZM51.35,11.79v.03c-.08.15-.24.3-.41.3h-.1c-.22-.08-.32-.3-.32-.47v-.04c.12-.39.1-.78-.04-1.06-.03-.06-.05-.11-.06-.16-.02-.04-.03-.07-.05-.12-.02-.05-.05-.08-.08-.12-.03-.05-.06-.09-.09-.16-.23-.5-.2-.99.06-1.45.08-.16.3-.2.55-.12l.05.04c.16.16.15.4.08.54-.09.14-.09.39,0,.67.02.04.04.09.05.13.01.04.02.07.04.11.06.07.12.18.17.3.19.57.23,1.08.12,1.58ZM49.15,5.54l.03.02s.06.02.09.04c.08.03.18.06.27.16.16.1.23.26.28.37v.03c.06.05.08.1.09.15.08.16.2.25.38.39l.1.09.04.08c.38.33.57.63.63,1,0,.24-.13.41-.37.49h-.02s-.02,0-.02,0c-.24,0-.41-.18-.41-.42,0-.15-.12-.33-.33-.5l-.12-.07-.11-.11c-.17-.16-.34-.33-.45-.6-.04-.03-.06-.06-.08-.09,0-.01-.02-.02-.03-.04l-.04-.04v-.05s-.01-.05-.03-.08c0,0-.02,0-.05,0h-.15c-.44-.13-.85-.49-1.03-.91-.07-.2.02-.4.23-.51h0c.16-.09.43-.02.52.17.09.23.26.37.51.42h.06ZM46.7,2.57c.68-.16,1.27.01,1.58.43.25.25.36.58.3.93,0,.31-.14.62-.43.9-.27.21-.58.32-.87.32-.25,0-.45-.07-.67-.18-.52-.29-.8-.87-.74-1.52.06-.43.37-.77.81-.89ZM40.84.87h0c.27-.12.58-.07.87-.11,0,0,.01,0,.02,0,.34-.05.65-.18,1.01-.12.46.05,1.03.18,1.68.39.71.22,1.42.51,1.79,1.11.13.13.11.38-.08.56l-.04.04h-.05c-.05.03-.1.05-.16.05-.11,0-.27-.08-.34-.24-.22-.29-.62-.52-1.29-.7-.61-.24-1.13-.39-1.58-.44-.62-.07-1.07,0-1.47.21-.18.09-.42,0-.51-.18-.09-.23-.01-.48.17-.57ZM39.06,5.95l-.09-.1.07.12c-.06.06-.13.13-.24.13-.17,0-.26-.09-.31-.15-.09-.08-.13-.19-.13-.3s.04-.21.12-.29c1.61-1.37,3.66-2.12,5.7-2.12.43,0,.85.03,1.26.1h0c.1,0,.23.07.29.18.05.09.07.18.04.27,0,.12-.07.33-.41.33-.39-.06-.77-.06-1.1-.06-1.97,0-3.82.67-5.2,1.9Z"/>
  <path class="b" d="M37.62,28.21c0,.21-.08.48-.21.7l1.01-.47-.79-.33v.11Z"/>
  <path class="b" d="M86.26,26.38c.05-.64-.18-1.33-.63-1.89-.34-.49-.83-.91-1.68-1.46-1.1-.65-2.96-1.74-4.51-1.86l-31.29-1.54s0,0,0,.01c-.01.04-.03.09-.06.14-.08.21-.14.41-.2.6-.05.15-.1.3-.16.46l30.53,1.05c.89.05,1.6.44,2.3,1.26.57.7.96,1.49,1.19,2.02l.18.31c.38.76.74,1.49,1.32,1.96.6.5,1.43.68,2.01.47.55-.25.96-.87,1.01-1.54Z"/>
  <path class="b" d="M34.9,26.91c-.08-.02-.14-.09-.19-.15-.01-.02-.03-.04-.04-.05l-.03-.03v-.04s-.88-3.6-.88-3.6l-1.55,5.05,2.35-.45.93-.47-.6-.26Z"/>
  <path class="b" d="M34.25,29.26l.05-.77-2.34.46-.19.72v.53l.05.68c.67-.26,1.32-.45,1.95-.54.22-.05.48-.06.71-.06l.94-.42.08-.06.09-.04.07-.08h-.98c-.17,0-.26-.09-.32-.15-.1-.1-.1-.2-.1-.26Z"/>
  <path class="b" d="M24.92,53.07c.06.1.2.2.36.24.13.03.23.02.32-.03.21-.13.35-.44.22-.7-.04-.11-.15-.19-.28-.23-.14-.05-.26-.04-.36.02l-.03.02h-.05c-.2.15-.27.49-.19.7Z"/>
  <path class="b" d="M33.93,21.23h-.65c-.32.25-.58.6-.78.86-.05.07-.11.14-.15.2-.1.18-.21.39-.33.6-.11.2-.22.41-.33.6-.12.32-.27.63-.44.95-.05.1-.1.19-.15.29-.02.08-.08.12-.11.14h0s-.03.07-.06.11c-.02.05-.06.09-.11.11l-.03.03c-.54.76-1.22,1.43-2.07,2.02.19.08.38.16.56.24.26.11.52.22.8.33l.04.03s.02.02.04.03c.06.05.18.14.18.29s-.08.3-.15.37c-.85.55-1.65.96-2.46,1.28-.09.47-.14.9-.19,1.39.17.05.29.12.42.18.08.05.16.09.26.13l.05.03c.09.09.18.14.29.19.61.25,1.34.04,2.04-.23.18-.09.32-.14.46-.19l-.05-1.28c-.05-.25-.06-.35.01-.5l2.14-7.25c0-.09,0-.17.05-.25v-.14h.14l.59-.56Z"/>
  <path class="b" d="M49.31,15.87l1.39-.27c.13-.13.26-.27.38-.4h-4.89s-.1-.02-.15-.03c-.02,0-.06-.02-.08-.02h-.04c-.17-.06-.37-.11-.45-.11l-3.25-.82,1.59,1.16,3.98.55.77.11.62-.1.13-.06Z"/>
  <path class="b" d="M65.68,157.27c-.19-.08-.37-.16-.56-.23.19.07.38.15.56.23Z"/>
  <path class="b" d="M71.78,159.63c-.5,0-1.02-.2-1.53-.28-.08-.01-.16-.03-.24-.04-.52-.1-1.02-.1-1.54-.29-.12-.06-.22-.18-.25-.29-.03-.09-.02-.17.02-.23.03-.09.1-.17.19-.22.11-.06.24-.06.36-.01,1.44.58,3.05.72,4.68.38,1.45-.34,2.82-1.05,3.86-2.02-1.08-1.05-2.77-1.74-4.56-1.85-.13,0-.27-.01-.41-.01-1.62,0-3.19.57-4.45,1.64-.12.07-.26.08-.36.05-.08-.02-.13-.07-.17-.13-.07-.08-.11-.18-.11-.28,0-.11.04-.21.12-.29.63-.54,1.42-.99,2.42-1.37-.41-.25-.82-.5-1.21-.79-.07.11-.19.18-.35.18h-.14v-.06c-.18-.02-.39-.1-.6-.24-.21-.21-.23-.45-.08-.6.02-.02.03-.04.05-.05-.05.01-.09.01-.12.01h-.05l-.69-.17h0c-.17,0-.32-.25-.32-.47l.02-.06c.03-.05.05-.1.09-.13h-.07s-.83-.34-.83-.34c-.22-.11-.31-.31-.24-.51.05-.11.15-.2.25-.24h0c-.62-.68-1.02-1.25-1.24-1.79-.02,0-.04.01-.05.02l-.03.02c-.73.39-1.41.62-2.06.84-.51.12-.96.03-1.45.05-.07,0-.13,0-.2,0-.47,0-.97.13-1.39.05-.04,0-.07,0-.11,0,.12.49.22,1.06.27,1.62,0,.14,0,.23-.09.33-1.07,1.18-1.44,2.97-.91,4.44l.37,2.01,3.11.05c.01-.24.05-.48.11-.72-.93-.01-1.82-.11-2.76-.2l-.16-.02c-.19,0-.34-.25-.34-.41,0-.24.22-.42.41-.42,1.14.16,2.23.22,3.28.27h.14s.38,0,.38,0c1.11,0,2.21.48,3.04.9.34.17.73.4,1.07.62.12.07.26.14.39.22.47.26.95.53,1.45.7,3,1.2,6.1.11,7.68-.66.52-.18,1-.45,1.4-.81.31-.31.52-.63.63-.94l-.44-.07c-1.2,1.18-2.75,2.04-4.37,2.42-.61.11-1.23.17-1.85.17ZM60.01,151.19c.05-.14.2-.23.3-.27h.06s1.32-.01,1.32-.01c.24,0,.42.17.42.41,0,.17-.15.33-.38.41h-.02s-1.34,0-1.34,0c-.19,0-.34-.17-.36-.39-.02-.05-.02-.1,0-.15ZM59.75,152.19c.05-.11.16-.2.28-.24.08-.03.16-.03.24.01.29.09.61.09.93.09.2,0,.42.18.42.41,0,.19-.18.42-.42.42h-.11c-.35,0-.68-.06-1.03-.17-.21-.07-.32-.22-.32-.46l.02-.06ZM59.52,153.15c.07-.23.23-.37.4-.37h.05c.45.11.92.16,1.44.22.13,0,.24.05.3.14.06.08.08.19.04.29-.01.18-.18.33-.36.33h-.05c-.51-.05-1.01-.11-1.45-.16-.24,0-.4-.24-.4-.41v-.04ZM61.97,154.88l-2.32-.11c-.23,0-.41-.22-.41-.41,0-.24.22-.42.42-.42l2.43.13c.18.1.3.27.3.45,0,.2-.19.36-.41.36ZM66.44,154.71l.32-.54c.16-.23.39-.25.57-.16l.04.03c.18.18.2.43.05.58l-.33.56c-.06.06-.2.15-.31.15-.06,0-.16,0-.25-.08-.09-.05-.15-.14-.17-.25-.02-.1.01-.2.09-.28ZM65.36,153.87l.17-.59c0-.12.07-.23.17-.3.09-.05.2-.07.29-.03.14.05.24.12.29.22.04.08.05.18.02.28l-.16.59c-.01.18-.17.34-.36.34h-.1c-.22-.08-.32-.23-.32-.47v-.04ZM64.42,152.66v-.06c.04-.1.08-.18.11-.26.02-.06.04-.12.07-.18h0c.09-.2.35-.28.55-.19.2.09.27.28.2.5-.03.08-.05.15-.08.23-.03.07-.06.13-.09.22l-.05.08c-.03.14-.17.24-.35.24l-.18-.02c-.1-.05-.19-.16-.22-.27-.03-.09-.01-.19.03-.28ZM63.38,151.82l.17-.44c.09-.19.34-.28.52-.19.11.04.19.1.23.19.04.09.04.19,0,.31l-.16.44c-.09.16-.24.25-.41.25-.02,0-.09,0-.17-.06-.06-.02-.11-.05-.15-.1-.08-.1-.09-.26-.04-.4h0ZM67.72,158l-.03.04c-.06.06-.15.15-.32.15h-.2l-.03-.02c-1.13-.7-2.32-1.2-3.66-1.53-.09.02-.19-.05-.26-.15-.08-.1-.1-.24-.05-.36.11-.23.31-.32.51-.25,1.49.36,2.8.88,3.89,1.56h0c.23.16.24.4.16.57Z"/>
  <polygon class="b" points="66.93 152.03 66.93 152.03 66.93 152.03 66.93 152.03"/>
  <path class="b" d="M59.34,149.37c.91.12,1.77.05,2.6-.17h.01c.6-.11,1.16-.33,1.69-.65-.54-2.42-.76-4.98-.92-7.38l-.11-.99c-.23-2.83-.51-5.58-1.37-8.09-1.94,1.2-4.34,1.86-6.77,1.86-.33,0-.7,0-1.05-.07.18,1.26.64,2.66,1.45,4.4.26.61.59,1.22.91,1.8l.25.46c.16.34.33.68.51,1.02.31.6.63,1.23.88,1.87.8,1.7,1.41,3.59,1.93,5.94ZM59.76,148.58h-.05c-.37,0-.41-.25-.41-.36-.23-1.52-.65-2.86-1.26-4.08-.09-.18,0-.43.18-.52.24-.08.48,0,.57.18.67,1.39,1.11,2.85,1.34,4.35,0,.25-.16.43-.36.43ZM61.49,147.62l-.03.02h-.15c-.12,0-.25,0-.34-.19-.37-.55-.52-1.16-.62-1.69v-.02c0-.22.13-.36.27-.4v-.06h.13c.17,0,.33.14.41.37.06.52.23,1,.48,1.41.09.18.07.42-.16.57ZM59.11,134.06c.17-.09.42.08.5.24l1.66,5.37c.04.07.04.18,0,.28-.05.11-.13.19-.25.23h-.02s-.13,0-.13,0c-.2,0-.29-.12-.34-.24l-1.73-5.42c0-.18.1-.39.32-.46ZM57.32,134.62c.04-.11.13-.19.25-.23.06-.04.18-.04.27,0,.11.05.19.13.23.25.76,2.17,1.33,4.05,1.72,5.76.04.11.02.26-.06.36-.06.09-.15.13-.24.13h-.05c-.17,0-.32-.09-.4-.24-.59-2.28-1.13-4.11-1.71-5.76-.04-.08-.04-.18,0-.28ZM55.73,134.87c.05-.1.13-.16.24-.2.05-.03.14-.03.22,0,.12.04.23.13.28.24h0s3.15,8.63,3.15,8.63c.04.13.04.26-.02.37-.05.1-.13.16-.24.2h-.02s-.08,0-.08,0c-.18,0-.32-.09-.4-.24l-3.15-8.63c-.04-.13-.04-.26.02-.37ZM57.37,141.68h-.15c-.13,0-.29-.06-.38-.15l-.02-.04c-1.07-2.38-1.92-4.38-2.66-6.42h0c-.08-.23.06-.47.23-.56.23-.09.41.02.52.23.8,2.28,1.69,4.43,2.65,6.4.09.18,0,.43-.17.52h-.03Z"/>
  <path class="b" d="M59.05,146.53c-.07-.28-.16-.55-.25-.83.09.27.18.55.25.83Z"/>
  <path class="b" d="M60.84,129.25c.02.07.03.14.04.21-.01-.07-.02-.14-.04-.21Z"/>
  <path class="b" d="M53.32,131.36c-.02-.07-.04-.14-.05-.22.02.07.04.15.05.22Z"/>
  <path class="b" d="M52.8,133.02c3.32.46,6.71-.46,9.36-2.54.04-1.49-.33-3.03-1.06-4.45-.03.04-.07.08-.1.12-.09.1-.18.2-.26.29-.06.07-.08.08-.18.13-.85.91-2.03,1.68-3.23,2.11h0c-1.78.62-3.82.67-5.58.12h-.09s-.03,0-.04,0c.38,1.74.74,3.06,1.18,4.21ZM60.65,127.82c.08-.04.19-.04.27,0,.11.04.19.13.23.25.34.75.51,1.59.45,2.38,0,.23-.18.4-.42.4s-.41-.22-.41-.41c.06-.77-.07-1.49-.37-2.03v-.02c-.09-.25.01-.48.24-.56ZM58.42,131.15c.2-.4.2-.91,0-1.31-.14-.43.11-.55.19-.58.17-.09.4,0,.5.18.33.62.36,1.39.05,2.05-.07.15-.23.25-.4.25-.02,0-.1,0-.19-.08-.16-.09-.24-.33-.15-.5h0ZM57.05,129.95h0c.57.58.75,1.53.41,2.21-.09.16-.24.24-.34.24-.12,0-.19-.04-.23-.09-.08-.04-.14-.09-.18-.17-.04-.09-.04-.19,0-.31.2-.42.09-1.01-.24-1.29-.17-.17-.17-.43,0-.59.16-.16.42-.16.58,0ZM55.1,130.33c.09-.07.19-.11.29-.1.12.01.22.08.3.19.43.61.52,1.44.24,2.12-.08.15-.24.25-.4.25l-.18-.02c-.09-.05-.16-.13-.19-.23-.03-.1-.02-.2.02-.28.18-.4.12-.96-.16-1.41-.06-.05-.09-.16-.08-.27.02-.11.08-.2.17-.25ZM52.92,129.69c.22,0,.36.14.36.36v.06c0,.8.18,1.54.53,2.14.09.26,0,.49-.17.58h-.03s-.2.01-.2.01c-.1,0-.25-.08-.32-.15l-.02-.03c-.47-.94-.57-1.9-.57-2.55,0-.24.18-.42.41-.42Z"/>
  <path class="b" d="M51.94,128.11c1.69.48,3.46.42,5.13-.17,1-.35,2.02-1.01,2.88-1.85-.17-.94-.44-1.73-.84-2.46l-2.13,1.36c-1.66,1.05-3.44,1.65-5.44,1.83.06.44.19.87.41,1.3Z"/>
  <path class="b" d="M46.72,3.58v.05c-.09.25.12.51.3.6l.04.02c.08.08.33.15.59-.06.09-.09.15-.24.15-.39,0-.12-.04-.22-.1-.29-.08-.12-.28-.18-.51-.18-.1,0-.13,0-.22.04h-.06s-.19.02-.19.21Z"/>
  <path class="b" d="M47.87,16.76c-.06.04-.09.07-.12.14l-.03.03c-.1.1-.19.19-.29.28-.12.11-.23.22-.33.33l.64.04h.22c.05,0,.1,0,.15,0,.11-.23.24-.48.39-.73l-.62-.11Z"/>
</svg>